<svg xmlns="http://www.w3.org/2000/svg"><defs><font horiz-adv-x="1024"><font-face font-family="BebasNeue" font-weight="400" units-per-em="2048" panose-1="2 0 5 3 0 0 0 0 0 0" ascent="1536" descent="-512" x-height="1434" cap-height="1434" bbox="-88 -367 1485.04 1831" underline-thickness="102" underline-position="-123" unicode-range="U+0020-0237"/><glyph glyph-name=".notdef" horiz-adv-x="1024"/><glyph glyph-name=".null" horiz-adv-x="0"/><glyph glyph-name="nonmarkingreturn" horiz-adv-x="681"/><glyph glyph-name="space" horiz-adv-x="317"/><glyph glyph-name="exclam" unicode="!" horiz-adv-x="389" d="M86 217h217V0H86v217zm-4 1217h225V836l-28-519H111L82 836v598z"/><glyph glyph-name="quotedbl" unicode="&quot;" horiz-adv-x="665" d="M397 1012l-30 422h217l-33-422H397zm-284 0l-31 422h217l-33-422H113z"/><glyph glyph-name="numbersign" unicode="#" horiz-adv-x="839" d="M371 944l-39-375h133l39 375H371zM406 0l43 410H315L272 0H88l43 410H31l16 159h100l39 375H84l16 160h103l35 330h184l-35-330h133l35 330h184l-34-330h104l-16-160H688l-39-375h105l-17-159H633L590 0H406z"/><glyph glyph-name="dollar" unicode="$" d="M76 1069q0 297 237 350v107h185v-107q242-49 241-350v-45H526v59q0 141-112 142-113 0-113-142 0-82 44-145t110-119q71-53 135-110t106-144q45-83 45-215t-61-223Q614 37 498 12V-92H313V12Q69 61 70 365v98h213V350q1-139 117-139t116 143-156 260q-57 51-129 107Q76 860 76 1069z"/><glyph glyph-name="percent" unicode="%" horiz-adv-x="1284" d="M780 219v471q0 113 56 171 56 59 161 59t161-60 56-170V219q0-229-217-229-105 0-161 59t-56 170zm144 481V209q0-90 74-90t73 90v491q0 90-74 91-73-1-73-91zM287 0l565 1434h133L420 0H287zM70 743v471q0 228 217 230 105 0 161-58t56-172V743q0-229-217-229-105 0-161 58T70 743zm143 482V733q0-90 74-90t73 90v492q0 90-74 90t-73-90z"/><glyph glyph-name="ampersand" unicode="&" horiz-adv-x="847" d="M309 330q0-141 117-142 111 0 117 125v332h-86q-80 0-114-42t-34-140V330zM84 457q0 231 156 301-156 63-156 295v26q0 354 336 355h258v-205H424q-115 0-115-139v-89q0-84 35-116 31-35 100-35h99v160h225V850h59V645h-59V174q0-117 25-174H563q-18 53-20 113Q484-16 334-16 84-16 84 311v146z"/><glyph glyph-name="quotesingle" unicode="'" horiz-adv-x="368" d="M106 1012l-30 422h217l-33-422H106z"/><glyph glyph-name="parenleft" unicode="(" horiz-adv-x="514" d="M412 1434h69v-185h-55q-57 0-80-28-25-25-24-101V313q0-76 24-100 23-29 80-29h55V0h-69Q244 0 168 72q-72 72-72 241v807q0 170 72 242 76 72 244 72z"/><glyph glyph-name="parenright" unicode=")" horiz-adv-x="514" d="M33 1434h69q170 0 243-72t73-242V313q0-169-73-241T102 0H33v184h55q57 0 80 29 25 25 25 100v807q0 76-25 101-23 29-80 28H33v185z"/><glyph glyph-name="asterisk" unicode="*" d="M61 1249l306-153-54 338h185l-54-338 306 153 57-174-336-57 240-240-148-108-157 303-158-303-148 108 240 240-336 57z"/><glyph glyph-name="plus" unicode="+" d="M485 1073V797h275V637H485V356H326v281H51v160h275v276h159z"/><glyph glyph-name="comma" unicode="," horiz-adv-x="380" d="M82 0v217h217V23l-98-228h-92L168 0H82z"/><glyph glyph-name="hyphen" unicode="-" horiz-adv-x="552" d="M72 614v205h409V614H72z"/><glyph glyph-name="period" unicode="." horiz-adv-x="380" d="M82 217h217V0H82v217z"/><glyph glyph-name="slash" unicode="/" horiz-adv-x="780" d="M10 0l565 1434h195L205 0H10z"/><glyph glyph-name="zero" unicode="0" d="M63 344v746q1 172 89 266t254 94 254-94 88-266V344q0-172-88-266T406-16 152 78 63 344zm226 760V330q0-141 117-142 117 0 116 142v774q0 141-116 141t-117-141z"/><glyph glyph-name="one" unicode="1" d="M221 1094v159q119 0 166 45t82 136h152V0H395v1094H221z"/><glyph glyph-name="two" unicode="2" d="M528 1072q0 102-30 137-30 36-86 36-117 0-117-141V950H82v140q0 174 86 267t250 93 250-93 86-267q0-119-45-238-51-116-103-180T469 516q-84-92-117-147-47-66-47-133 0-25 2-31h426V0H82v176q0 113 45 213 51 100 113 172 4 7 131 144 59 61 112 165 45 100 45 202z"/><glyph glyph-name="three" unicode="3" d="M516 1001v80q0 92-30 128t-87 36q-117 0-116-141v-92H70v78q0 174 86 267t250 93 250-93 85-267v-37q0-229-157-295 158-72 157-301V344q0-174-86-267-85-93-249-93T156 77 70 344v119h213V330q0-141 116-142 57 0 87 36t30 126v113q0 98-35 140t-112 42h-76v205h88q63 0 102 35 33 36 33 116z"/><glyph glyph-name="four" unicode="4" d="M459 465v530L236 465h223zM29 260v205l409 969h246V465h107V260H684V0H459v260H29z"/><glyph glyph-name="five" unicode="5" d="M72 463h213V330q0-139 116-140 117 0 117 140v315q0 141-117 141T285 645v-43H72l41 832h594v-205H315l-18-342q63 104 197 104 250 0 249-327V344q0-174-86-267-85-93-249-93T158 77 72 344v119z"/><glyph glyph-name="six" unicode="6" d="M410 729q-117 0-117-141V330q0-139 117-140 117 0 116 140v258q1 141-116 141zM68 344v733q0 373 344 373 164 0 250-93t86-267v-37H535v51q0 141-117 141-63 0-94-39t-31-137V807q59 127 209 127 250 0 250-328V344q0-172-88-266T410-16 156 78 68 344z"/><glyph glyph-name="seven" unicode="7" d="M68 1434h675v-197L412 0H186l330 1229H68v205z"/><glyph glyph-name="eight" unicode="8" d="M279 1081v-80q0-152 127-151 127 0 126 151v80q0 164-126 164t-127-164zm0-731q0-162 126-162t127 162v133q0 162-126 162T279 483V350zm479-6q0-170-90-266-92-94-262-94T143 78q-90 96-90 266v113q0 221 140 299-139 78-140 288v46q0 170 90 266 93 94 263 94t262-94q90-96 90-266v-46q0-211-140-288 139-78 140-299V344z"/><glyph glyph-name="nine" unicode="9" d="M401 705q117 0 117 141v258q0 139-117 139t-116-139V846q-1-141 116-141zm342 385V356q0-373-344-372-163 0-249 93T63 344v37h213v-51q0-141 117-142 63 0 94 39t31 138v262q-59-127-209-127-250 0-250 327v263q0 172 88 266t254 94 254-94 88-266z"/><glyph glyph-name="colon" unicode=":" horiz-adv-x="380" d="M82 997h217V780H82v217zm0-780h217V0H82v217z"/><glyph glyph-name="semicolon" unicode=";" horiz-adv-x="380" d="M82 997h217V780H82v217zM82 0v217h217V23l-98-228h-92L168 0H82z"/><glyph glyph-name="less" unicode="<" d="M729 391L61 637v160l668 245V881L270 717l459-164V391z"/><glyph glyph-name="equal" unicode="=" d="M72 963h667V803H72v160zm0-332h667V471H72v160z"/><glyph glyph-name="greater" unicode=">" d="M750 637L82 391v162l459 164L82 881v161l668-245V637z"/><glyph glyph-name="question" unicode="?" horiz-adv-x="737" d="M236 217h217V0H236v217zm243 896q-1 132-113 132t-112-141V948H41v142q0 172 83 266t249 94 249-94 83-266q0-124-42-228-41-104-91-160t-93-137q-41-85-41-151t8-97H246q-12 37-12 116t40 168q41 89 82 137t82 146 41 229z"/><glyph glyph-name="at" unicode="@" horiz-adv-x="1411" d="M745 901q-97 8-116-129l-19-174q-14-131 88-135 95-8 115 129l21 194q6 57-19 86t-70 29zm230-641q-168 0-180 135-63-129-199-123-217 6-184 316l22 207q32 307 250 303 129-4 168-127l12 119h197l-62-592q-6-51 41-52 80 0 122 144t42 334q0 188-100 303t-307 114q-271 1-413-199T242 584q0-252 118-396Q483 49 722 49t421 139L1126-8Q952-123 707-123q-334 0-496 193Q49 258 49 594q-1 387 187 648 94 130 239 202t330 72q303 0 436-164t133-439q0-182-40-317t-101-199q-119-137-258-137z"/><glyph glyph-name="A" unicode="A" horiz-adv-x="833" d="M406 1180L297 455h217zm176 254L811 0H584l-39 260H268L229 0H23l229 1434h330z"/><glyph glyph-name="B" unicode="B" horiz-adv-x="831" d="M416 1229H307V850h88q70 0 101 35 35 33 34 116v80q1 148-114 148zm-8-584H307V205h129q61 0 89 33t28 108v125q0 96-33 135-36 39-112 39zm14 789q174 0 254-81t80-249v-51q0-221-146-289 168-63 168-307V340q0-164-86-254Q602 0 436 0H82v1434h340z"/><glyph glyph-name="C" unicode="C" horiz-adv-x="790" d="M522 535h213V344q0-174-86-267T399-16q-163 0-249 93T63 344v746q1 174 87 267t250 93 249-93q86-93 86-267V950H522v154q0 141-116 141t-117-141V330q0-139 117-140 117 0 116 140v205z"/><glyph glyph-name="D" unicode="D" horiz-adv-x="835" d="M434 1229H307V205h127q115 0 115 139v746q0 139-115 139zM82 0v1434h356q336 0 336-355V354Q774 0 438 0H82z"/><glyph glyph-name="E" unicode="E" horiz-adv-x="753" d="M307 1229V829h309V625H307V205h389V0H82v1434h614v-205H307z"/><glyph glyph-name="F" unicode="F" horiz-adv-x="704" d="M307 1229V797h291V592H307V0H82v1434h596v-205H307z"/><glyph glyph-name="G" unicode="G" horiz-adv-x="798" d="M420 594v205h315V344q0-174-86-267T399-16q-163 0-249 93T63 344v746q1 174 87 267t250 93 249-93q86-93 86-267V950H522v154q0 141-116 141t-117-141V330q0-139 117-140 117 0 116 140v264H420z"/><glyph glyph-name="H" unicode="H" horiz-adv-x="874" d="M307 614V0H82v1434h225V819h256v615h230V0H563v614H307z"/><glyph glyph-name="I" unicode="I" horiz-adv-x="389" d="M82 0v1434h225V0H82z"/><glyph glyph-name="J" unicode="J" horiz-adv-x="524" d="M98 203q129 0 129 137v1094h226V356Q453-4 129-4 69-4 20 0v205q16-2 78-2z"/><glyph glyph-name="K" unicode="K" horiz-adv-x="847" d="M307 0H82v1434h225V809l295 625h225L514 795 827 0H596L377 571l-70-131V0z"/><glyph glyph-name="L" unicode="L" horiz-adv-x="694" d="M82 0v1434h225V205h371V0H82z"/><glyph glyph-name="M" unicode="M" horiz-adv-x="1107" d="M1026 1434V0H813v1028L657 0H444L276 1014V0H80v1434h313L559 416l154 1018h313z"/><glyph glyph-name="N" unicode="N" horiz-adv-x="874" d="M283 0H80v1434h282l232-859v859h201V0H563L283 1038V0z"/><glyph glyph-name="O" unicode="O" d="M63 344v746q1 172 89 266t254 94 254-94 88-266V344q0-172-88-266T406-16 152 78 63 344zm226 760V330q0-141 117-142 117 0 116 142v774q0 141-116 141t-117-141z"/><glyph glyph-name="P" unicode="P" horiz-adv-x="772" d="M414 1229H307V743h107q57 0 82 31 29 29 28 105v215q0 76-28 104-25 31-82 31zm0 205q336 0 336-355V893q0-354-336-354H307V0H82v1434h332z"/><glyph glyph-name="Q" unicode="Q" d="M289 1104V330q0-141 117-142 117 0 116 142v774q0 141-116 141t-117-141zM63 344v746q1 172 89 266t254 94 254-94 88-266V344q0-121-43-201 12-31 63-30h20V-88h-30q-145 0-195 98-72-27-157-26-166 0-254 94T63 344z"/><glyph glyph-name="R" unicode="R" horiz-adv-x="823" d="M416 1229H307V788h88q70 0 101 35 35 33 34 117v141q1 148-114 148zm116-828q0 99-34 141t-113 42h-78V0H82v1434h340q174 0 254-81t80-249V991q0-221-148-291 150-63 150-305V174Q757 57 782 0H553q-20 59-21 176v225z"/><glyph glyph-name="S" unicode="S" horiz-adv-x="765" d="M53 1090q0 172 83 266t249 94 249-94 83-266v-46H504v60q0 141-113 141t-112-141q0-116 88-209 45-49 86-84 72-68 92-90 41-35 86-98 37-45 63-119t25-160q0-174-86-267T383-16 133 77 47 344v88h213V330q0-139 117-140 117 0 117 140 0 84-45 149-39 63-109 129-76 66-131 121-66 61-111 153t-45 208z"/><glyph glyph-name="T" unicode="T" horiz-adv-x="729" d="M16 1229v205h697v-205H477V0H252v1229H16z"/><glyph glyph-name="U" unicode="U" horiz-adv-x="815" d="M72 1434h225V328q0-139 117-140 117 0 116 140v1106h213V342q0-174-86-267-85-93-249-93T158 75 72 342v1092z"/><glyph glyph-name="V" unicode="V" horiz-adv-x="823" d="M250 1434L422 264l172 1170h207L580 0H244L23 1434h227z"/><glyph glyph-name="W" unicode="W" horiz-adv-x="1153" d="M664 0l-82 764L500 0H190L31 1434h219L371 303l108 1131h217L809 295l117 1139h196L963 0H664z"/><glyph glyph-name="X" unicode="X" horiz-adv-x="880" d="M625 1434h209L598 737 850 0H612L428 567 242 0H31l252 737-236 697h234l170-529z"/><glyph glyph-name="Y" unicode="Y" d="M293 0v475L8 1434h236l172-654 172 654h215L518 475V0H293z"/><glyph glyph-name="Z" unicode="Z" horiz-adv-x="757" d="M68 1434h639v-201L279 205h428V0H47v201l428 1028H68v205z"/><glyph glyph-name="bracketleft" unicode="[" horiz-adv-x="514" d="M96 0v1434h373v-185H322V184h147V0H96z"/><glyph glyph-name="backslash" unicode="\" horiz-adv-x="780" d="M205 1434L770 0H575L10 1434h195z"/><glyph glyph-name="bracketright" unicode="]" horiz-adv-x="514" d="M418 1434V0H45v184h148v1065H45v185h373z"/><glyph glyph-name="asciicircum" unicode="^" d="M41 799l285 635h159l285-635H590l-184 430-185-430H41z"/><glyph glyph-name="underscore" unicode="_" horiz-adv-x="1024" d="M0-184v164h1024v-164H0z"/><glyph glyph-name="grave" unicode="`" horiz-adv-x="512" d="M90 1737h232l139-228H299z"/><glyph glyph-name="a" unicode="a" horiz-adv-x="833" d="M406 1180L297 455h217zm176 254L811 0H584l-39 260H268L229 0H23l229 1434h330z"/><glyph glyph-name="b" unicode="b" horiz-adv-x="831" d="M416 1229H307V850h88q70 0 101 35 35 33 34 116v80q1 148-114 148zm-8-584H307V205h129q61 0 89 33t28 108v125q0 96-33 135-36 39-112 39zm14 789q174 0 254-81t80-249v-51q0-221-146-289 168-63 168-307V340q0-164-86-254Q602 0 436 0H82v1434h340z"/><glyph glyph-name="c" unicode="c" horiz-adv-x="790" d="M522 535h213V344q0-174-86-267T399-16q-163 0-249 93T63 344v746q1 174 87 267t250 93 249-93q86-93 86-267V950H522v154q0 141-116 141t-117-141V330q0-139 117-140 117 0 116 140v205z"/><glyph glyph-name="d" unicode="d" horiz-adv-x="835" d="M434 1229H307V205h127q115 0 115 139v746q0 139-115 139zM82 0v1434h356q336 0 336-355V354Q774 0 438 0H82z"/><glyph glyph-name="e" unicode="e" horiz-adv-x="753" d="M307 1229V829h309V625H307V205h389V0H82v1434h614v-205H307z"/><glyph glyph-name="f" unicode="f" horiz-adv-x="704" d="M307 1229V797h291V592H307V0H82v1434h596v-205H307z"/><glyph glyph-name="g" unicode="g" horiz-adv-x="798" d="M420 594v205h315V344q0-174-86-267T399-16q-163 0-249 93T63 344v746q1 174 87 267t250 93 249-93q86-93 86-267V950H522v154q0 141-116 141t-117-141V330q0-139 117-140 117 0 116 140v264H420z"/><glyph glyph-name="h" unicode="h" horiz-adv-x="874" d="M307 614V0H82v1434h225V819h256v615h230V0H563v614H307z"/><glyph glyph-name="i" unicode="i" horiz-adv-x="389" d="M82 0v1434h225V0H82z"/><glyph glyph-name="j" unicode="j" horiz-adv-x="524" d="M98 203q129 0 129 137v1094h226V356Q453-4 129-4 69-4 20 0v205q16-2 78-2z"/><glyph glyph-name="k" unicode="k" horiz-adv-x="847" d="M307 0H82v1434h225V809l295 625h225L514 795 827 0H596L377 571l-70-131V0z"/><glyph glyph-name="l" unicode="l" horiz-adv-x="694" d="M82 0v1434h225V205h371V0H82z"/><glyph glyph-name="m" unicode="m" horiz-adv-x="1107" d="M1026 1434V0H813v1028L657 0H444L276 1014V0H80v1434h313L559 416l154 1018h313z"/><glyph glyph-name="n" unicode="n" horiz-adv-x="874" d="M283 0H80v1434h282l232-859v859h201V0H563L283 1038V0z"/><glyph glyph-name="o" unicode="o" d="M63 344v746q1 172 89 266t254 94 254-94 88-266V344q0-172-88-266T406-16 152 78 63 344zm226 760V330q0-141 117-142 117 0 116 142v774q0 141-116 141t-117-141z"/><glyph glyph-name="p" unicode="p" horiz-adv-x="772" d="M414 1229H307V743h107q57 0 82 31 29 29 28 105v215q0 76-28 104-25 31-82 31zm0 205q336 0 336-355V893q0-354-336-354H307V0H82v1434h332z"/><glyph glyph-name="q" unicode="q" d="M289 1104V330q0-141 117-142 117 0 116 142v774q0 141-116 141t-117-141zM63 344v746q1 172 89 266t254 94 254-94 88-266V344q0-121-43-201 12-31 63-30h20V-88h-30q-145 0-195 98-72-27-157-26-166 0-254 94T63 344z"/><glyph glyph-name="r" unicode="r" horiz-adv-x="823" d="M416 1229H307V788h88q70 0 101 35 35 33 34 117v141q1 148-114 148zm116-828q0 99-34 141t-113 42h-78V0H82v1434h340q174 0 254-81t80-249V991q0-221-148-291 150-63 150-305V174Q757 57 782 0H553q-20 59-21 176v225z"/><glyph glyph-name="s" unicode="s" horiz-adv-x="765" d="M53 1090q0 172 83 266t249 94 249-94 83-266v-46H504v60q0 141-113 141t-112-141q0-116 88-209 45-49 86-84 72-68 92-90 41-35 86-98 37-45 63-119t25-160q0-174-86-267T383-16 133 77 47 344v88h213V330q0-139 117-140 117 0 117 140 0 84-45 149-39 63-109 129-76 66-131 121-66 61-111 153t-45 208z"/><glyph glyph-name="t" unicode="t" horiz-adv-x="729" d="M16 1229v205h697v-205H477V0H252v1229H16z"/><glyph glyph-name="u" unicode="u" horiz-adv-x="815" d="M72 1434h225V328q0-139 117-140 117 0 116 140v1106h213V342q0-174-86-267-85-93-249-93T158 75 72 342v1092z"/><glyph glyph-name="v" unicode="v" horiz-adv-x="823" d="M250 1434L422 264l172 1170h207L580 0H244L23 1434h227z"/><glyph glyph-name="w" unicode="w" horiz-adv-x="1153" d="M664 0l-82 764L500 0H190L31 1434h219L371 303l108 1131h217L809 295l117 1139h196L963 0H664z"/><glyph glyph-name="x" unicode="x" horiz-adv-x="880" d="M625 1434h209L598 737 850 0H612L428 567 242 0H31l252 737-236 697h234l170-529z"/><glyph glyph-name="y" unicode="y" d="M293 0v475L8 1434h236l172-654 172 654h215L518 475V0H293z"/><glyph glyph-name="z" unicode="z" horiz-adv-x="757" d="M68 1434h639v-201L279 205h428V0H47v201l428 1028H68v205z"/><glyph glyph-name="braceleft" unicode="{" horiz-adv-x="526" d="M461 184h33V0H379q-99 0-159 57t-68 170l-17 275q-2 70-26 96-20 27-86 27v184q66 0 86 27 25 27 26 96l17 274q8 113 67 170t160 58h115v-185h-33q-55-1-81-33t-28-112l-10-205q-8-149-133-182 125-33 133-182l10-205q2-80 28-113t81-33z"/><glyph glyph-name="bar" unicode="|" horiz-adv-x="1024" d="M430-133v1700h184V-133H430z"/><glyph glyph-name="braceright" unicode="}" horiz-adv-x="526" d="M33 1249v185h114q100 0 160-58 59-59 68-170l16-274q2-70 27-96 20-27 86-27V625q-66 0-86-27-25-27-27-96l-16-275q-7-111-67-169T147 0H33v184h33q54 0 80 33t28 113l10 205q8 149 133 182-125 33-133 182l-10 205q-2 80-28 113t-80 32H33z"/><glyph glyph-name="asciitilde" unicode="~" d="M258 864q62 0 156-62 96-62 133-62t63 20q26 22 78 96l107-111q-74-104-127-140-54-36-116-36-62 1-156 63t-133 62q-38 0-66-22-27-26-74-94L16 680q74 111 127 143 53 41 115 41z"/><glyph glyph-name="uni00A0" horiz-adv-x="317"/><glyph glyph-name="exclamdown" unicode="¡" horiz-adv-x="389" d="M303 1217H86v217h217v-217zM307 0H82v598l29 518h168l28-518V0z"/><glyph glyph-name="cent" unicode="¢" d="M313-31V76Q73 125 74 426v582q0 299 239 350v106h185v-104q248-49 247-352v-99H532v113q0 141-116 141t-117-141V412q0-139 117-140 117 0 116 140v163h213V426q0-307-247-352V-31H313z"/><glyph glyph-name="sterling" unicode="£" d="M90 430v174h137q-14 39-56 123t-66 168-23 195q0 172 83 266t249 94 249-94 82-266V948H532v156q0 141-112 141t-113-141q1-177 87-364 36-79 50-136h248V430H459q-16-147-115-225h387V0H61v197q82 0 138 61 53 63 57 172H90z"/><glyph glyph-name="currency" unicode="¤" d="M141 717q0 78 37 137L66 969l88 88 114-115q60 39 136 39t139-39l114 115 88-88-114-115q39-63 39-139t-39-135l114-115-88-88-114 112q-59-37-137-37t-140 37L154 377l-88 88 112 113q-37 61-37 139zm133 0q0-53 39-92t93-39 92 39q39 39 39 92t-39 92-92 39q-52 0-92-39t-40-92z"/><glyph glyph-name="yen" unicode="¥" d="M705 555V442H518v-92h187V238H518V0H293v238H106v112h187v92H106v113h168L14 1434h236l166-633 166 633h215L535 555h170z"/><glyph glyph-name="brokenbar" unicode="¦" horiz-adv-x="1024" d="M430-133v727h184v-727H430zm0 973v727h184V840H430z"/><glyph glyph-name="section" unicode="§" d="M287 650q1-58 33-92t92-64q49 10 80 53t30 102q0 94-127 156-49-10-80-51-28-46-28-104zm-215-7q0 170 141 250-141 92-141 266 0 129 85 210t247 81 246-76q85-76 85-203v-73H522v43q0 57-30 88-27 35-82 35-113 0-113-115 0-43 45-80 43-29 109-61 167-61 241-172 45-72 45-179 0-170-143-251 143-88 143-265 0-129-86-210-87-81-247-81T159-73 74 129v102h213v-71q0-51 28-90 33-33 84-33 113 0 113 115 0 47-45 77-49 39-111 62-115 57-129 65-63 37-109 109T72 643z"/><glyph glyph-name="dieresis" unicode="¨" horiz-adv-x="512" d="M313 1706h197v-197H313v197zm-311 0h197v-197H2v197z"/><glyph glyph-name="copyright" unicode="©" horiz-adv-x="1507" d="M188 717q0-256 161-423t405-167 404 167 161 423q0 256-161 423-160 167-404 167t-405-167-161-423zm-147 0q0 319 205 524 203 209 508 209t508-209q204-205 204-524t-204-524Q1059-16 754-16T246 193Q41 398 41 717zm788-86h148V516q1-250-231-250T514 516v397q0 254 231 254t232-254v-73H829v86q1 98-79 98t-80-98V508q0-96 80-96t79 96v123z"/><glyph glyph-name="ordfeminine" unicode="ª" horiz-adv-x="569" d="M205 909v-18q0-88 74-88 68 0 73 74v159q-147-6-147-127zM61 588h435V446H61v142zm0 299q0 137 76 194t215 62v94q0 76-57 76-70 0-70-88v-47H90v39q0 227 211 227 195 0 195-227V682H375l-8 98q-35-109-146-108-160 0-160 207v8z"/><glyph glyph-name="guillemotleft" unicode="«" horiz-adv-x="727" d="M492 1245h202L569 719l125-559H492L365 719zm-332 0h202L238 719l124-559H160L33 719z"/><glyph glyph-name="logicalnot" unicode="¬" d="M51 797h709V356H600v281H51v160z"/><glyph glyph-name="uni00AD" unicode="­" horiz-adv-x="552" d="M72 614v205h409V614H72z"/><glyph glyph-name="registered" unicode="®" horiz-adv-x="1507" d="M758 1012h-74V766h64q94 0 94 104v37q0 105-84 105zm84-611v95q0 70-25 98t-80 29h-53V279H528v876h238q231 0 231-229v-19q0-158-106-202 106-43 106-211v-95q1-79 19-120H856q-14 35-14 122zM188 717q0-256 161-423t405-167 404 167 161 423q0 256-161 423-160 167-404 167t-405-167-161-423zm-147 0q0 319 205 524 203 209 508 209t508-209q204-205 204-524t-204-524Q1059-16 754-16T246 193Q41 398 41 717z"/><glyph glyph-name="macron" unicode="¯" horiz-adv-x="512" d="M20 1677h472v-159H20v159z"/><glyph glyph-name="degree" unicode="°" horiz-adv-x="466" d="M133 1247q0-41 30-71 31-30 71-29 40 0 70 30 30 31 30 71t-30 70-71 30-71-30-29-71zm-102 0q0 83 59 143t143 60q83 0 143-59t60-143-59-144-143-60-144 60q-59 60-59 143z"/><glyph glyph-name="plusminus" unicode="±" d="M485 516h254V356H72v160h254v164H72v160h254v233h159V840h254V680H485V516z"/><glyph glyph-name="uni00B2" unicode="²" horiz-adv-x="573" d="M369 1409q0 102-74 102t-74-90v-96H86v88q0 227 213 227t213-227q0-100-48-192-48-91-104-143-148-135-131-230h271V719H86v110q0 139 98 244l86 94q43 45 71 109t28 133z"/><glyph glyph-name="uni00B3" unicode="³" horiz-adv-x="573" d="M356 942v70q0 59-20 90-25 25-72 24h-49v129h55q86 0 86 99v51q0 104-74 104t-73-90v-57H74v47q0 229 213 229t213-229v-23q0-147-101-186 100-43 101-190v-72q0-229-213-229T74 938v74h135v-84q-1-90 73-90t74 104z"/><glyph glyph-name="acute" unicode="´" horiz-adv-x="512" d="M195 1737h221l-209-228H55z"/><glyph glyph-name="mu" unicode="µ" d="M289 1024V330q0-141 117-142 117 0 116 142v694h226V0H543v106Q480-17 338-16q-12 0-49 4v-178H63v1214h226z"/><glyph glyph-name="paragraph" unicode="¶" d="M729 1434V-133H565v1403H455V-133H291l4 676q-125 0-196 95T29 893v186q0 354 336 355h364z"/><glyph glyph-name="periodcentered" unicode="·" horiz-adv-x="380" d="M82 825h217V608H82v217z"/><glyph glyph-name="cedilla" unicode="¸" horiz-adv-x="512" d="M53-182v20h152v-16q0-41 45-41 51 0 51 51t-74 51h-20V29h98V-80q80 0 115-22 37-18 37-84t-51-90-156-25Q53-301 53-182z"/><glyph glyph-name="uni00B9" unicode="¹" horiz-adv-x="409" d="M51 1413v100q72 0 105 28t55 87h94V719H162v694H51z"/><glyph glyph-name="ordmasculine" unicode="º" horiz-adv-x="573" d="M70 588h434V446H70v142zm0 311v318q0 111 57 167 55 60 159 60t160-60q57-57 58-167V899q0-111-58-168-55-59-159-59-105 0-161 58T70 899zm143 326V891q0-88 74-88t73 88v334q0 88-74 88t-73-88z"/><glyph glyph-name="guillemotright" unicode="»" horiz-adv-x="727" d="M33 1245h203l126-526-126-559H33l125 559zm332 0h202l127-526-127-559H365l124 559z"/><glyph glyph-name="onequarter" unicode="¼" horiz-adv-x="1284" d="M1034 295v336L889 295h145zM760 164v131l260 614h156V295h67V164h-67V0h-142v164H760zM328 0l565 1434h133L461 0H328zM133 1219v100q72 0 105 29t55 86h94V524H244v695H133z"/><glyph glyph-name="onehalf" unicode="½" horiz-adv-x="1284" d="M1079 690q0 102-73 103-74 0-74-91v-96H797v88q0 227 213 228 213 0 213-228 0-100-49-193-50-93-104-143-148-137-130-229h270V0H797v111q0 128 100 245l82 90q100 117 100 244zM266 0l565 1434h134L399 0H266zM133 1219v100q72 0 105 29t55 86h94V524H244v695H133z"/><glyph glyph-name="threequarters" unicode="¾" horiz-adv-x="1284" d="M1034 295v336L889 295h145zM760 164v131l260 614h156V295h67V164h-67V0h-142v164H760zM348 0l565 1434h134L481 0H348zm8 748v69q0 61-20 88-25 27-72 27h-49v129h55q86 0 86 98v51q0 104-73 105-74 0-74-90v-58H74v47q0 229 213 230 213 0 213-230v-22q0-147-101-186 100-43 101-191v-72q0-229-213-229T74 743v74h135v-84q0-90 74-90 73 1 73 105z"/><glyph glyph-name="questiondown" unicode="¿" horiz-adv-x="737" d="M502 1217H285v217h217v-217zm2-217q0-78-41-167t-82-137-82-146q-41-97-41-229t113-133q113 0 112 142v155h213V344q0-172-83-266T364-16 116 78q-83 94-83 266 0 123 42 227 42 105 91 161t92 136q41 86 41 152t-8 96h201q12-38 12-116z"/><glyph glyph-name="Agrave" unicode="À" horiz-adv-x="833" d="M170 1737h231l140-228H379zm236-557L297 455h217zm176 254L811 0H584l-39 260H268L229 0H23l229 1434h330z"/><glyph glyph-name="Aacute" unicode="Á" horiz-adv-x="833" d="M436 1737h221l-208-228H297zm-30-557L297 455h217zm176 254L811 0H584l-39 260H268L229 0H23l229 1434h330z"/><glyph glyph-name="Acircumflex" unicode="Â" horiz-adv-x="833" d="M326 1509H133l182 228h203l182-228H508l-92 113zm80-329L297 455h217zm176 254L811 0H584l-39 260H268L229 0H23l229 1434h330z"/><glyph glyph-name="Atilde" unicode="Ã" horiz-adv-x="833" d="M498 1665q59 0 88 59l108-75q-53-139-174-140-47 0-101 26t-83 26q-59 0-88-60l-109 76q53 139 174 139 47 0 103-24 53-27 82-27zm-92-485L297 455h217zm176 254L811 0H584l-39 260H268L229 0H23l229 1434h330z"/><glyph glyph-name="Adieresis" unicode="Ä" horiz-adv-x="833" d="M473 1706h197v-197H473v197zm-311 0h196v-197H162v197zm244-526L297 455h217zm176 254L811 0H584l-39 260H268L229 0H23l229 1434h330z"/><glyph glyph-name="Aring" unicode="Å" horiz-adv-x="833" d="M354 1667q0-27 18-44t44-17q27 0 44 17t17 44-17 44-44 17q-26 0-44-16-18-18-18-45zm-102 0q0 70 47 117t117 47 116-47 48-117q0-70-48-117t-116-47q-70 0-117 47t-47 117zm154-487L297 455h217zm176 254L811 0H584l-39 260H268L229 0H23l229 1434h330z"/><glyph glyph-name="AE" unicode="Æ" horiz-adv-x="1187" d="M516 455v690L340 455h176zm0-455v260H289L223 0H8l383 1434h739v-205H741V829h310V625H741V205h389V0H516z"/><glyph glyph-name="Ccedilla" unicode="Ç" horiz-adv-x="790" d="M522 535h213V344q0-160-75-253T444-14v-66q80 0 115-22 37-18 37-84t-51-90-156-25q-197 0-196 119v20h151v-16q0-41 45-41 51 0 51 51t-73 51h-21v105Q63 17 63 344v746q1 174 87 267t250 93 249-93q86-93 86-267V950H522v154q0 141-116 141t-117-141V330q0-139 117-140 117 0 116 140v205z"/><glyph glyph-name="Egrave" unicode="È" horiz-adv-x="753" d="M139 1737h232l139-228H348zm168-508V829h309V625H307V205h389V0H82v1434h614v-205H307z"/><glyph glyph-name="Eacute" unicode="É" horiz-adv-x="753" d="M408 1737h221l-209-228H268zm-101-508V829h309V625H307V205h389V0H82v1434h614v-205H307z"/><glyph glyph-name="Ecircumflex" unicode="Ê" horiz-adv-x="753" d="M295 1509H102l183 228h202l183-228H477l-92 113zm12-280V829h309V625H307V205h389V0H82v1434h614v-205H307z"/><glyph glyph-name="Edieresis" unicode="Ë" horiz-adv-x="753" d="M444 1706h197v-197H444v197zm-311 0h197v-197H133v197zm174-477V829h309V625H307V205h389V0H82v1434h614v-205H307z"/><glyph glyph-name="Igrave" unicode="Ì" horiz-adv-x="389" d="M-51 1737h231l139-228H158zM82 0v1434h225V0H82z"/><glyph glyph-name="Iacute" unicode="Í" horiz-adv-x="389" d="M215 1737h221l-209-228H76zM82 0v1434h225V0H82z"/><glyph glyph-name="Icircumflex" unicode="Î" horiz-adv-x="389" d="M104 1509H-88l182 228h203l182-228H287l-92 113zM82 0v1434h225V0H82z"/><glyph glyph-name="Idieresis" unicode="Ï" horiz-adv-x="389" d="M252 1706h197v-197H252v197zm-311 0h196v-197H-59v197zM82 0v1434h225V0H82z"/><glyph glyph-name="Eth" unicode="Ð" horiz-adv-x="835" d="M434 1229H307V809h139V625H307V205h127q115 0 115 139v746q0 139-115 139zM82 0v625H8v184h74v625h356q336 0 336-355V354Q774 0 438 0H82z"/><glyph glyph-name="Ntilde" unicode="Ñ" horiz-adv-x="874" d="M518 1665q59 0 88 59l109-75q-53-139-174-140-47 0-101 26t-84 26q-59 0-88-60l-108 76q53 139 174 139 47 0 101-26t83-25zM283 0H80v1434h282l232-859v859h201V0H563L283 1038V0z"/><glyph glyph-name="Ograve" unicode="Ò" d="M158 1737h231l139-228H367zM63 344v746q1 172 89 266t254 94 254-94 88-266V344q0-172-88-266T406-16 152 78 63 344zm226 760V330q0-141 117-142 117 0 116 142v774q0 141-116 141t-117-141z"/><glyph glyph-name="Oacute" unicode="Ó" d="M426 1737h221l-209-228H287zM63 344v746q1 172 89 266t254 94 254-94 88-266V344q0-172-88-266T406-16 152 78 63 344zm226 760V330q0-141 117-142 117 0 116 142v774q0 141-116 141t-117-141z"/><glyph glyph-name="Ocircumflex" unicode="Ô" d="M313 1509H121l182 228h203l182-228H496l-93 113zM63 344v746q1 172 89 266t254 94 254-94 88-266V344q0-172-88-266T406-16 152 78 63 344zm226 760V330q0-141 117-142 117 0 116 142v774q0 141-116 141t-117-141z"/><glyph glyph-name="Otilde" unicode="Õ" d="M487 1665q59 0 88 59l109-75q-53-139-174-140-49 0-103 26t-81 26q-59 0-88-60l-109 76q53 139 174 139 45 0 99-26t85-25zM63 344v746q1 172 89 266t254 94 254-94 88-266V344q0-172-88-266T406-16 152 78 63 344zm226 760V330q0-141 117-142 117 0 116 142v774q0 141-116 141t-117-141z"/><glyph glyph-name="Odieresis" unicode="Ö" d="M463 1706h196v-197H463v197zm-311 0h196v-197H152v197zM63 344v746q1 172 89 266t254 94 254-94 88-266V344q0-172-88-266T406-16 152 78 63 344zm226 760V330q0-141 117-142 117 0 116 142v774q0 141-116 141t-117-141z"/><glyph glyph-name="multiply" unicode="×" d="M188 1040l218-215 217 217 108-108-217-217 217-217-108-109-217 217-220-217L78 500l217 217L80 932z"/><glyph glyph-name="Oslash" unicode="Ø" d="M406 188q117 0 116 142v590L291 287q17-99 115-99zm-117 916V514l229 633q-16 98-112 98-117 0-117-141zM63 344v746q1 172 89 266t254 94q121 0 204-53l41 112 76-26-53-146q74-88 74-247V344q0-172-88-266T424-16q-147 0-223 51L160-76 84-49l51 143q-72 96-72 250z"/><glyph glyph-name="Ugrave" unicode="Ù" horiz-adv-x="815" d="M162 1737h231l139-228H371zm-90-303h225V328q0-139 117-140 117 0 116 140v1106h213V342q0-174-86-267-85-93-249-93T158 75 72 342v1092z"/><glyph glyph-name="Uacute" unicode="Ú" horiz-adv-x="815" d="M430 1737h221l-209-228H291zM72 1434h225V328q0-139 117-140 117 0 116 140v1106h213V342q0-174-86-267-85-93-249-93T158 75 72 342v1092z"/><glyph glyph-name="Ucircumflex" unicode="Û" horiz-adv-x="815" d="M319 1509H127l182 228h203l182-228H502l-92 113zm-247-75h225V328q0-139 117-140 117 0 116 140v1106h213V342q0-174-86-267-85-93-249-93T158 75 72 342v1092z"/><glyph glyph-name="Udieresis" unicode="Ü" horiz-adv-x="815" d="M469 1706h197v-197H469v197zm-311 0h196v-197H158v197zm-86-272h225V328q0-139 117-140 117 0 116 140v1106h213V342q0-174-86-267-85-93-249-93T158 75 72 342v1092z"/><glyph glyph-name="Yacute" unicode="Ý" d="M434 1737h221l-209-228H295zM293 0v475L8 1434h236l172-654 172 654h215L518 475V0H293z"/><glyph glyph-name="Thorn" unicode="Þ" horiz-adv-x="772" d="M414 1065H307V580h107q57 0 82 30 29 29 28 105v215q0 76-28 104-25 31-82 31zM82 0v1434h225v-164h107q336 0 336-355V729q0-354-336-354H307V0H82z"/><glyph glyph-name="germandbls" unicode="ß" horiz-adv-x="1531" d="M819 1090q0 172 83 266t249 94 249-94 83-266v-46h-213v60q0 141-113 141t-113-141q0-115 89-209 45-49 86-84 72-68 92-90 41-35 86-98 37-45 63-120t25-159q0-174-86-267t-250-93-250 93-86 267v88h213V330q0-139 117-140 117 0 117 140 0 113-89 209-53 57-80 80t-98 94q-47 43-86 98-37 45-63 119t-25 160zm-766 0q0 172 83 266t249 94 249-94 83-266v-46H504v60q0 141-113 141t-112-141q0-116 88-209 45-49 86-84 72-68 92-90 41-35 86-98 37-45 63-119t25-160q0-174-86-267T383-16 133 77 47 344v88h213V330q0-139 117-140 117 0 117 140 0 84-45 149-39 63-109 129-76 66-131 121-66 61-111 153t-45 208z"/><glyph glyph-name="agrave" unicode="à" horiz-adv-x="833" d="M170 1737h231l140-228H379zm236-557L297 455h217zm176 254L811 0H584l-39 260H268L229 0H23l229 1434h330z"/><glyph glyph-name="aacute" unicode="á" horiz-adv-x="833" d="M436 1737h221l-208-228H297zm-30-557L297 455h217zm176 254L811 0H584l-39 260H268L229 0H23l229 1434h330z"/><glyph glyph-name="acircumflex" unicode="â" horiz-adv-x="833" d="M326 1509H133l182 228h203l182-228H508l-92 113zm80-329L297 455h217zm176 254L811 0H584l-39 260H268L229 0H23l229 1434h330z"/><glyph glyph-name="atilde" unicode="ã" horiz-adv-x="833" d="M498 1665q59 0 88 59l108-75q-53-139-174-140-47 0-101 26t-83 26q-59 0-88-60l-109 76q53 139 174 139 47 0 103-24 53-27 82-27zm-92-485L297 455h217zm176 254L811 0H584l-39 260H268L229 0H23l229 1434h330z"/><glyph glyph-name="adieresis" unicode="ä" horiz-adv-x="833" d="M473 1706h197v-197H473v197zm-311 0h196v-197H162v197zm244-526L297 455h217zm176 254L811 0H584l-39 260H268L229 0H23l229 1434h330z"/><glyph glyph-name="aring" unicode="å" horiz-adv-x="833" d="M354 1667q0-27 18-44t44-17q27 0 44 17t17 44-17 44-44 17q-26 0-44-16-18-18-18-45zm-102 0q0 70 47 117t117 47 116-47 48-117q0-70-48-117t-116-47q-70 0-117 47t-47 117zm154-487L297 455h217zm176 254L811 0H584l-39 260H268L229 0H23l229 1434h330z"/><glyph glyph-name="ae" unicode="æ" horiz-adv-x="1187" d="M516 455v690L340 455h176zm225 774V829h310V625H741V205h389V0H516v260H289L223 0H8l383 1434h739v-205H741z"/><glyph glyph-name="ccedilla" unicode="ç" horiz-adv-x="790" d="M522 535h213V344q0-160-75-253T444-14v-66q80 0 115-22 37-18 37-84t-51-90-156-25q-197 0-196 119v20h151v-16q0-41 45-41 51 0 51 51t-73 51h-21v105Q63 17 63 344v746q1 174 87 267t250 93 249-93q86-93 86-267V950H522v154q0 141-116 141t-117-141V330q0-139 117-140 117 0 116 140v205z"/><glyph glyph-name="egrave" unicode="è" horiz-adv-x="753" d="M139 1737h232l139-228H348zm168-508V829h309V625H307V205h389V0H82v1434h614v-205H307z"/><glyph glyph-name="eacute" unicode="é" horiz-adv-x="753" d="M408 1737h221l-209-228H268zm-101-508V829h309V625H307V205h389V0H82v1434h614v-205H307z"/><glyph glyph-name="ecircumflex" unicode="ê" horiz-adv-x="753" d="M295 1509H102l183 228h202l183-228H477l-92 113zm12-280V829h309V625H307V205h389V0H82v1434h614v-205H307z"/><glyph glyph-name="edieresis" unicode="ë" horiz-adv-x="753" d="M444 1706h197v-197H444v197zm-311 0h197v-197H133v197zm174-477V829h309V625H307V205h389V0H82v1434h614v-205H307z"/><glyph glyph-name="igrave" unicode="ì" horiz-adv-x="389" d="M-51 1737h231l139-228H158zM82 0v1434h225V0H82z"/><glyph glyph-name="iacute" unicode="í" horiz-adv-x="389" d="M215 1737h221l-209-228H76zM82 0v1434h225V0H82z"/><glyph glyph-name="icircumflex" unicode="î" horiz-adv-x="389" d="M104 1509H-88l182 228h203l182-228H287l-92 113zM82 0v1434h225V0H82z"/><glyph glyph-name="idieresis" unicode="ï" horiz-adv-x="389" d="M252 1706h197v-197H252v197zm-311 0h196v-197H-59v197zM82 0v1434h225V0H82z"/><glyph glyph-name="eth" unicode="ð" horiz-adv-x="835" d="M434 1229H307V809h139V625H307V205h127q115 0 115 139v746q0 139-115 139zM82 0v625H8v184h74v625h356q336 0 336-355V354Q774 0 438 0H82z"/><glyph glyph-name="ntilde" unicode="ñ" horiz-adv-x="874" d="M518 1665q59 0 88 59l109-75q-53-139-174-140-47 0-101 26t-84 26q-59 0-88-60l-108 76q53 139 174 139 47 0 101-26t83-25zM283 0H80v1434h282l232-859v859h201V0H563L283 1038V0z"/><glyph glyph-name="ograve" unicode="ò" d="M158 1737h231l139-228H367zM63 344v746q1 172 89 266t254 94 254-94 88-266V344q0-172-88-266T406-16 152 78 63 344zm226 760V330q0-141 117-142 117 0 116 142v774q0 141-116 141t-117-141z"/><glyph glyph-name="oacute" unicode="ó" d="M426 1737h221l-209-228H287zM63 344v746q1 172 89 266t254 94 254-94 88-266V344q0-172-88-266T406-16 152 78 63 344zm226 760V330q0-141 117-142 117 0 116 142v774q0 141-116 141t-117-141z"/><glyph glyph-name="ocircumflex" unicode="ô" d="M313 1509H121l182 228h203l182-228H496l-93 113zM63 344v746q1 172 89 266t254 94 254-94 88-266V344q0-172-88-266T406-16 152 78 63 344zm226 760V330q0-141 117-142 117 0 116 142v774q0 141-116 141t-117-141z"/><glyph glyph-name="otilde" unicode="õ" d="M487 1665q59 0 88 59l109-75q-53-139-174-140-49 0-103 26t-81 26q-59 0-88-60l-109 76q53 139 174 139 45 0 99-26t85-25zM63 344v746q1 172 89 266t254 94 254-94 88-266V344q0-172-88-266T406-16 152 78 63 344zm226 760V330q0-141 117-142 117 0 116 142v774q0 141-116 141t-117-141z"/><glyph glyph-name="odieresis" unicode="ö" d="M463 1706h196v-197H463v197zm-311 0h196v-197H152v197zM63 344v746q1 172 89 266t254 94 254-94 88-266V344q0-172-88-266T406-16 152 78 63 344zm226 760V330q0-141 117-142 117 0 116 142v774q0 141-116 141t-117-141z"/><glyph glyph-name="divide" unicode="÷" d="M51 797h709V637H51v160zm246 340h217V920H297v217zm0-625h217V295H297v217z"/><glyph glyph-name="oslash" unicode="ø" d="M406 188q117 0 116 142v590L291 287q17-99 115-99zm-117 916V514l229 633q-16 98-112 98-117 0-117-141zM63 344v746q1 172 89 266t254 94q121 0 204-53l41 112 76-26-53-146q74-88 74-247V344q0-172-88-266T424-16q-147 0-223 51L160-76 84-49l51 143q-72 96-72 250z"/><glyph glyph-name="ugrave" unicode="ù" horiz-adv-x="815" d="M162 1737h231l139-228H371zm-90-303h225V328q0-139 117-140 117 0 116 140v1106h213V342q0-174-86-267-85-93-249-93T158 75 72 342v1092z"/><glyph glyph-name="uacute" unicode="ú" horiz-adv-x="815" d="M430 1737h221l-209-228H291zM72 1434h225V328q0-139 117-140 117 0 116 140v1106h213V342q0-174-86-267-85-93-249-93T158 75 72 342v1092z"/><glyph glyph-name="ucircumflex" unicode="û" horiz-adv-x="815" d="M319 1509H127l182 228h203l182-228H502l-92 113zm-247-75h225V328q0-139 117-140 117 0 116 140v1106h213V342q0-174-86-267-85-93-249-93T158 75 72 342v1092z"/><glyph glyph-name="udieresis" unicode="ü" horiz-adv-x="815" d="M469 1706h197v-197H469v197zm-311 0h196v-197H158v197zm-86-272h225V328q0-139 117-140 117 0 116 140v1106h213V342q0-174-86-267-85-93-249-93T158 75 72 342v1092z"/><glyph glyph-name="yacute" unicode="ý" d="M434 1737h221l-209-228H295zM293 0v475L8 1434h236l172-654 172 654h215L518 475V0H293z"/><glyph glyph-name="thorn" unicode="þ" horiz-adv-x="772" d="M414 1065H307V580h107q57 0 82 30 29 29 28 105v215q0 76-28 104-25 31-82 31zM82 0v1434h225v-164h107q336 0 336-355V729q0-354-336-354H307V0H82z"/><glyph glyph-name="ydieresis" unicode="ÿ" d="M471 1706h197v-197H471v197zm-311 0h196v-197H160v197zM293 0v475L8 1434h236l172-654 172 654h215L518 475V0H293z"/><glyph glyph-name="Amacron" unicode="Ā" horiz-adv-x="833" d="M180 1677h471v-159H180v159zm226-497L297 455h217zm176 254L811 0H584l-39 260H268L229 0H23l229 1434h330z"/><glyph glyph-name="amacron" unicode="ā" horiz-adv-x="833" d="M180 1677h471v-159H180v159zm226-497L297 455h217zm176 254L811 0H584l-39 260H268L229 0H23l229 1434h330z"/><glyph glyph-name="Abreve" unicode="Ă" horiz-adv-x="833" d="M645 1737q0-109-58-172t-172-63-169 63q-55 59-60 172h133q3-51 25-73t70-24q94 0 98 97h133zm-239-557L297 455h217zm176 254L811 0H584l-39 260H268L229 0H23l229 1434h330z"/><glyph glyph-name="abreve" unicode="ă" horiz-adv-x="833" d="M645 1737q0-109-58-172t-172-63-169 63q-55 59-60 172h133q3-51 25-73t70-24q94 0 98 97h133zm-239-557L297 455h217zm176 254L811 0H584l-39 260H268L229 0H23l229 1434h330z"/><glyph glyph-name="Aogonek" unicode="Ą" horiz-adv-x="833" d="M406 1180L297 455h217zM666-119q0-29 20-41 18-16 49-16t76 12v-115q-61-23-143-23t-128 35q-46 34-46 93 0 84 96 149l-45 285H268L229 0H23l229 1434h330L811 0h-84q-61-53-61-119z"/><glyph glyph-name="aogonek" unicode="ą" horiz-adv-x="833" d="M406 1180L297 455h217zM666-119q0-29 20-41 18-16 49-16t76 12v-115q-61-23-143-23t-128 35q-46 34-46 93 0 84 96 149l-45 285H268L229 0H23l229 1434h330L811 0h-84q-61-53-61-119z"/><glyph glyph-name="Cacute" unicode="Ć" horiz-adv-x="790" d="M420 1737h221l-209-228H281zM522 535h213V344q0-174-86-267T399-16q-163 0-249 93T63 344v746q1 174 87 267t250 93 249-93q86-93 86-267V950H522v154q0 141-116 141t-117-141V330q0-139 117-140 117 0 116 140v205z"/><glyph glyph-name="cacute" unicode="ć" horiz-adv-x="790" d="M420 1737h221l-209-228H281zM522 535h213V344q0-174-86-267T399-16q-163 0-249 93T63 344v746q1 174 87 267t250 93 249-93q86-93 86-267V950H522v154q0 141-116 141t-117-141V330q0-139 117-140 117 0 116 140v205z"/><glyph glyph-name="Ccircumflex" unicode="Ĉ" horiz-adv-x="790" d="M307 1509H115l182 228h203l182-228H489l-92 113zm215-974h213V344q0-174-86-267T399-16q-163 0-249 93T63 344v746q1 174 87 267t250 93 249-93q86-93 86-267V950H522v154q0 141-116 141t-117-141V330q0-139 117-140 117 0 116 140v205z"/><glyph glyph-name="ccircumflex" unicode="ĉ" horiz-adv-x="790" d="M307 1509H115l182 228h203l182-228H489l-92 113zm215-974h213V344q0-174-86-267T399-16q-163 0-249 93T63 344v746q1 174 87 267t250 93 249-93q86-93 86-267V950H522v154q0 141-116 141t-117-141V330q0-139 117-140 117 0 116 140v205z"/><glyph glyph-name="Cdotaccent" unicode="Ċ" horiz-adv-x="790" d="M301 1706h197v-197H301v197zM522 535h213V344q0-174-86-267T399-16q-163 0-249 93T63 344v746q1 174 87 267t250 93 249-93q86-93 86-267V950H522v154q0 141-116 141t-117-141V330q0-139 117-140 117 0 116 140v205z"/><glyph glyph-name="cdotaccent" unicode="ċ" horiz-adv-x="790" d="M301 1706h197v-197H301v197zM522 535h213V344q0-174-86-267T399-16q-163 0-249 93T63 344v746q1 174 87 267t250 93 249-93q86-93 86-267V950H522v154q0 141-116 141t-117-141V330q0-139 117-140 117 0 116 140v205z"/><glyph glyph-name="Ccaron" unicode="Č" horiz-adv-x="790" d="M115 1737h192l90-115 92 115h193l-182-228H297zM522 535h213V344q0-174-86-267T399-16q-163 0-249 93T63 344v746q1 174 87 267t250 93 249-93q86-93 86-267V950H522v154q0 141-116 141t-117-141V330q0-139 117-140 117 0 116 140v205z"/><glyph glyph-name="ccaron" unicode="č" horiz-adv-x="790" d="M115 1737h192l90-115 92 115h193l-182-228H297zM522 535h213V344q0-174-86-267T399-16q-163 0-249 93T63 344v746q1 174 87 267t250 93 249-93q86-93 86-267V950H522v154q0 141-116 141t-117-141V330q0-139 117-140 117 0 116 140v205z"/><glyph glyph-name="Dcaron" unicode="Ď" horiz-adv-x="835" d="M115 1737h192l90-115 92 115h193l-182-228H297zm319-508H307V205h127q115 0 115 139v746q0 139-115 139zM82 0v1434h356q336 0 336-355V354Q774 0 438 0H82z"/><glyph glyph-name="dcaron" unicode="ď" horiz-adv-x="835" d="M115 1737h192l90-115 92 115h193l-182-228H297zm319-508H307V205h127q115 0 115 139v746q0 139-115 139zM82 0v1434h356q336 0 336-355V354Q774 0 438 0H82z"/><glyph glyph-name="Dcroat" unicode="Đ" horiz-adv-x="835" d="M434 1229H307V809h139V625H307V205h127q115 0 115 139v746q0 139-115 139zM82 0v625H8v184h74v625h356q336 0 336-355V354Q774 0 438 0H82z"/><glyph glyph-name="dcroat" unicode="đ" horiz-adv-x="835" d="M434 1229H307V809h139V625H307V205h127q115 0 115 139v746q0 139-115 139zM82 0v625H8v184h74v625h356q336 0 336-355V354Q774 0 438 0H82z"/><glyph glyph-name="Emacron" unicode="Ē" horiz-adv-x="753" d="M150 1677h471v-159H150v159zm157-448V829h309V625H307V205h389V0H82v1434h614v-205H307z"/><glyph glyph-name="emacron" unicode="ē" horiz-adv-x="753" d="M150 1677h471v-159H150v159zm157-448V829h309V625H307V205h389V0H82v1434h614v-205H307z"/><glyph glyph-name="Ebreve" unicode="Ĕ" horiz-adv-x="753" d="M614 1737q0-109-58-172t-172-63q-220-1-228 235h133q2-51 24-73 23-22 71-24 48 0 72 23t25 74h133zm-307-508V829h309V625H307V205h389V0H82v1434h614v-205H307z"/><glyph glyph-name="ebreve" unicode="ĕ" horiz-adv-x="753" d="M614 1737q0-109-58-172t-172-63q-220-1-228 235h133q2-51 24-73 23-22 71-24 48 0 72 23t25 74h133zm-307-508V829h309V625H307V205h389V0H82v1434h614v-205H307z"/><glyph glyph-name="Edotaccent" unicode="Ė" horiz-adv-x="753" d="M287 1706h196v-197H287v197zm20-477V829h309V625H307V205h389V0H82v1434h614v-205H307z"/><glyph glyph-name="edotaccent" unicode="ė" horiz-adv-x="753" d="M287 1706h196v-197H287v197zm20-477V829h309V625H307V205h389V0H82v1434h614v-205H307z"/><glyph glyph-name="Eogonek" unicode="Ę" horiz-adv-x="753" d="M307 1229V829h309V625H307V205h389V0h-84q-61-53-61-119 0-29 20-41 17-16 49-16t76 12v-115q-61-23-143-23t-128 35q-46 34-46 93Q379-70 516 0H82v1434h614v-205H307z"/><glyph glyph-name="eogonek" unicode="ę" horiz-adv-x="753" d="M307 1229V829h309V625H307V205h389V0h-84q-61-53-61-119 0-29 20-41 17-16 49-16t76 12v-115q-61-23-143-23t-128 35q-46 34-46 93Q379-70 516 0H82v1434h614v-205H307z"/><glyph glyph-name="Ecaron" unicode="Ě" horiz-adv-x="753" d="M100 1737h193l90-115 92 115h193l-183-228H283zm207-508V829h309V625H307V205h389V0H82v1434h614v-205H307z"/><glyph glyph-name="ecaron" unicode="ě" horiz-adv-x="753" d="M100 1737h193l90-115 92 115h193l-183-228H283zm207-508V829h309V625H307V205h389V0H82v1434h614v-205H307z"/><glyph glyph-name="Gcircumflex" unicode="Ĝ" horiz-adv-x="798" d="M307 1509H115l182 228h203l182-228H489l-92 113zm113-915v205h315V344q0-174-86-267T399-16q-163 0-249 93T63 344v746q1 174 87 267t250 93 249-93q86-93 86-267V950H522v154q0 141-116 141t-117-141V330q0-139 117-140 117 0 116 140v264H420z"/><glyph glyph-name="gcircumflex" unicode="ĝ" horiz-adv-x="798" d="M307 1509H115l182 228h203l182-228H489l-92 113zm113-915v205h315V344q0-174-86-267T399-16q-163 0-249 93T63 344v746q1 174 87 267t250 93 249-93q86-93 86-267V950H522v154q0 141-116 141t-117-141V330q0-139 117-140 117 0 116 140v264H420z"/><glyph glyph-name="Gbreve" unicode="Ğ" horiz-adv-x="798" d="M627 1737q-1-109-59-172t-172-63q-220-1-228 235h133q3-51 25-73t70-24q94-1 98 97h133zM420 594v205h315V344q0-174-86-267T399-16q-163 0-249 93T63 344v746q1 174 87 267t250 93 249-93q86-93 86-267V950H522v154q0 141-116 141t-117-141V330q0-139 117-140 117 0 116 140v264H420z"/><glyph glyph-name="gbreve" unicode="ğ" horiz-adv-x="798" d="M627 1737q-1-109-59-172t-172-63q-220-1-228 235h133q3-51 25-73t70-24q94-1 98 97h133zM420 594v205h315V344q0-174-86-267T399-16q-163 0-249 93T63 344v746q1 174 87 267t250 93 249-93q86-93 86-267V950H522v154q0 141-116 141t-117-141V330q0-139 117-140 117 0 116 140v264H420z"/><glyph glyph-name="Gdotaccent" unicode="Ġ" horiz-adv-x="798" d="M299 1706h197v-197H299v197zM420 594v205h315V344q0-174-86-267T399-16q-163 0-249 93T63 344v746q1 174 87 267t250 93 249-93q86-93 86-267V950H522v154q0 141-116 141t-117-141V330q0-139 117-140 117 0 116 140v264H420z"/><glyph glyph-name="gdotaccent" unicode="ġ" horiz-adv-x="798" d="M299 1706h197v-197H299v197zM420 594v205h315V344q0-174-86-267T399-16q-163 0-249 93T63 344v746q1 174 87 267t250 93 249-93q86-93 86-267V950H522v154q0 141-116 141t-117-141V330q0-139 117-140 117 0 116 140v264H420z"/><glyph glyph-name="uni0122" unicode="Ģ" horiz-adv-x="798" d="M305-256v188h189v-168l-88-131h-80l53 111h-74zm115 850v205h315V344q0-174-86-267T399-16q-163 0-249 93T63 344v746q1 174 87 267t250 93 249-93q86-93 86-267V950H522v154q0 141-116 141t-117-141V330q0-139 117-140 117 0 116 140v264H420z"/><glyph glyph-name="uni0123" unicode="ģ" horiz-adv-x="798" d="M305-256v188h189v-168l-88-131h-80l53 111h-74zm115 850v205h315V344q0-174-86-267T399-16q-163 0-249 93T63 344v746q1 174 87 267t250 93 249-93q86-93 86-267V950H522v154q0 141-116 141t-117-141V330q0-139 117-140 117 0 116 140v264H420z"/><glyph glyph-name="Hcircumflex" unicode="Ĥ" horiz-adv-x="874" d="M346 1509H154l182 228h203l182-228H528l-92 113zm-39-895V0H82v1434h225V819h256v615h230V0H563v614H307z"/><glyph glyph-name="hcircumflex" unicode="ĥ" horiz-adv-x="874" d="M346 1509H154l182 228h203l182-228H528l-92 113zm-39-895V0H82v1434h225V819h256v615h230V0H563v614H307z"/><glyph glyph-name="Hbar" unicode="Ħ" horiz-adv-x="894" d="M317 819h256v209H317V819zm0-205V0H92v1028H20v168h72v238h225v-238h256v238h230v-238h71v-168h-71V0H573v614H317z"/><glyph glyph-name="hbar" unicode="ħ" horiz-adv-x="894" d="M317 819h256v209H317V819zm0-205V0H92v1028H20v168h72v238h225v-238h256v238h230v-238h71v-168h-71V0H573v614H317z"/><glyph glyph-name="Itilde" unicode="Ĩ" horiz-adv-x="389" d="M276 1665q59 0 89 59l108-75q-53-139-174-140-47 0-101 26t-83 26q-59 0-88-60l-109 76q53 139 174 139 47 0 103-24 52-27 81-27zM82 0v1434h225V0H82z"/><glyph glyph-name="itilde" unicode="ĩ" horiz-adv-x="389" d="M276 1665q59 0 89 59l108-75q-53-139-174-140-47 0-101 26t-83 26q-59 0-88-60l-109 76q53 139 174 139 47 0 103-24 52-27 81-27zM82 0v1434h225V0H82z"/><glyph glyph-name="Imacron" unicode="Ī" horiz-adv-x="389" d="M-41 1677h471v-159H-41v159zM82 0v1434h225V0H82z"/><glyph glyph-name="imacron" unicode="ī" horiz-adv-x="389" d="M-41 1677h471v-159H-41v159zM82 0v1434h225V0H82z"/><glyph glyph-name="Ibreve" unicode="Ĭ" horiz-adv-x="389" d="M424 1737q0-109-58-172t-172-63-169 63q-55 59-60 172H98q2-51 24-73t71-24q94 0 98 97h133zM82 0v1434h225V0H82z"/><glyph glyph-name="ibreve" unicode="ĭ" horiz-adv-x="389" d="M424 1737q0-109-58-172t-172-63-169 63q-55 59-60 172H98q2-51 24-73t71-24q94 0 98 97h133zM82 0v1434h225V0H82z"/><glyph glyph-name="Iogonek" unicode="Į" horiz-adv-x="389" d="M82 0v1434h225V0h-41q-61-53-61-119 0-29 20-41 18-16 48-16t77 12v-115q-61-23-143-23T79-267q-46 34-46 93Q33-70 170 0H82z"/><glyph glyph-name="iogonek" unicode="į" horiz-adv-x="389" d="M82 0v1434h225V0h-41q-61-53-61-119 0-29 20-41 18-16 48-16t77 12v-115q-61-23-143-23T79-267q-46 34-46 93Q33-70 170 0H82z"/><glyph glyph-name="Idotaccent" unicode="İ" horiz-adv-x="389" d="M96 1706h197v-197H96v197zM82 0v1434h225V0H82z"/><glyph glyph-name="dotlessi" unicode="ı" horiz-adv-x="389" d="M82 0v1434h225V0H82z"/><glyph glyph-name="IJ" unicode="Ĳ" horiz-adv-x="913" d="M487 203q129 0 129 137v1094h226V356Q842-4 518-4q-59 0-108 4v205q16-2 77-2zM82 0v1434h225V0H82z"/><glyph glyph-name="ij" unicode="ĳ" horiz-adv-x="913" d="M487 203q129 0 129 137v1094h226V356Q842-4 518-4q-59 0-108 4v205q16-2 77-2zM82 0v1434h225V0H82z"/><glyph glyph-name="Jcircumflex" unicode="Ĵ" horiz-adv-x="524" d="M211 1509H18l183 228h202l183-228H393l-92 113zM98 203q129 0 129 137v1094h226V356Q453-4 129-4 69-4 20 0v205q16-2 78-2z"/><glyph glyph-name="jcircumflex" unicode="ĵ" horiz-adv-x="524" d="M211 1509H18l183 228h202l183-228H393l-92 113zM98 203q129 0 129 137v1094h226V356Q453-4 129-4 69-4 20 0v205q16-2 78-2z"/><glyph glyph-name="uni0136" unicode="Ķ" horiz-adv-x="847" d="M346-256v188h189v-168l-89-131h-79l53 111h-74zM307 0H82v1434h225V809l295 625h225L514 795 827 0H596L377 571l-70-131V0z"/><glyph glyph-name="uni0137" unicode="ķ" horiz-adv-x="847" d="M346-256v188h189v-168l-89-131h-79l53 111h-74zM307 0H82v1434h225V809l295 625h225L514 795 827 0H596L377 571l-70-131V0z"/><glyph glyph-name="kgreenlandic" unicode="ĸ" horiz-adv-x="847" d="M307 0H82v1434h225V809l295 625h225L514 795 827 0H596L377 571l-70-131V0z"/><glyph glyph-name="Lacute" unicode="Ĺ" horiz-adv-x="694" d="M287 1737h221l-209-228H147zM82 0v1434h225V205h371V0H82z"/><glyph glyph-name="lacute" unicode="ĺ" horiz-adv-x="694" d="M287 1737h221l-209-228H147zM82 0v1434h225V205h371V0H82z"/><glyph glyph-name="uni013B" unicode="Ļ" horiz-adv-x="694" d="M287-256v188h188v-168l-88-131h-80l53 111h-73zM82 0v1434h225V205h371V0H82z"/><glyph glyph-name="uni013C" unicode="ļ" horiz-adv-x="694" d="M287-256v188h188v-168l-88-131h-80l53 111h-73zM82 0v1434h225V205h371V0H82z"/><glyph glyph-name="Lcaron" unicode="Ľ" horiz-adv-x="694" d="M432 1217v217h217v-195l-98-227h-92l59 205h-86zM82 0v1434h225V205h371V0H82z"/><glyph glyph-name="lcaron" unicode="ľ" horiz-adv-x="694" d="M432 1217v217h217v-195l-98-227h-92l59 205h-86zM82 0v1434h225V205h371V0H82z"/><glyph glyph-name="Ldot" unicode="Ŀ" horiz-adv-x="694" d="M430 825h217V608H430v217zM82 0v1434h225V205h371V0H82z"/><glyph glyph-name="ldot" unicode="ŀ" horiz-adv-x="694" d="M430 825h217V608H430v217zM82 0v1434h225V205h371V0H82z"/><glyph glyph-name="Lslash" unicode="Ł" horiz-adv-x="712" d="M100 1434h226V748l247 266V809L326 543V205h370V0H100v301L0 195v204l100 107v928z"/><glyph glyph-name="lslash" unicode="ł" horiz-adv-x="712" d="M100 1434h226V748l247 266V809L326 543V205h370V0H100v301L0 195v204l100 107v928z"/><glyph glyph-name="Nacute" unicode="Ń" horiz-adv-x="874" d="M457 1737h221l-209-228H317zM283 0H80v1434h282l232-859v859h201V0H563L283 1038V0z"/><glyph glyph-name="nacute" unicode="ń" horiz-adv-x="874" d="M457 1737h221l-209-228H317zM283 0H80v1434h282l232-859v859h201V0H563L283 1038V0z"/><glyph glyph-name="uni0145" unicode="Ņ" horiz-adv-x="874" d="M342-256v188h188v-168l-88-131h-80l54 111h-74zM283 0H80v1434h282l232-859v859h201V0H563L283 1038V0z"/><glyph glyph-name="uni0146" unicode="ņ" horiz-adv-x="874" d="M342-256v188h188v-168l-88-131h-80l54 111h-74zM283 0H80v1434h282l232-859v859h201V0H563L283 1038V0z"/><glyph glyph-name="Ncaron" unicode="Ň" horiz-adv-x="874" d="M154 1737h192l90-115 92 115h193l-182-228H336zM283 0H80v1434h282l232-859v859h201V0H563L283 1038V0z"/><glyph glyph-name="ncaron" unicode="ň" horiz-adv-x="874" d="M154 1737h192l90-115 92 115h193l-182-228H336zM283 0H80v1434h282l232-859v859h201V0H563L283 1038V0z"/><glyph glyph-name="napostrophe" unicode="ŉ" horiz-adv-x="1112" d="M10 1217v217h217v-195l-98-227H37l59 205H10zM520 0H317v1434h283l231-859v859h201V0H801L520 1038V0z"/><glyph glyph-name="Omacron" unicode="Ō" d="M170 1677h471v-159H170v159zM63 344v746q1 172 89 266t254 94 254-94 88-266V344q0-172-88-266T406-16 152 78 63 344zm226 760V330q0-141 117-142 117 0 116 142v774q0 141-116 141t-117-141z"/><glyph glyph-name="omacron" unicode="ō" d="M170 1677h471v-159H170v159zM63 344v746q1 172 89 266t254 94 254-94 88-266V344q0-172-88-266T406-16 152 78 63 344zm226 760V330q0-141 117-142 117 0 116 142v774q0 141-116 141t-117-141z"/><glyph glyph-name="Obreve" unicode="Ŏ" d="M635 1737q-1-109-59-172t-172-63q-220-1-228 235h133q3-51 25-73t70-24q94-1 98 97h133zM63 344v746q1 172 89 266t254 94 254-94 88-266V344q0-172-88-266T406-16 152 78 63 344zm226 760V330q0-141 117-142 117 0 116 142v774q0 141-116 141t-117-141z"/><glyph glyph-name="obreve" unicode="ŏ" d="M635 1737q-1-109-59-172t-172-63q-220-1-228 235h133q3-51 25-73t70-24q94-1 98 97h133zM63 344v746q1 172 89 266t254 94 254-94 88-266V344q0-172-88-266T406-16 152 78 63 344zm226 760V330q0-141 117-142 117 0 116 142v774q0 141-116 141t-117-141z"/><glyph glyph-name="Ohungarumlaut" unicode="Ő" d="M537 1737h206l-172-228H436zm-267 0h205l-170-228H168zM63 344v746q1 172 89 266t254 94 254-94 88-266V344q0-172-88-266T406-16 152 78 63 344zm226 760V330q0-141 117-142 117 0 116 142v774q0 141-116 141t-117-141z"/><glyph glyph-name="ohungarumlaut" unicode="ő" d="M537 1737h206l-172-228H436zm-267 0h205l-170-228H168zM63 344v746q1 172 89 266t254 94 254-94 88-266V344q0-172-88-266T406-16 152 78 63 344zm226 760V330q0-141 117-142 117 0 116 142v774q0 141-116 141t-117-141z"/><glyph glyph-name="OE" unicode="Œ" horiz-adv-x="1200" d="M528 205v1024H401q-115 0-114-139V344q0-139 114-139h127zm226 1024V829h309V625H754V205h389V0H397Q61 0 61 354v725q0 354 336 355h746v-205H754z"/><glyph glyph-name="oe" unicode="œ" horiz-adv-x="1200" d="M528 205v1024H401q-115 0-114-139V344q0-139 114-139h127zm226 1024V829h309V625H754V205h389V0H397Q61 0 61 354v725q0 354 336 355h746v-205H754z"/><glyph glyph-name="Racute" unicode="Ŕ" horiz-adv-x="823" d="M420 1737h221l-209-228H281zm-4-508H307V788h88q70 0 101 35 35 33 34 117v141q1 148-114 148zm116-828q0 99-34 141t-113 42h-78V0H82v1434h340q174 0 254-81t80-249V991q0-221-148-291 150-63 150-305V174Q757 57 782 0H553q-20 59-21 176v225z"/><glyph glyph-name="racute" unicode="ŕ" horiz-adv-x="823" d="M420 1737h221l-209-228H281zm-4-508H307V788h88q70 0 101 35 35 33 34 117v141q1 148-114 148zm116-828q0 99-34 141t-113 42h-78V0H82v1434h340q174 0 254-81t80-249V991q0-221-148-291 150-63 150-305V174Q757 57 782 0H553q-20 59-21 176v225z"/><glyph glyph-name="uni0156" unicode="Ŗ" horiz-adv-x="823" d="M322-256v188h188v-168l-88-131h-80l53 111h-73zm94 1485H307V788h88q70 0 101 35 35 33 34 117v141q1 148-114 148zm116-828q0 99-34 141t-113 42h-78V0H82v1434h340q174 0 254-81t80-249V991q0-221-148-291 150-63 150-305V174Q757 57 782 0H553q-20 59-21 176v225z"/><glyph glyph-name="uni0157" unicode="ŗ" horiz-adv-x="823" d="M322-256v188h188v-168l-88-131h-80l53 111h-73zm94 1485H307V788h88q70 0 101 35 35 33 34 117v141q1 148-114 148zm116-828q0 99-34 141t-113 42h-78V0H82v1434h340q174 0 254-81t80-249V991q0-221-148-291 150-63 150-305V174Q757 57 782 0H553q-20 59-21 176v225z"/><glyph glyph-name="Rcaron" unicode="Ř" horiz-adv-x="823" d="M115 1737h192l90-115 92 115h193l-182-228H297zm301-508H307V788h88q70 0 101 35 35 33 34 117v141q1 148-114 148zm116-828q0 99-34 141t-113 42h-78V0H82v1434h340q174 0 254-81t80-249V991q0-221-148-291 150-63 150-305V174Q757 57 782 0H553q-20 59-21 176v225z"/><glyph glyph-name="rcaron" unicode="ř" horiz-adv-x="823" d="M115 1737h192l90-115 92 115h193l-182-228H297zm301-508H307V788h88q70 0 101 35 35 33 34 117v141q1 148-114 148zm116-828q0 99-34 141t-113 42h-78V0H82v1434h340q174 0 254-81t80-249V991q0-221-148-291 150-63 150-305V174Q757 57 782 0H553q-20 59-21 176v225z"/><glyph glyph-name="Sacute" unicode="Ś" horiz-adv-x="765" d="M403 1737h222l-209-228H264zM53 1090q0 172 83 266t249 94 249-94 83-266v-46H504v60q0 141-113 141t-112-141q0-116 88-209 45-49 86-84 72-68 92-90 41-35 86-98 37-45 63-119t25-160q0-174-86-267T383-16 133 77 47 344v88h213V330q0-139 117-140 117 0 117 140 0 84-45 149-39 63-109 129-76 66-131 121-66 61-111 153t-45 208z"/><glyph glyph-name="sacute" unicode="ś" horiz-adv-x="765" d="M403 1737h222l-209-228H264zM53 1090q0 172 83 266t249 94 249-94 83-266v-46H504v60q0 141-113 141t-112-141q0-116 88-209 45-49 86-84 72-68 92-90 41-35 86-98 37-45 63-119t25-160q0-174-86-267T383-16 133 77 47 344v88h213V330q0-139 117-140 117 0 117 140 0 84-45 149-39 63-109 129-76 66-131 121-66 61-111 153t-45 208z"/><glyph glyph-name="Scircumflex" unicode="Ŝ" horiz-adv-x="765" d="M291 1509H98l183 228h202l183-228H473l-92 113zM53 1090q0 172 83 266t249 94 249-94 83-266v-46H504v60q0 141-113 141t-112-141q0-116 88-209 45-49 86-84 72-68 92-90 41-35 86-98 37-45 63-119t25-160q0-174-86-267T383-16 133 77 47 344v88h213V330q0-139 117-140 117 0 117 140 0 84-45 149-39 63-109 129-76 66-131 121-66 61-111 153t-45 208z"/><glyph glyph-name="scircumflex" unicode="ŝ" horiz-adv-x="765" d="M291 1509H98l183 228h202l183-228H473l-92 113zM53 1090q0 172 83 266t249 94 249-94 83-266v-46H504v60q0 141-113 141t-112-141q0-116 88-209 45-49 86-84 72-68 92-90 41-35 86-98 37-45 63-119t25-160q0-174-86-267T383-16 133 77 47 344v88h213V330q0-139 117-140 117 0 117 140 0 84-45 149-39 63-109 129-76 66-131 121-66 61-111 153t-45 208z"/><glyph glyph-name="Scedilla" unicode="Ş" horiz-adv-x="765" d="M53 1090q0 172 83 266t249 94 249-94 83-266v-46H504v60q0 141-113 141t-112-141q0-116 88-209 45-49 86-84 72-68 92-90 41-35 86-98 37-45 63-119t25-160q0-166-77-258T420-14v-66q80 0 115-22 37-18 37-84t-53-90q-52-24-154-25-197 0-197 119v20h151v-16q0-41 46-41 51 0 51 51t-74 51h-20v105Q48 23 47 344v88h213V330q0-139 117-140 117 0 117 140 0 84-45 149-39 63-109 129-76 66-131 121-66 61-111 153t-45 208z"/><glyph glyph-name="scedilla" unicode="ş" horiz-adv-x="765" d="M53 1090q0 172 83 266t249 94 249-94 83-266v-46H504v60q0 141-113 141t-112-141q0-116 88-209 45-49 86-84 72-68 92-90 41-35 86-98 37-45 63-119t25-160q0-166-77-258T420-14v-66q80 0 115-22 37-18 37-84t-53-90q-52-24-154-25-197 0-197 119v20h151v-16q0-41 46-41 51 0 51 51t-74 51h-20v105Q48 23 47 344v88h213V330q0-139 117-140 117 0 117 140 0 84-45 149-39 63-109 129-76 66-131 121-66 61-111 153t-45 208z"/><glyph glyph-name="Scaron" unicode="Š" horiz-adv-x="765" d="M100 1737h193l90-115 92 115h193l-183-228H283zm-47-647q0 172 83 266t249 94 249-94 83-266v-46H504v60q0 141-113 141t-112-141q0-116 88-209 45-49 86-84 72-68 92-90 41-35 86-98 37-45 63-119t25-160q0-174-86-267T383-16 133 77 47 344v88h213V330q0-139 117-140 117 0 117 140 0 84-45 149-39 63-109 129-76 66-131 121-66 61-111 153t-45 208z"/><glyph glyph-name="scaron" unicode="š" horiz-adv-x="765" d="M98 1737h193l90-115 92 115h193l-183-228H281zm-45-647q0 172 83 266t249 94 249-94 83-266v-46H504v60q0 141-113 141t-112-141q0-116 88-209 45-49 86-84 72-68 92-90 41-35 86-98 37-45 63-119t25-160q0-174-86-267T383-16 133 77 47 344v88h213V330q0-139 117-140 117 0 117 140 0 84-45 149-39 63-109 129-76 66-131 121-66 61-111 153t-45 208z"/><glyph glyph-name="uni0162" unicode="Ţ" horiz-adv-x="729" d="M180-223v20h131v-20q0-37 43-37 53 0 54 53 0 57-74 57h-23V0h-59v1229H16v205h697v-205H477V0h-63v-80q61 0 95-33t34-84q0-86-51-127-58-41-134-41t-127 37-51 105z"/><glyph glyph-name="uni0163" unicode="ţ" horiz-adv-x="729" d="M180-223v20h131v-20q0-37 43-37 53 0 54 53 0 57-74 57h-23V0h-59v1229H16v205h697v-205H477V0h-63v-80q61 0 95-33t34-84q0-86-51-127-58-41-134-41t-127 37-51 105z"/><glyph glyph-name="Tcaron" unicode="Ť" horiz-adv-x="729" d="M80 1737h192l90-115 93 115h192l-182-228H262zm-64-508v205h697v-205H477V0H252v1229H16z"/><glyph glyph-name="tcaron" unicode="ť" horiz-adv-x="729" d="M80 1737h192l90-115 93 115h192l-182-228H262zm-64-508v205h697v-205H477V0H252v1229H16z"/><glyph glyph-name="Tbar" unicode="Ŧ" horiz-adv-x="729" d="M117 997h135v232H16v205h697v-205H477V997h135V829H477V0H252v829H117v168z"/><glyph glyph-name="tbar" unicode="ŧ" horiz-adv-x="729" d="M117 997h135v232H16v205h697v-205H477V997h135V829H477V0H252v829H117v168z"/><glyph glyph-name="Utilde" unicode="Ũ" horiz-adv-x="815" d="M492 1665q59 0 88 59l108-75q-53-139-174-140-49 0-103 26t-81 26q-59 0-88-60l-109 76q53 139 174 139 45 0 101-24 53-27 84-27zM72 1434h225V328q0-139 117-140 117 0 116 140v1106h213V342q0-174-86-267-85-93-249-93T158 75 72 342v1092z"/><glyph glyph-name="utilde" unicode="ũ" horiz-adv-x="815" d="M492 1665q59 0 88 59l108-75q-53-139-174-140-49 0-103 26t-81 26q-59 0-88-60l-109 76q53 139 174 139 45 0 101-24 53-27 84-27zM72 1434h225V328q0-139 117-140 117 0 116 140v1106h213V342q0-174-86-267-85-93-249-93T158 75 72 342v1092z"/><glyph glyph-name="Umacron" unicode="Ū" horiz-adv-x="815" d="M174 1677h471v-159H174v159zM72 1434h225V328q0-139 117-140 117 0 116 140v1106h213V342q0-174-86-267-85-93-249-93T158 75 72 342v1092z"/><glyph glyph-name="umacron" unicode="ū" horiz-adv-x="815" d="M174 1677h471v-159H174v159zM72 1434h225V328q0-139 117-140 117 0 116 140v1106h213V342q0-174-86-267-85-93-249-93T158 75 72 342v1092z"/><glyph glyph-name="Ubreve" unicode="Ŭ" horiz-adv-x="815" d="M639 1737q0-109-58-172t-172-63q-219-1-229 235h133q3-51 25-73t70-24q48 0 72 23t26 74h133zM72 1434h225V328q0-139 117-140 117 0 116 140v1106h213V342q0-174-86-267-85-93-249-93T158 75 72 342v1092z"/><glyph glyph-name="ubreve" unicode="ŭ" horiz-adv-x="815" d="M639 1737q0-109-58-172t-172-63q-219-1-229 235h133q3-51 25-73t70-24q48 0 72 23t26 74h133zM72 1434h225V328q0-139 117-140 117 0 116 140v1106h213V342q0-174-86-267-85-93-249-93T158 75 72 342v1092z"/><glyph glyph-name="Uring" unicode="Ů" horiz-adv-x="815" d="M348 1667q0-25 17-45 20-16 45-16t45 16q16 20 16 45t-16 45q-46 37-90 0-17-20-17-45zm-102 0q0 70 47 117t117 47 116-47 47-117q0-70-47-117-46-47-116-47t-117 47-47 117zM72 1434h225V328q0-139 117-140 117 0 116 140v1106h213V342q0-174-86-267-85-93-249-93T158 75 72 342v1092z"/><glyph glyph-name="uring" unicode="ů" horiz-adv-x="815" d="M348 1667q0-25 17-45 20-16 45-16t45 16q16 20 16 45t-16 45q-46 37-90 0-17-20-17-45zm-102 0q0 70 47 117t117 47 116-47 47-117q0-70-47-117-46-47-116-47t-117 47-47 117zM72 1434h225V328q0-139 117-140 117 0 116 140v1106h213V342q0-174-86-267-85-93-249-93T158 75 72 342v1092z"/><glyph glyph-name="Uhungarumlaut" unicode="Ű" horiz-adv-x="815" d="M541 1737h207l-173-228H440zm-267 0h205l-170-228H172zM72 1434h225V328q0-139 117-140 117 0 116 140v1106h213V342q0-174-86-267-85-93-249-93T158 75 72 342v1092z"/><glyph glyph-name="uhungarumlaut" unicode="ű" horiz-adv-x="815" d="M541 1737h207l-173-228H440zm-267 0h205l-170-228H172zM72 1434h225V328q0-139 117-140 117 0 116 140v1106h213V342q0-174-86-267-85-93-249-93T158 75 72 342v1092z"/><glyph glyph-name="Uogonek" unicode="Ų" horiz-adv-x="815" d="M72 1434h225V328q0-139 117-140 117 0 116 140v1106h213V342q0-223-129-326-70-55-69-135 0-29 20-41 18-16 48-16t77 12v-115q-61-23-143-23t-128 35q-46 34-46 93 0 94 119 164-31-8-84-8-164 0-250 93T72 342v1092z"/><glyph glyph-name="uogonek" unicode="ų" horiz-adv-x="815" d="M72 1434h225V328q0-139 117-140 117 0 116 140v1106h213V342q0-223-129-326-70-55-69-135 0-29 20-41 18-16 48-16t77 12v-115q-61-23-143-23t-128 35q-46 34-46 93 0 94 119 164-31-8-84-8-164 0-250 93T72 342v1092z"/><glyph glyph-name="Wcircumflex" unicode="Ŵ" horiz-adv-x="1153" d="M485 1509H293l182 228h203l182-228H668l-93 113zM664 0l-82 764L500 0H190L31 1434h219L371 303l108 1131h217L809 295l117 1139h196L963 0H664z"/><glyph glyph-name="wcircumflex" unicode="ŵ" horiz-adv-x="1153" d="M485 1509H293l182 228h203l182-228H668l-93 113zM664 0l-82 764L500 0H190L31 1434h219L371 303l108 1131h217L809 295l117 1139h196L963 0H664z"/><glyph glyph-name="Ycircumflex" unicode="Ŷ" d="M324 1509H131l182 228h203l182-228H506l-92 113zM293 0v475L8 1434h236l172-654 172 654h215L518 475V0H293z"/><glyph glyph-name="ycircumflex" unicode="ŷ" d="M324 1509H131l182 228h203l182-228H506l-92 113zM293 0v475L8 1434h236l172-654 172 654h215L518 475V0H293z"/><glyph glyph-name="Ydieresis" unicode="Ÿ" d="M471 1706h197v-197H471v197zm-311 0h196v-197H160v197zM293 0v475L8 1434h236l172-654 172 654h215L518 475V0H293z"/><glyph glyph-name="Zacute" unicode="Ź" horiz-adv-x="757" d="M401 1737h222l-209-228H262zM68 1434h639v-201L279 205h428V0H47v201l428 1028H68v205z"/><glyph glyph-name="zacute" unicode="ź" horiz-adv-x="757" d="M401 1737h222l-209-228H262zM68 1434h639v-201L279 205h428V0H47v201l428 1028H68v205z"/><glyph glyph-name="Zdotaccent" unicode="Ż" horiz-adv-x="757" d="M283 1706h196v-197H283v197zM68 1434h639v-201L279 205h428V0H47v201l428 1028H68v205z"/><glyph glyph-name="zdotaccent" unicode="ż" horiz-adv-x="757" d="M283 1706h196v-197H283v197zM68 1434h639v-201L279 205h428V0H47v201l428 1028H68v205z"/><glyph glyph-name="Zcaron" unicode="Ž" horiz-adv-x="757" d="M98 1737h193l90-115 92 115h193l-183-228H281zm-30-303h639v-201L279 205h428V0H47v201l428 1028H68v205z"/><glyph glyph-name="zcaron" unicode="ž" horiz-adv-x="757" d="M98 1737h193l90-115 92 115h193l-183-228H281zm-30-303h639v-201L279 205h428V0H47v201l428 1028H68v205z"/><glyph glyph-name="AEacute" unicode="Ǽ" horiz-adv-x="1187" d="M614 1737h222l-209-228H475zM516 455v690L340 455h176zm0-455v260H289L223 0H8l383 1434h739v-205H741V829h310V625H741V205h389V0H516z"/><glyph glyph-name="aeacute" unicode="ǽ" horiz-adv-x="1187" d="M614 1737h222l-209-228H475zM516 455v690L340 455h176zm0-455v260H289L223 0H8l383 1434h739v-205H741V829h310V625H741V205h389V0H516z"/><glyph glyph-name="Oslashacute" unicode="Ǿ" d="M426 1737h221l-209-228H287zM406 188q117 0 116 142v590L291 287q17-99 115-99zm-117 916V514l229 633q-16 98-112 98-117 0-117-141zM63 344v746q1 172 89 266t254 94q121 0 204-53l41 112 76-26-53-146q74-88 74-247V344q0-172-88-266T424-16q-147 0-223 51L160-76 84-49l51 143q-72 96-72 250z"/><glyph glyph-name="oslashacute" unicode="ǿ" d="M426 1737h221l-209-228H287zM406 188q117 0 116 142v590L291 287q17-99 115-99zm-117 916V514l229 633q-16 98-112 98-117 0-117-141zM63 344v746q1 172 89 266t254 94q121 0 204-53l41 112 76-26-53-146q74-88 74-247V344q0-172-88-266T424-16q-147 0-223 51L160-76 84-49l51 143q-72 96-72 250z"/><glyph glyph-name="uni0218" unicode="Ș" horiz-adv-x="765" d="M53 1090q0 172 83 266t249 94 249-94 83-266v-46H504v60q0 141-113 141t-112-141q0-116 88-209 45-49 86-84 72-68 92-90 41-35 86-98 37-45 63-119t25-160q0-174-86-267T383-16 133 77 47 344v88h213V330q0-139 117-140 117 0 117 140 0 84-45 149-39 63-109 129-76 66-131 121-66 61-111 153t-45 208zM283-256v188h188v-168l-88-131h-80l53 111h-73z"/><glyph glyph-name="uni0219" unicode="ș" horiz-adv-x="765" d="M53 1090q0 172 83 266t249 94 249-94 83-266v-46H504v60q0 141-113 141t-112-141q0-116 88-209 45-49 86-84 72-68 92-90 41-35 86-98 37-45 63-119t25-160q0-174-86-267T383-16 133 77 47 344v88h213V330q0-139 117-140 117 0 117 140 0 84-45 149-39 63-109 129-76 66-131 121-66 61-111 153t-45 208zM283-256v188h188v-168l-88-131h-80l53 111h-73z"/><glyph glyph-name="uni021A" unicode="Ț" horiz-adv-x="729" d="M270-256v188h189v-168l-88-131h-80l53 111h-74zM16 1229v205h697v-205H477V0H252v1229H16z"/><glyph glyph-name="uni021B" unicode="ț" horiz-adv-x="729" d="M270-256v188h189v-168l-88-131h-80l53 111h-74zM16 1229v205h697v-205H477V0H252v1229H16z"/><glyph glyph-name="uni0237" unicode="ȷ" horiz-adv-x="524" d="M98 203q129 0 129 137v1094h226V356Q453-4 129-4 69-4 20 0v205q16-2 78-2z"/></font>
</defs>
</svg>
