<svg baseProfile="full" xmlns="http://www.w3.org/2000/svg" height="8" width="36"><path fill="#FFF" d="M35.002 3.999c0 .037-.005.074-.006.11a4.07 4.07 0 01-.092.738h-.01c-.409 1.801-2.092 3.152-4.109 3.152a4.304 4.304 0 01-2.974-1.172l.007-.006-.018-.016a3.887 3.887 0 01-1.21-2.806C26.59 1.79 28.473 0 30.796 0c1.161 0 2.213.447 2.974 1.171l-.748.712a3.222 3.222 0 00-2.226-.877c-1.739 0-3.148 1.34-3.148 2.993a2.886 2.886 0 00.926 2.113l-.009.009a3.218 3.218 0 002.22.872c1.558 0 2.848-1.078 3.1-2.49h-3.116V3.496h4.196c.022.165.037.332.037.503zM12.922 0v1.006c1.738 0 3.147 1.34 3.147 2.993 0 1.654-1.409 2.994-3.147 2.994-1.739 0-3.149-1.34-3.149-2.994H8.715c0 2.209 1.884 4 4.207 4 2.322 0 4.205-1.791 4.205-4C17.127 1.791 15.244 0 12.922 0zM7.613 2.355L5.596 6.403c-.163.334-.457.577-.712.585h-.04c-.248-.005-.545-.25-.708-.585L1.167.286H0l3.175 6.539c.356.732.983 1.169 1.677 1.169h.027c.695 0 1.321-.437 1.677-1.169l2.006-4.024c.486-1.057 1.595-1.795 2.886-1.795V0C9.741 0 8.272.966 7.613 2.355zM1.961.327h.09v.23h.05v-.23h.09V.286h-.23v.041zm.263.23h.047V.348h.001l.079.209h.041l.079-.209v.209h.048V.286h-.07l-.076.212h-.001L2.294.286h-.07v.271zM21.844 0c-2.323 0-4.206 1.79-4.206 3.999s1.883 4 4.206 4c2.322 0 4.205-1.791 4.205-4S24.166 0 21.844 0zm0 6.983c-1.733 0-3.138-1.336-3.138-2.984 0-1.647 1.405-2.983 3.138-2.983 1.732 0 3.137 1.336 3.137 2.983 0 1.648-1.405 2.984-3.137 2.984z"/></svg>