<svg xmlns="http://www.w3.org/2000/svg" xmlns:xlink="http://www.w3.org/1999/xlink" width="210" height="75" viewBox="0 0 210 75"><style>.s0{fill: none;fill-rule: evenodd;}.s1{stroke-width: 7;}.s10{stroke: #DC515E;stroke-width: 6;}.s11{stroke: #FFFFFF;stroke-width: 9;}.s12{fill: #DC515E;}.s13{stroke: #425091;stroke-width: 15;}.s14{stroke: #FFFFFF;stroke-width: 5;}.s15{stroke: #DD505E;stroke-width: 3;}.s16{stroke: #DC505E;stroke-width: 15;}.s17{stroke: #425091;stroke-width: 3;}.s18{stroke: #FFFFFF;stroke-width: 3;}.s19{stroke: #4A89DC;stroke-width: 15;}.s2{stroke: #425091;}.s20{stroke: #FFCE54;stroke-width: 3;}.s21{stroke: #FFFFFF;stroke-width: 15;}.s22{stroke: #4A89DC;stroke-width: 3;}.s23{stroke: #DC515E;stroke-width: 3;}.s24{stroke: #DC515E;stroke-width: 2;}.s25{stroke-width: 5;}.s26{stroke: #DC505E;}.s27{stroke: #FFCE54;}.s28{stroke: #DC515E;}.s29{stroke: #DC515E;stroke-width: 5;}.s3{stroke: #DD505E;}.s30{stroke: #509F5D;stroke-width: 5;}.s31{stroke: #425091;stroke-width: 5;}.s32{fill: #FFFFFF;}.s33{fill: #DD505E;}.s34{stroke: #425191;stroke-width: 5;}.s35{fill: #425191;}.s36{fill: #FACA5A;}.s37{stroke: #DC9551;stroke-width: 5;}.s38{stroke: #425191;}.s39{stroke: #DD505E;stroke-width: 15;}.s4{stroke: #FFFFFF;}.s40{stroke: #DC515E;stroke-width: 15;}.s41{fill: #FFCE54;}.s42{stroke: #4A89DC;stroke-width: 2;}.s43{stroke: #FFFFFF;stroke-width: 11;}.s44{stroke: #FFFFFF;stroke-width: 27;}.s45{stroke: #B42B39;stroke-width: 6;}.s46{stroke: #DC505E;stroke-width: 3;}.s47{stroke: #FACA5A;stroke-width: 9;}.s48{stroke: #DC505E;stroke-width: 7;}.s49{stroke: #FFFFFF;stroke-width: 8;}.s5{stroke: #000000;}.s50{fill: #434F91;}.s51{stroke: #434F91;stroke-width: 8;}.s52{stroke: #FFFFFF;stroke-width: 7;}.s53{stroke: #DC505E;stroke-width: 8;}.s54{stroke: #FACA5A;stroke-width: 7;}.s55{stroke: #4A89DC;stroke-width: 8;}.s56{stroke: #509F5D;stroke-width: 15;}.s57{fill: #DC505E;}.s58{stroke: #FFFFFF;stroke-linecap: square;}.s59{fill: #4758A9;}.s6{stroke: #FACA5A;}.s60{fill: white;}.s61{stroke: #FFFFFF;stroke-width: 3;mask: url(#mask-2);}.s62{stroke: #DC515E;mask: url(#mask-4);}.s63{stroke: #FFFFFF;stroke-width: 2;mask: url(#mask-6);}.s64{stroke: #DC515E;mask: url(#mask-8);}.s65{fill: #3C497D;}.s66{fill: #F6D660;}.s67{fill: #F5F7FA;}.s68{stroke: #509F5D;stroke-width: 14;}.s69{stroke: #509F5D;stroke-width: 7;}.s7{stroke: #509F5D;}.s70{stroke: #DC515E;stroke-width: 14;}.s71{stroke: #FFCE54;fill: #DC515E;}.s72{stroke: #C9C9C9;stroke-width: 15;}.s8{stroke: #4A89DC;}.s9{stroke: #DC9551;}</style><title>Voog flags</title><desc>Size 21 x 15 px</desc><g class="s0"><g class="s1"><path d="M24.5 15v15" class="s2"/><path d="M38.5 15v15" class="s3"/><path d="M31.5 15v15" class="s4"/></g><g class="s1"><path d="M150.5 60v15" class="s5"/><path d="M164.5 60v15" class="s3"/><path d="M157.5 60v15" class="s6"/></g><g class="s1"><path d="M24.5 30v15" class="s7"/><path d="M38.5 30v15" class="s3"/><path d="M31.5 30v15" class="s4"/></g><g class="s1"><path d="M45.5 45v15" class="s8"/><path d="M59.5 45v15" class="s3"/><path d="M52.5 45v15" class="s6"/></g><g class="s1"><path d="M45.5 60v15" class="s7"/><path d="M59.5 60v15" class="s9"/><path d="M52.5 60v15" class="s4"/></g><path d="M108 60v15" class="s10"/><path d="M115.502 60v15" class="s11"/><path d="M123 60v15" class="s10"/><path class="s12" d="M119.002 66.7l1-.2-.5 1 .5.5-2.3.7.3 1.3h-2.3l.3 2h-1l.3-2h-2.3l.3-1.3-2.3-.7.5-.5-.5-1 1 .2V66l2 1 .5-1-.5-2 1 1 .5-1 .5 1 1-1-.5 2 .5 1 2-1"/><path d="M126 22.5h21" class="s13"/><path d="M133.5 15v15m-7.5-7.5h21" class="s14"/><path d="M133.5 9v21m-7.5-7.5h21" class="s15"/><path d="M168 37.5h21" class="s16"/><path d="M175.5 30v15m-7.5-7.5h21" class="s14"/><path d="M175.5 24v21m-7.5-7.5h21" class="s17"/><path d="M147 7.5h21" class="s16"/><path d="M154.5 0v15M147 7.5h21" class="s18"/><path d="M168 52.5h21" class="s19"/><path d="M175.5 45v15m-7.5-7.5h21" class="s20"/><path d="M0 22.5h21" class="s21"/><path d="M7.5 15v15M0 22.5h21" class="s22"/><path d="M42 22.5h21" class="s21"/><path d="M52.5 15v15M42 22.5h21" class="s23"/><path d="M46 16v4m-2-2h4M59 16v4m-2-2h4M46 25v4m-2-2h4M59 25v4m-2-2h4" class="s24"/><g class="s25"><path d="M105 27.5h21" class="s7"/><path d="M105 22.5h21" class="s4"/><path d="M105 17.5h21" class="s3"/></g><g class="s25"><path d="M105 42.5h21" class="s26"/><path d="M105 37.5h21" class="s7"/><path d="M105 32.5h21" class="s27"/></g><g class="s25"><path d="M63 57.5h21" class="s26"/><path d="M63 52.5h21" class="s8"/><path d="M63 47.5h21" class="s4"/></g><g class="s25"><path d="M63 27.5h21" class="s27"/><path d="M63 22.5h21" class="s28"/><path d="M63 17.5h21" class="s5"/></g><path d="M189 27.5h21" class="s29"/><path d="M189 22.5h21" class="s14"/><path d="M189 17.5h21" class="s30"/><path d="M199.5 21c.8 0 1.5.7 1.5 1.5s-.7 1.5-1.5 1.5-1.5-.7-1.5-1.5.7-1.5 1.5-1.5" class="s28"/><path d="M126 12.5h21" class="s31"/><path d="M126 7.5h21" class="s14"/><path d="M126 2.5h21" class="s29"/><path d="M136.5 3s-.3 1-1.5 1c-1.1 0-2-.9-2-.9V8c0 3 3.5 5 3.5 5s3.5-2 3.5-5V3s-.9 1-2 1-1.5-1-1.5-1z" class="s32"/><path d="M136.5 5s-.2 1-1 1-1.5-1-1.5-1v3c0 2.1 2.5 3 2.5 3s2.5-.9 2.5-3V5s-.7 1-1.5 1-1-1-1-1z" class="s33"/><path d="M105 57.5h21" class="s29"/><path d="M105 52.5h21" class="s34"/><path d="M105 47.5h21" class="s14"/><path d="M110.5 47s-.3 1-1.5 1c-1.1 0-2-.9-2-.9V52c0 3 3.5 5 3.5 5s3.5-2 3.5-5v-5s-.9 1-2 1-1.5-1-1.5-1z" class="s32"/><path d="M110.5 49s-.2 1-1 1-1.5-1-1.5-1v3c0 2.1 2.5 3 2.5 3s2.5-.9 2.5-3v-3s-.7 1-1.5 1-1-1-1-1z" class="s33"/><path d="M126 57.5h21" class="s29"/><path d="M126 52.5h21" class="s34"/><path d="M126 47.5h21" class="s14"/><path d="M131 47.3s-.3.9-1.3.9c-.9 0-1.7-.8-1.7-.8v4.2c0 2.7 3 4.4 3 4.4s3-1.7 3-4.4v-4.3s-.8.9-1.7.9c-1 0-1.3-.9-1.3-.9z" class="s32"/><path d="M131 49s-.1.9-.8.9c-.6 0-1.2-.9-1.2-.9v2.7c0 1.8 2 2.6 2 2.6s2-.8 2-2.6V49s-.6.9-1.2.9c-.7 0-.8-.9-.8-.9z" class="s35"/><g transform="translate(126 62)"><path d="M0 10.5h21" class="s14"/><path d="M0 5.5h21" class="s34"/><path d="M0 .5h21" class="s29"/><path d="M4.982 1.3s-.282.9-1.282.9c-.887 0-1.7-.8-1.7-.8v4.2C2.027 8.3 5 10 5 10c-.018 0 3-1.7 3-4.4l.016-4.3s-.816.9-1.716.9c-.99 0-1.3-.9-1.3-.9z" class="s12"/><circle cx="5" cy="3" r="2" class="s36"/><circle cx="5" cy="6.5" r="2" class="s36"/><path d="M4.995 3s-.095.9-.795.9C3.595 3.9 3 3 3 3v2.7c.018 1.8 2 2.6 2 2.6-.005 0 2-.8 2-2.6L7.005 3s-.605.9-1.205.9C5.138 3.9 5 3 5 3z" class="s32"/></g><g><path d="M147 27.5h21" class="s30"/><path d="M147 22.5h21" class="s14"/><path d="M147 17.5h21" class="s37"/><path d="M157.5 21c.8 0 1.5.7 1.5 1.5s-.7 1.5-1.5 1.5-1.5-.7-1.5-1.5.7-1.5 1.5-1.5" class="s38"/></g><g class="s25"><path d="M147 42.5h21" class="s8"/><path d="M147 37.5h21" class="s4"/><path d="M147 32.5h21" class="s26"/></g><g class="s25"><path d="M189 12.5h21" class="s4"/><path d="M189 7.5h21" class="s5"/><path d="M189 2.5h21" class="s8"/></g><g><path d="M0 7.5h21" class="s39"/><path d="M11 8.1l1.6 1.3 1.1 2.6L11 9.4V12H9.9V9.4L7.3 12l1.3-2.6 1.3-1.3L6 9.4l2.3-1.9L6 4.1h1.3l2 2.3.6-2.3L8.3 3h4.6L11 4.1l.7 2.3 2-2.3H15l-2.3 3.4L15 9.4l-4-1.3z" class="s32"/></g><g transform="translate(105 1)"><path d="M0 6.5h21" class="s40"/><path d="M5.252 2.9h2.77L5.75 4.2l.67 2.8-1.904-2-1.896 2 .596-2.8-2.23-1.3h2.763L4.514.5l.738 2.4zM7.565 1.1c.312 0 .535-.2.535-.5.03-.3-.2-.6-.5-.6-.347 0-.6.3-.6.6s.3.5.6.5z" class="s41"/><circle cx="9.5" cy="2.5" r=".5" class="s41"/><circle cx="9.5" cy="5.5" r=".5" class="s41"/><circle cx="7.5" cy="7.5" r=".5" class="s41"/></g><g class="s25"><path d="M21 12.5h21" class="s6"/><path d="M21 7.5h21" class="s2"/><path d="M21 2.5h21" class="s3"/></g><g><path d="M0 44h21" class="s42"/><path d="M0 37.5h21" class="s43"/><path d="M0 31h21" class="s42"/><path d="M9.6 35.2l1-1.9 1 1.9h2.6l-1.3 2.4 1.3 2.5h-2.6l-1 1.8-1-1.8H7l1.3-2.5L7 35.2h2.6z" class="s8"/></g><g><path d="M84 28.5h21" class="s44"/><path d="M84 16.5h3M89 16.5h3M84 21.5h3M89 21.5h3" class="s22"/><path d="M92 19h13M92 16h13M92 22h13M84 25h21M84 28h21" class="s42"/></g><g><path d="M84 42h21" class="s45"/><path d="M84 37.5h21" class="s18"/><path d="M84 33h21" class="s45"/></g><g><path d="M147 58.5h21" class="s46"/><path d="M147 52.5h21" class="s47"/><path d="M147 46.5h21" class="s46"/></g><g><path d="M168 11.5h21" class="s48"/><path d="M168 4h21" class="s49"/><path d="M168.1 0l7.9 7.5-7.9 7V0" class="s50"/></g><g transform="translate(.004 45)"><path d="M0 11.5h21" class="s48"/><path d="M0 4h21" class="s51"/><path d="M-.004 0l7.937 7.5-7.937 7V0" class="s32"/><circle cx="2.5" cy="7.5" r="1.5" class="s36"/></g><g><path d="M168 26.5h21" class="s52"/><path d="M168 19h21" class="s53"/></g><g><path d="M21 56.5h21" class="s48"/><path d="M21 49h21" class="s49"/></g><g><path d="M0 71.5h21" class="s54"/><path d="M0 64h21" class="s55"/></g><g><path d="M42 7.5h21" class="s56"/><path d="M56 7.5c0 2-1.5 3.5-3.5 3.5S49 9.5 49 7.5 50.5 4 52.5 4 56 5.5 56 7.5z" class="s57"/></g><g><path d="M84 52.5h21" class="s56"/><path d="M90.5 55.5h8M96.5 54.5v2" class="s58"/><g transform="translate(90 48)" class="s32"><circle cx=".5" cy=".5" r=".5"/><circle cx="2.5" cy=".5" r=".5"/><circle cx="4.5" cy=".5" r=".5"/><circle cx="6.5" cy=".5" r=".5"/><circle cx="8.5" cy=".5" r=".5"/><circle cx="1.5" cy="1.5" r=".5"/><circle cx="3.5" cy="1.5" r=".5"/><circle cx="5.5" cy="1.5" r=".5"/><circle cx="7.5" cy="1.5" r=".5"/><circle cx=".5" cy="2.5" r=".5"/><circle cx="2.5" cy="2.5" r=".5"/><circle cx="4.5" cy="2.5" r=".5"/><circle cx="6.5" cy="2.5" r=".5"/><circle cx="8.5" cy="2.5" r=".5"/><circle cx="1.5" cy="3.5" r=".5"/><circle cx="3.5" cy="3.5" r=".5"/><circle cx="5.5" cy="3.5" r=".5"/><circle cx="7.5" cy="3.5" r=".5"/><circle cx=".5" cy="4.5" r=".5"/><circle cx="2.5" cy="4.5" r=".5"/><circle cx="4.5" cy="4.5" r=".5"/><circle cx="6.5" cy="4.5" r=".5"/><circle cx="8.5" cy="4.5" r=".5"/></g></g><g><path d="M42 37.5h21" class="s21"/><path d="M56 37.5c0 2-1.5 3.5-3.5 3.5S49 39.5 49 37.5s1.5-3.5 3.5-3.5 3.5 1.5 3.5 3.5z" class="s57"/></g><g><path d="M63 37.5h21" class="s21"/><path d="M77 37.1c0 .4-.3-.9-1.4-1.1-1-.2-2 .5-2.2 1.6-.2.9-1.1 1.6-2 1.4-.9-.2-1.5-1.1-1.4-2.1.4-1.9 2.3-3.2 4.2-2.8 1.5.3 2.6 1.5 2.8 3z" class="s12"/><path d="M70 37.9c0-.4.3.9 1.4 1.1 1 .2 2-.5 2.2-1.6.2-.9 1.1-1.6 2-1.4.9.2 1.6 1.1 1.4 2.1-.4 1.9-2.3 3.2-4.2 2.8-1.5-.3-2.6-1.5-2.8-3z" class="s59"/></g><g><path d="M63 67.5h21" class="s13"/><g transform="translate(63 60)"><use xlink:href="#path-1"/><path d="M10.532 7.5L.5.5l10.032 7 10.03-7-10.03 7zm0 0l9.968 7-9.968-7-9.97 7 9.97-7z" class="s61"/></g><g transform="translate(63 60)"><use xlink:href="#path-3"/><path d="M10.532 7.5L.5.5l10.032 7 10.03-7-10.03 7zm0 0l9.968 7-9.968-7-9.97 7 9.97-7z" class="s62"/></g><path d="M73.5 60v15M63 67.5h21" class="s14"/><path d="M73.5 60v15M63 67.5h21" class="s23"/></g><g><path d="M168 67.5h21" class="s13"/><g transform="translate(168 60)"><use xlink:href="#path-5"/><path d="M4.546 3.5L.216.2l4.33 3.3L8.876.2l-4.33 3.3zm0 0L8.85 6.8 4.545 3.5.243 6.8l4.303-3.3z" class="s63"/></g><path d="M172.5 60v7m-4.5-3.5h9" class="s18"/><g transform="translate(168 60)"><use xlink:href="#path-7"/><path d="M.216.2L8.85 6.8M8.877.2L.243 6.8" class="s64"/></g><path d="M172.5 60v7m-4.5-3.5h9" class="s28"/><path class="s32" d="M181 63.5l-.6.3.1-.6-.5-.5.7-.1.3-.6.3.6.7.1-.5.5.1.6M184.5 65.2l-.9.5.2-1-.7-.7 1-.1.4-.9.4.9 1 .1-.7.7.2 1M184 68.5l-.6.3.1-.6-.5-.5.7-.1.3-.6.3.6.7.1-.5.5.1.6M179.5 67.2l-.9.5.2-1-.7-.7 1-.1.4-.9.4.9 1 .1-.7.7.2 1M172 72l-1.2.6.2-1.3-.9-.9 1.3-.2.6-1.2.6 1.2 1.3.2-.9.9.2 1.3"/></g><g><g class="s57"><path d="M134 30h13.01v1H134v-1zM134 32h13.01v1H134v-1zM133.994 34h13.02v1h-13.02v-1zM133.994 36h13.02v1h-13.02v-1zM126 38h21v1h-21v-1zM126 40h21v1h-21v-1zM126 42h21v1h-21v-1zM126 44h21v1h-21v-1z"/></g><g class="s32"><path d="M136.2 31H147v1h-10.8v-1zM136.2 33H147v1h-10.8v-1zM136.2 35H147v1h-10.8v-1zM126 37h21v1h-21v-1zM126 39h21v1h-21v-1zM126 41h21v1h-21v-1zM126 43h21v1h-21v-1z"/></g><path d="M126 30h8v8h-8v-8z" class="s65"/><path d="M130.216 32.4c-.337-.2-.716-.4-1.216-.4-1.1 0-2 .9-2 2 .003 1.1.9 2 2 2 .46 0 .9-.2 1.2-.4h-.2c-1.105 0-2-.7-2-1.6 0-.9.9-1.6 2-1.6h.2zM132 33c.552 0 1 .4 1 1s-.4 1-1 1c-.553 0-1-.4-1-1s.4-1 1-1" class="s41"/></g><g><g class="s57"><path d="M30.99 60h11.02v1H30.99v-1zM30.99 62h11.02v1H30.99v-1zM30.985 64h11.028v1H30.985v-1zM30.985 66h11.028v1H30.985v-1zM21 68h21v1H21v-1zM21 70h21v1H21v-1zM21 72h21v1H21v-1zM21 74h21v1H21v-1z"/></g><g class="s32"><path d="M31 61h11v1H31v-1zM31 63h11v1H31v-1zM31 65h11v1H31v-1zM21 67h21v1H21v-1zM21 69h21v1H21v-1zM21 71h21v1H21v-1zM21 73h21v1H21v-1z"/></g><path d="M21 60h11v9H21v-9z" class="s65"/><g transform="translate(22 61)" class="s32"><circle cx=".5" cy=".5" r=".5"/><circle cx="2.5" cy=".5" r=".5"/><circle cx="4.5" cy=".5" r=".5"/><path d="M6.5 1c.276 0 .5-.2.5-.5S6.8 0 6.5 0c-.276 0-.5.2-.5.5s.2.5.5.5z"/><circle cx="1.5" cy="1.5" r=".5"/><circle cx="3.5" cy="1.5" r=".5"/><circle cx="5.5" cy="1.5" r=".5"/><path d="M7.5 2c.276 0 .5-.2.5-.5S7.8 1 7.5 1c-.276 0-.5.2-.5.5s.2.5.5.5z"/><circle cx=".5" cy="2.5" r=".5"/><circle cx="2.5" cy="2.5" r=".5"/><circle cx="4.5" cy="2.5" r=".5"/><circle cx="6.5" cy="2.5" r=".5"/><circle cx="1.5" cy="3.5" r=".5"/><circle cx="3.5" cy="3.5" r=".5"/><circle cx="5.5" cy="3.5" r=".5"/><circle cx="7.5" cy="3.5" r=".5"/><circle cx="1.5" cy="5.5" r=".5"/><circle cx="3.5" cy="5.5" r=".5"/><circle cx="5.5" cy="5.5" r=".5"/><circle cx="7.5" cy="5.5" r=".5"/><circle cx=".5" cy="4.5" r=".5"/><circle cx="2.5" cy="4.5" r=".5"/><circle cx="4.5" cy="4.5" r=".5"/><circle cx="6.5" cy="4.5" r=".5"/><circle cx=".5" cy="6.5" r=".5"/><circle cx="2.5" cy="6.5" r=".5"/><circle cx="4.5" cy="6.5" r=".5"/><circle cx="6.5" cy="6.5" r=".5"/><path d="M8.5 1c.276 0 .5-.2.5-.5S8.8 0 8.5 0c-.276 0-.5.2-.5.5s.2.5.5.5z"/><circle cx="8.5" cy="2.5" r=".5"/><circle cx="8.5" cy="4.5" r=".5"/><circle cx="8.5" cy="6.5" r=".5"/></g></g><g><path d="M63 7.5h21" class="s56"/><path d="M66 7.5L73.1 2l7.1 5.5-7.1 5.6L66 7.5z" class="s66"/><path d="M76.4 7.4c0 1.9-1.5 3.4-3.4 3.4s-3.4-1.5-3.4-3.4S71.1 4 73 4s3.4 1.5 3.4 3.4z" class="s59"/><path d="M76.2 9.1c.1-.2.2-.4.3-.7-.8-1.7-2.5-2.9-4.6-2.9-.8 0-1.6.2-2.3.5-.1.2-.1.4-.2.6.7-.4 1.4-.5 2.2-.5 2.1 0 3.9 1.2 4.6 3z" class="s67"/></g><g class="s25"><path d="M84 12.5h21" class="s28"/><path d="M84 7.5h21" class="s7"/><path d="M84 2.5h21" class="s4"/></g><g><path d="M189 52.5h21" class="s40"/><path d="M202.9 52l-.6.5c-.2.2-.3.5-.2.7l.2.7c.1.2 0 .3-.2.1l-.7-.4c-.2-.1-.5-.1-.6 0l-.7.5c-.1.1-.2.1-.2-.1l.2-.8c0-.3-.1-.6-.2-.7l-.6-.5c-.1-.2-.1-.3.1-.3h.8c.2 0 .4-.2.5-.4l.2-.9c.1-.2.2-.2.3 0l.3.9c0 .2.3.4.5.4h.8c.2 0 .2.1.1.3zm-2.2-2.7c-.1-.1-.3-.2-.5-.2-1.8-.6-3.7.4-4.2 2.3-.1.4-.1.8-.1 1.1 0 .4 0 .8.2 1.1.5 1.9 2.4 3 4.2 2.4.2-.1.4-.2.5-.3h.1s.1 0 .1.1v.1c-.4.4-.9.7-1.5.9-2.2.7-4.6-.6-5.3-2.9-.2-.5-.2-.9-.3-1.4 0-.4.1-.8.2-1.3.7-2.4 3-3.7 5.2-3 .6.2 1.1.5 1.5.9.1 0 .1 0 .1.1s-.1.1-.2.1z" class="s32"/></g><g><path d="M192.5 30v15" class="s52"/><path d="M203 30v15" class="s68"/><path d="M206.3 39.2c-.3.4-.6.8-1 1.2-1.6 1.4-4 1.1-5.3-.6-.3-.4-.5-.7-.6-1.1-.1-.3-.2-.7-.3-1.1-.1-2.2 1.5-4.1 3.5-4.3.6 0 1.1 0 1.5.2.1 0 .1 0 .1.1s0 .1-.1.1h-.5c-1.7.1-2.9 1.7-2.8 3.4 0 .3.1.7.2 1 .1.3.3.6.5.8 1 1.4 2.9 1.6 4.2.5.2-.1.3-.2.4-.4h.2v.2zm-.7-2.4c-.2.1-.2.4-.2.6l.2.6c.1.2 0 .3-.2.2l-.6-.4c-.1-.1-.4-.1-.5 0l-.6.5c-.2.1-.3 0-.2-.2l.1-.7c.1-.2 0-.5-.1-.6l-.5-.4c-.2-.2-.1-.3 0-.3h.7c.2 0 .4-.2.5-.4l.2-.7c.1-.2.2-.2.2 0l.3.7c0 .2.2.4.4.4h.8c.1 0 .2.1 0 .2l-.5.5z" class="s32"/></g><g transform="translate(86.998 60)"><path d="M.506 0v15" class="s69"/><path d="M11 0v15" class="s70"/><circle cx="4.5" cy="7.5" r="3.5" class="s71"/><path d="M4.498 6s-.098.6-.398.6c-.3 0-.6-.6-.6-.6v1.6c.01 1.2 1 1.7 1 1.7-.002 0 1-.5 1-1.7L5.503 6s-.303.6-.603.6c-.33 0-.4-.6-.4-.6z" class="s32"/></g><g class="s72"><path d="M189 67.5h21"/></g></g></svg>