<?xml version="1.0" encoding="utf-8"?>
<!-- Generator: Adobe Illustrator 15.1.0, SVG Export Plug-In . SVG Version: 6.00 Build 0)  -->
<!DOCTYPE svg PUBLIC "-//W3C//DTD SVG 1.1//EN" "http://www.w3.org/Graphics/SVG/1.1/DTD/svg11.dtd">
<svg version="1.1" id="Layer_1" xmlns="http://www.w3.org/2000/svg" xmlns:xlink="http://www.w3.org/1999/xlink" x="0px" y="0px"
	 width="14px" height="14px" viewBox="0 0 14 14" enable-background="new 0 0 14 14" xml:space="preserve">
<path fill="#1B2124" d="M3.291,8.486C2.852,8.172,2.438,8.016,2.052,8.016c-0.352,0-0.757,0.16-1.217,0.482s-0.69,0.701-0.69,1.135
	c0,0.299,0.202,0.67,0.606,1.115c0.703,0.773,1.239,1.445,1.608,2.014c0.357,0.539,0.574,0.844,0.65,0.914s0.185,0.137,0.325,0.197
	c0.141,0.062,0.463,0.092,0.967,0.092c0.639,0,1.061-0.062,1.266-0.188c0.205-0.127,0.357-0.264,0.457-0.41s0.322-0.641,0.668-1.484
	c0.732-1.84,1.724-3.742,2.972-5.705c1.248-1.963,2.449-3.475,3.604-4.535c0.24-0.229,0.398-0.4,0.475-0.514s0.113-0.25,0.113-0.409
	c0-0.205-0.065-0.371-0.197-0.497s-0.301-0.189-0.506-0.189c-0.311,0-0.768,0.047-1.371,0.141s-1.023,0.243-1.261,0.448
	S9.993,1.105,9.65,1.454S8.763,2.51,8.016,3.577S6.599,5.712,6.007,6.785S4.905,8.842,4.478,9.738
	C4.126,9.217,3.73,8.799,3.291,8.486z"/>
</svg>
