<?xml version="1.0" encoding="utf-8"?><!DOCTYPE svg PUBLIC "-//W3C//DTD SVG 1.1//EN" "http://www.w3.org/Graphics/SVG/1.1/DTD/svg11.dtd"><svg version="1.1" baseProfile="full" xmlns="http://www.w3.org/2000/svg" xmlns:xlink="http://www.w3.org/1999/xlink" xmlns:ev="http://www.w3.org/2001/xml-events"   height="16px"   width="16px" ><path fill="rgb( 255, 255, 255 )" d="M15.323,13.712 C15.323,14.194 15.135,14.647 14.794,14.988 C14.453,15.328 14,15.516 13.519,15.516 C13.037,15.516 12.584,15.328 12.243,14.988 C12.243,14.988 9.136,11.881 9.136,11.881 C8.279,12.318 7.323,12.588 6.294,12.588 C2.818,12.588 0,9.77 0,6.294 C0,2.818 2.818,0 6.294,0 C9.77,0 12.588,2.818 12.588,6.294 C12.588,7.424 12.266,8.47 11.745,9.387 C11.745,9.387 14.794,12.437 14.794,12.437 C15.135,12.777 15.323,13.23 15.323,13.712 ZM6.295,1.516 C3.655,1.516 1.514,3.656 1.514,6.297 C1.514,8.937 3.655,11.078 6.295,11.078 C8.936,11.078 11.076,8.937 11.076,6.297 C11.076,3.656 8.936,1.516 6.295,1.516 Z "/></svg>