<svg baseProfile="full" xmlns="http://www.w3.org/2000/svg" height="8" width="36"><path d="M35.002 4c0 .036-.005.073-.006.11-.008.252-.04.498-.092.737h-.01C34.484 6.647 32.802 8 30.784 8c-1.16 0-2.212-.45-2.973-1.173l.008-.006-.018-.015c-.748-.722-1.21-1.712-1.21-2.806 0-2.21 1.883-4 4.206-4 1.16 0 2.213.447 2.974 1.17l-.748.713c-.57-.542-1.357-.877-2.226-.877-1.74 0-3.148 1.34-3.148 2.993 0 .7.256 1.346.682 1.856.075.09.158.175.244.256l-.01.01c.57.538 1.354.87 2.22.87 1.56 0 2.85-1.077 3.1-2.49H30.77V3.497h4.195c.022.165.037.332.037.503zm-22.08-4v1.006c1.738 0 3.147 1.34 3.147 2.993 0 1.653-1.41 2.993-3.148 2.993-1.74 0-3.15-1.34-3.15-2.994H8.716c0 2.208 1.884 4 4.207 4 2.322 0 4.205-1.792 4.205-4 0-2.21-1.883-4-4.205-4zm-5.31 2.355L5.597 6.403c-.163.334-.457.577-.712.585h-.04c-.248-.005-.545-.25-.708-.585L1.166.286H0l3.175 6.54c.356.73.983 1.168 1.677 1.168h.027c.694 0 1.32-.437 1.676-1.17l2.006-4.023c.486-1.056 1.595-1.794 2.886-1.794V0C9.74 0 8.272.966 7.613 2.355zM1.963.327h.09v.23h.05v-.23h.09v-.04h-.23v.04zm.262.23h.047v-.21h.002l.08.21h.04l.08-.21v.21h.047v-.27h-.07l-.077.21-.08-.21h-.07v.27zM21.844 0c-2.323 0-4.206 1.79-4.206 4 0 2.208 1.883 4 4.206 4 2.322 0 4.205-1.792 4.205-4 0-2.21-1.884-4-4.206-4zm0 6.983c-1.733 0-3.138-1.336-3.138-2.984s1.405-2.984 3.138-2.984c1.732 0 3.137 1.336 3.137 2.983s-1.404 2.983-3.136 2.983z"/></svg>