<svg xmlns="http://www.w3.org/2000/svg" width="210" height="75" viewBox="0 0 210 75"><style>.style0{fill: none;fill-rule: evenodd;}.style1{stroke-width: 7;}.style10{stroke: #FFFFFF;stroke-width: 5;}.style11{stroke: #DD505E;stroke-width: 3;}.style12{stroke: #DC505E;stroke-width: 15;}.style13{stroke: #425091;stroke-width: 3;}.style14{stroke: #FFFFFF;stroke-width: 3;}.style15{stroke: #4A89DC;stroke-width: 15;}.style16{stroke: #FFCE54;stroke-width: 3;}.style17{stroke: #FFFFFF;stroke-width: 15;}.style18{stroke: #4A89DC;stroke-width: 3;}.style19{stroke: #DC515E;stroke-width: 3;}.style2{stroke: #425091;}.style20{stroke: #DC515E;stroke-width: 2;}.style21{stroke-width: 5;}.style22{stroke: #DC505E;}.style23{stroke: #FFCE54;}.style24{stroke: #DC515E;}.style25{stroke: #000000;}.style26{stroke: #DC515E;stroke-width: 5;}.style27{stroke: #509F5D;stroke-width: 5;}.style28{stroke: #425091;stroke-width: 5;}.style29{fill: #FFFFFF;}.style3{stroke: #DD505E;}.style30{fill: #DD505E;}.style31{stroke: #425191;stroke-width: 5;}.style32{fill: #425191;}.style33{stroke: #DC9551;stroke-width: 5;}.style34{stroke: #425191;}.style35{stroke: #DD505E;stroke-width: 15;}.style36{stroke: #DC515E;stroke-width: 15;}.style37{fill: #FFCE54;}.style38{stroke: #4A89DC;stroke-width: 2;}.style39{stroke: #FFFFFF;stroke-width: 11;}.style4{stroke: #FFFFFF;}.style40{stroke: #FFFFFF;stroke-width: 27;}.style41{stroke: #B42B39;stroke-width: 6;}.style42{stroke: #DC505E;stroke-width: 3;}.style43{stroke: #FACA5A;stroke-width: 9;}.style44{stroke: #DC505E;stroke-width: 7;}.style45{stroke: #FFFFFF;stroke-width: 8;}.style46{fill: #434F91;}.style47{stroke: #434F91;stroke-width: 8;}.style48{fill: #FACA5A;}.style49{stroke: #FFFFFF;stroke-width: 7;}.style5{stroke: #509F5D;}.style50{stroke: #DC505E;stroke-width: 8;}.style51{stroke: #FACA5A;stroke-width: 7;}.style52{stroke: #4A89DC;stroke-width: 8;}.style53{stroke: #509F5D;stroke-width: 15;}.style54{fill: #DC505E;}.style55{stroke: #FFFFFF;stroke-linecap: square;}.style56{fill: #DC515E;}.style57{fill: #4758A9;}.style58{fill: #3C497D;}.style59{fill: #F6D660;}.style6{stroke: #4A89DC;}.style60{fill: #F5F7FA;}.style61{stroke: #509F5D;stroke-width: 14;}.style7{stroke: #FACA5A;}.style8{stroke: #DC9551;}.style9{stroke: #425091;stroke-width: 15;}</style><title>20x14px</title><desc>Created with Sketch.</desc><g class="style0"><g class="style1"><path d="M24.5 15v15" class="style2"/><path d="M38.5 15v15" class="style3"/><path d="M31.5 15v15" class="style4"/></g><g class="style1"><path d="M24.5 30v15" class="style5"/><path d="M38.5 30v15" class="style3"/><path d="M31.5 30v15" class="style4"/></g><g class="style1"><path d="M45.5 45v15" class="style6"/><path d="M59.5 45v15" class="style3"/><path d="M52.5 45v15" class="style7"/></g><g class="style1"><path d="M45.5 60v15" class="style5"/><path d="M59.5 60v15" class="style8"/><path d="M52.5 60v15" class="style4"/></g><path d="M126 22.5h21" class="style9"/><path d="M133.5 15v15m-7.5-7.5h21" class="style10"/><path d="M133.5 9v21m-7.5-7.5h21" class="style11"/><path d="M168 37.5h21" class="style12"/><path d="M175.5 30v15m-7.5-7.5h21" class="style10"/><path d="M175.5 24v21m-7.5-7.5h21" class="style13"/><path d="M147 7.5h21" class="style12"/><path d="M154.5 0v15M147 7.5h21" class="style14"/><path d="M168 52.5h21" class="style15"/><path d="M175.5 45v15m-7.5-7.5h21" class="style16"/><path d="M0 22.5h21" class="style17"/><path d="M7.5 15v15M0 22.5h21" class="style18"/><path d="M42 22.5h21" class="style17"/><path d="M52.5 15v15M42 22.5h21" class="style19"/><path d="M46 16v4m-2-2h4M59 16v4m-2-2h4M46 25v4m-2-2h4M59 25v4m-2-2h4" class="style20"/><g class="style21"><path d="M105 27.5h21" class="style5"/><path d="M105 22.5h21" class="style4"/><path d="M105 17.5h21" class="style3"/></g><g class="style21"><path d="M105 42.5h21" class="style22"/><path d="M105 37.5h21" class="style5"/><path d="M105 32.5h21" class="style23"/></g><g class="style21"><path d="M63 57.5h21" class="style22"/><path d="M63 52.5h21" class="style6"/><path d="M63 47.5h21" class="style4"/></g><g class="style21"><path d="M63 27.5h21" class="style23"/><path d="M63 22.5h21" class="style24"/><path d="M63 17.5h21" class="style25"/></g><path d="M189 27.5h21" class="style26"/><path d="M189 22.5h21" class="style10"/><path d="M189 17.5h21" class="style27"/><path d="M199.5 21c.8 0 1.5.7 1.5 1.5s-.7 1.5-1.5 1.5-1.5-.7-1.5-1.5.7-1.5 1.5-1.5" class="style24"/><path d="M126 12.5h21" class="style28"/><path d="M126 7.5h21" class="style10"/><path d="M126 2.5h21" class="style26"/><path d="M136.5 3s-.3 1-1.5 1c-1.1 0-2-.9-2-.9V8c0 3 3.5 5 3.5 5s3.5-2 3.5-5V3s-.9 1-2 1-1.5-1-1.5-1z" class="style29"/><path d="M136.5 5s-.2 1-1 1-1.5-1-1.5-1v3c0 2.1 2.5 3 2.5 3s2.5-.9 2.5-3V5s-.7 1-1.5 1-1-1-1-1z" class="style30"/><path d="M105 57.5h21" class="style26"/><path d="M105 52.5h21" class="style31"/><path d="M105 47.5h21" class="style10"/><path d="M110.5 47s-.3 1-1.5 1c-1.1 0-2-.9-2-.9V52c0 3 3.5 5 3.5 5s3.5-2 3.5-5v-5s-.9 1-2 1-1.5-1-1.5-1z" class="style29"/><path d="M110.5 49s-.2 1-1 1-1.5-1-1.5-1v3c0 2.1 2.5 3 2.5 3s2.5-.9 2.5-3v-3s-.7 1-1.5 1-1-1-1-1z" class="style30"/><path d="M126 57.5h21" class="style26"/><path d="M126 52.5h21" class="style31"/><path d="M126 47.5h21" class="style10"/><path d="M131 47.3s-.3.9-1.3.9c-.9 0-1.7-.8-1.7-.8v4.2c0 2.7 3 4.4 3 4.4s3-1.7 3-4.4v-4.3s-.8.9-1.7.9c-1 0-1.3-.9-1.3-.9z" class="style29"/><path d="M131 49s-.1.9-.8.9c-.6 0-1.2-.9-1.2-.9v2.7c0 1.8 2 2.6 2 2.6s2-.8 2-2.6V49s-.6.9-1.2.9c-.7 0-.8-.9-.8-.9z" class="style32"/><path d="M147 27.5h21" class="style27"/><path d="M147 22.5h21" class="style10"/><path d="M147 17.5h21" class="style33"/><path d="M157.5 21c.8 0 1.5.7 1.5 1.5s-.7 1.5-1.5 1.5-1.5-.7-1.5-1.5.7-1.5 1.5-1.5" class="style34"/><g class="style21"><path d="M147 42.5h21" class="style6"/><path d="M147 37.5h21" class="style4"/><path d="M147 32.5h21" class="style22"/></g><g class="style21"><path d="M189 12.5h21" class="style4"/><path d="M189 7.5h21" class="style25"/><path d="M189 2.5h21" class="style6"/></g><path d="M0 7.5h21" class="style35"/><path d="M11 8.1l1.6 1.3 1.1 2.6L11 9.4V12H9.9V9.4L7.3 12l1.3-2.6 1.3-1.3L6 9.4l2.3-1.9L6 4.1h1.3l2 2.3.6-2.3L8.3 3h4.6L11 4.1l.7 2.3 2-2.3H15l-2.3 3.4L15 9.4l-4-1.3z" class="style29"/><g transform="translate(105 1)"><path d="M0 6.5h21" class="style36"/><path d="M5.252 2.9h2.77L5.75 4.2l.67 2.8-1.904-2-1.896 2 .596-2.8-2.23-1.3h2.763L4.514.5l.738 2.4zM7.565 1.1c.312 0 .535-.2.535-.5.03-.3-.2-.6-.5-.6-.347 0-.6.3-.6.6s.3.5.6.5z" class="style37"/><circle cx="9.5" cy="2.5" r=".5" class="style37"/><circle cx="9.5" cy="5.5" r=".5" class="style37"/><circle cx="7.5" cy="7.5" r=".5" class="style37"/></g><g class="style21"><path d="M21 12.5h21" class="style7"/><path d="M21 7.5h21" class="style2"/><path d="M21 2.5h21" class="style3"/></g><path d="M0 44h21" class="style38"/><path d="M0 37.5h21" class="style39"/><path d="M0 31h21" class="style38"/><path d="M9.6 35.2l1-1.9 1 1.9h2.6l-1.3 2.4 1.3 2.5h-2.6l-1 1.8-1-1.8H7l1.3-2.5L7 35.2h2.6z" class="style6"/><path d="M84 28.5h21" class="style40"/><path d="M84 16.5h3M89 16.5h3M84 21.5h3M89 21.5h3" class="style18"/><path d="M92 19h13M92 16h13M92 22h13M84 25h21M84 28h21" class="style38"/><path d="M84 42h21" class="style41"/><path d="M84 37.5h21" class="style14"/><path d="M84 33h21" class="style41"/><path d="M147 58.5h21" class="style42"/><path d="M147 52.5h21" class="style43"/><path d="M147 46.5h21" class="style42"/><path d="M168 11.5h21" class="style44"/><path d="M168 4h21" class="style45"/><path d="M168.1 0l7.9 7.5-7.9 7V0" class="style46"/><g transform="translate(.004 45)"><path d="M0 11.5h21" class="style44"/><path d="M0 4h21" class="style47"/><path d="M-.004 0l7.937 7.5-7.937 7V0" class="style29"/><circle cx="2.5" cy="7.5" r="1.5" class="style48"/></g><path d="M168 26.5h21" class="style49"/><path d="M168 19h21" class="style50"/><path d="M21 56.5h21" class="style44"/><path d="M21 49h21" class="style45"/><path d="M0 71.5h21" class="style51"/><path d="M0 64h21" class="style52"/><path d="M42 7.5h21" class="style53"/><path d="M56 7.5c0 2-1.5 3.5-3.5 3.5S49 9.5 49 7.5 50.5 4 52.5 4 56 5.5 56 7.5z" class="style54"/><path d="M84 52.5h21" class="style53"/><path d="M90.5 55.5h8M96.5 54.5v2" class="style55"/><g transform="translate(84 48) translate(6)" class="style29"><circle cx=".5" cy=".5" r=".5"/><circle cx="2.5" cy=".5" r=".5"/><circle cx="4.5" cy=".5" r=".5"/><circle cx="6.5" cy=".5" r=".5"/><circle cx="8.5" cy=".5" r=".5"/><circle cx="1.5" cy="1.5" r=".5"/><circle cx="3.5" cy="1.5" r=".5"/><circle cx="5.5" cy="1.5" r=".5"/><circle cx="7.5" cy="1.5" r=".5"/><circle cx=".5" cy="2.5" r=".5"/><circle cx="2.5" cy="2.5" r=".5"/><circle cx="4.5" cy="2.5" r=".5"/><circle cx="6.5" cy="2.5" r=".5"/><circle cx="8.5" cy="2.5" r=".5"/><circle cx="1.5" cy="3.5" r=".5"/><circle cx="3.5" cy="3.5" r=".5"/><circle cx="5.5" cy="3.5" r=".5"/><circle cx="7.5" cy="3.5" r=".5"/><circle cx=".5" cy="4.5" r=".5"/><circle cx="2.5" cy="4.5" r=".5"/><circle cx="4.5" cy="4.5" r=".5"/><circle cx="6.5" cy="4.5" r=".5"/><circle cx="8.5" cy="4.5" r=".5"/></g><path d="M42 37.5h21" class="style17"/><path d="M56 37.5c0 2-1.5 3.5-3.5 3.5S49 39.5 49 37.5s1.5-3.5 3.5-3.5 3.5 1.5 3.5 3.5z" class="style54"/><path d="M63 37.5h21" class="style17"/><path d="M77 37.1c0 .4-.3-.9-1.4-1.1-1-.2-2 .5-2.2 1.6-.2.9-1.1 1.6-2 1.4-.9-.2-1.5-1.1-1.4-2.1.4-1.9 2.3-3.2 4.2-2.8 1.5.3 2.6 1.5 2.8 3z" class="style56"/><path d="M70 37.9c0-.4.3.9 1.4 1.1 1 .2 2-.5 2.2-1.6.2-.9 1.1-1.6 2-1.4.9.2 1.6 1.1 1.4 2.1-.4 1.9-2.3 3.2-4.2 2.8-1.5-.3-2.6-1.5-2.8-3z" class="style57"/><g class="style54"><path d="M134 30h13.01v1H134v-1zM134 32h13.01v1H134v-1zM133.994 34h13.02v1h-13.02v-1zM133.994 36h13.02v1h-13.02v-1zM126 38h21v1h-21v-1zM126 40h21v1h-21v-1zM126 42h21v1h-21v-1zM126 44h21v1h-21v-1z"/></g><g class="style29"><path d="M136.2 31H147v1h-10.8v-1zM136.2 33H147v1h-10.8v-1zM136.2 35H147v1h-10.8v-1zM126 37h21v1h-21v-1zM126 39h21v1h-21v-1zM126 41h21v1h-21v-1zM126 43h21v1h-21v-1z"/></g><path d="M126 30h8v8h-8v-8z" class="style58"/><path d="M130.216 32.4c-.337-.2-.716-.4-1.216-.4-1.1 0-2 .9-2 2 .003 1.1.9 2 2 2 .46 0 .9-.2 1.2-.4h-.2c-1.105 0-2-.7-2-1.6 0-.9.9-1.6 2-1.6h.2zM132 33c.552 0 1 .4 1 1s-.4 1-1 1c-.553 0-1-.4-1-1s.4-1 1-1" class="style37"/><g class="style54"><path d="M30.99 60h11.02v1H30.99v-1zM30.99 62h11.02v1H30.99v-1zM30.985 64h11.028v1H30.985v-1zM30.985 66h11.028v1H30.985v-1zM21 68h21v1H21v-1zM21 70h21v1H21v-1zM21 72h21v1H21v-1zM21 74h21v1H21v-1z"/></g><g class="style29"><path d="M31 61h11v1H31v-1zM31 63h11v1H31v-1zM31 65h11v1H31v-1zM21 67h21v1H21v-1zM21 69h21v1H21v-1zM21 71h21v1H21v-1zM21 73h21v1H21v-1z"/></g><path d="M21 60h11v9H21v-9z" class="style58"/><g transform="translate(21 60) translate(1 1)" class="style29"><circle cx=".5" cy=".5" r=".5"/><circle cx="2.5" cy=".5" r=".5"/><circle cx="4.5" cy=".5" r=".5"/><path d="M6.5 1c.276 0 .5-.2.5-.5S6.8 0 6.5 0c-.276 0-.5.2-.5.5s.2.5.5.5z"/><circle cx="1.5" cy="1.5" r=".5"/><circle cx="3.5" cy="1.5" r=".5"/><circle cx="5.5" cy="1.5" r=".5"/><path d="M7.5 2c.276 0 .5-.2.5-.5S7.8 1 7.5 1c-.276 0-.5.2-.5.5s.2.5.5.5z"/><circle cx=".5" cy="2.5" r=".5"/><circle cx="2.5" cy="2.5" r=".5"/><circle cx="4.5" cy="2.5" r=".5"/><circle cx="6.5" cy="2.5" r=".5"/><circle cx="1.5" cy="3.5" r=".5"/><circle cx="3.5" cy="3.5" r=".5"/><circle cx="5.5" cy="3.5" r=".5"/><circle cx="7.5" cy="3.5" r=".5"/><circle cx="1.5" cy="5.5" r=".5"/><circle cx="3.5" cy="5.5" r=".5"/><circle cx="5.5" cy="5.5" r=".5"/><circle cx="7.5" cy="5.5" r=".5"/><circle cx=".5" cy="4.5" r=".5"/><circle cx="2.5" cy="4.5" r=".5"/><circle cx="4.5" cy="4.5" r=".5"/><circle cx="6.5" cy="4.5" r=".5"/><circle cx=".5" cy="6.5" r=".5"/><circle cx="2.5" cy="6.5" r=".5"/><circle cx="4.5" cy="6.5" r=".5"/><circle cx="6.5" cy="6.5" r=".5"/><path d="M8.5 1c.276 0 .5-.2.5-.5S8.8 0 8.5 0c-.276 0-.5.2-.5.5s.2.5.5.5z"/><circle cx="8.5" cy="2.5" r=".5"/><circle cx="8.5" cy="4.5" r=".5"/><circle cx="8.5" cy="6.5" r=".5"/></g><path d="M63 7.5h21" class="style53"/><path d="M66 7.5L73.1 2l7.1 5.5-7.1 5.6L66 7.5z" class="style59"/><path d="M76.4 7.4c0 1.9-1.5 3.4-3.4 3.4s-3.4-1.5-3.4-3.4S71.1 4 73 4s3.4 1.5 3.4 3.4z" class="style57"/><path d="M76.2 9.1c.1-.2.2-.4.3-.7-.8-1.7-2.5-2.9-4.6-2.9-.8 0-1.6.2-2.3.5-.1.2-.1.4-.2.6.7-.4 1.4-.5 2.2-.5 2.1 0 3.9 1.2 4.6 3z" class="style60"/><g class="style21"><path d="M84 12.5h21" class="style24"/><path d="M84 7.5h21" class="style5"/><path d="M84 2.5h21" class="style4"/></g><path d="M189 52.5h21" class="style36"/><path d="M202.9 52l-.6.5c-.2.2-.3.5-.2.7l.2.7c.1.2 0 .3-.2.1l-.7-.4c-.2-.1-.5-.1-.6 0l-.7.5c-.1.1-.2.1-.2-.1l.2-.8c0-.3-.1-.6-.2-.7l-.6-.5c-.1-.2-.1-.3.1-.3h.8c.2 0 .4-.2.5-.4l.2-.9c.1-.2.2-.2.3 0l.3.9c0 .2.3.4.5.4h.8c.2 0 .2.1.1.3zm-2.2-2.7c-.1-.1-.3-.2-.5-.2-1.8-.6-3.7.4-4.2 2.3-.1.4-.1.8-.1 1.1 0 .4 0 .8.2 1.1.5 1.9 2.4 3 4.2 2.4.2-.1.4-.2.5-.3h.1s.1 0 .1.1v.1c-.4.4-.9.7-1.5.9-2.2.7-4.6-.6-5.3-2.9-.2-.5-.2-.9-.3-1.4 0-.4.1-.8.2-1.3.7-2.4 3-3.7 5.2-3 .6.2 1.1.5 1.5.9.1 0 .1 0 .1.1s-.1.1-.2.1z" class="style29"/><path d="M192.5 30v15" class="style49"/><path d="M203 30v15" class="style61"/><path d="M206.3 39.2c-.3.4-.6.8-1 1.2-1.6 1.4-4 1.1-5.3-.6-.3-.4-.5-.7-.6-1.1-.1-.3-.2-.7-.3-1.1-.1-2.2 1.5-4.1 3.5-4.3.6 0 1.1 0 1.5.2.1 0 .1 0 .1.1s0 .1-.1.1h-.5c-1.7.1-2.9 1.7-2.8 3.4 0 .3.1.7.2 1 .1.3.3.6.5.8 1 1.4 2.9 1.6 4.2.5.2-.1.3-.2.4-.4h.2v.2zm-.7-2.4c-.2.1-.2.4-.2.6l.2.6c.1.2 0 .3-.2.2l-.6-.4c-.1-.1-.4-.1-.5 0l-.6.5c-.2.1-.3 0-.2-.2l.1-.7c.1-.2 0-.5-.1-.6l-.5-.4c-.2-.2-.1-.3 0-.3h.7c.2 0 .4-.2.5-.4l.2-.7c.1-.2.2-.2.2 0l.3.7c0 .2.2.4.4.4h.8c.1 0 .2.1 0 .2l-.5.5z" class="style29"/></g></svg>