<svg xmlns="http://www.w3.org/2000/svg" width="14" height="14" viewBox="0 0 14 14"><path fill="#1B2124" d="M3.29 8.486c-.438-.314-.852-.47-1.238-.47-.352 0-.757.16-1.217.482s-.69.7-.69 1.135c0 .3.202.67.606 1.115.704.773 1.24 1.445 1.61 2.014.356.54.573.844.65.914s.184.137.324.197c.14.062.463.092.967.092.64 0 1.062-.062 1.267-.188.205-.127.357-.264.457-.41s.322-.64.668-1.484c.732-1.84 1.724-3.742 2.972-5.705s2.45-3.475 3.604-4.535c.24-.23.398-.4.475-.514s.113-.25.113-.41c0-.205-.065-.37-.197-.497s-.302-.19-.507-.19c-.31 0-.768.048-1.37.142s-1.024.243-1.262.448-.527.482-.87.83-.887 1.057-1.634 2.124S6.6 5.712 6.006 6.785s-1.1 2.057-1.528 2.953A4.842 4.842 0 0 0 3.29 8.486z"/></svg>