<svg baseProfile="full" xmlns="http://www.w3.org/2000/svg" height="8" width="36"><path fill="rgb( 0, 0, 0 )" d="M35.002 3.999l-.006.11c-.008.253-.04.499-.092.738h-.01c-.409 1.801-2.092 3.152-4.109 3.152-1.161 0-2.213-.448-2.974-1.172l.007-.006-.018-.016c-.748-.722-1.21-1.712-1.21-2.806 0-2.209 1.883-3.999 4.206-3.999 1.161 0 2.213.447 2.974 1.171l-.748.712c-.57-.542-1.357-.877-2.226-.877-1.739 0-3.148 1.34-3.148 2.993 0 .702.256 1.347.682 1.857l.244.256-.009.009c.569.539 1.353.872 2.22.872 1.558 0 2.848-1.078 3.1-2.49h-3.116v-1.007h4.196c.022.165.037.332.037.503zm-22.08-3.999v1.006c1.738 0 3.147 1.34 3.147 2.993 0 1.654-1.409 2.994-3.147 2.994-1.739 0-3.149-1.34-3.149-2.994h-1.058c0 2.209 1.884 4 4.207 4 2.322 0 4.205-1.791 4.205-4 0-2.208-1.883-3.999-4.205-3.999zm-5.309 2.355l-2.017 4.048c-.163.334-.457.577-.712.585h-.04c-.248-.005-.545-.25-.708-.585l-2.969-6.117h-1.167l3.175 6.539c.356.732.983 1.169 1.677 1.169h.027c.695 0 1.321-.437 1.677-1.169l2.006-4.024c.486-1.057 1.595-1.795 2.886-1.795v-1.006c-1.707 0-3.176.966-3.835 2.355zm-5.652-2.028h.09v.23h.05v-.23h.09v-.041h-.23v.041zm.263.23h.047v-.209h.001l.079.209h.041l.079-.209v.209h.048v-.271h-.07l-.076.212h-.001l-.078-.212h-.07v.271zm19.62-.557c-2.323 0-4.206 1.79-4.206 3.999s1.883 4 4.206 4c2.322 0 4.205-1.791 4.205-4s-1.883-3.999-4.205-3.999zm0 6.983c-1.733 0-3.138-1.336-3.138-2.984 0-1.647 1.405-2.983 3.138-2.983 1.732 0 3.137 1.336 3.137 2.983 0 1.648-1.405 2.984-3.137 2.984z"/></svg>