<svg xmlns="http://www.w3.org/2000/svg" width="14" height="14" viewBox="0 0 14 14"><path fill="#1B2124" d="M3.291 8.486c-.439-.314-.853-.47-1.239-.47-.352 0-.757.16-1.217.482s-.69.701-.69 1.135c0 .299.202.67.606 1.115.703.773 1.239 1.445 1.608 2.014.357.539.574.844.65.914s.185.137.325.197c.141.062.463.092.967.092.639 0 1.061-.062 1.266-.188.205-.127.357-.264.457-.41s.322-.641.668-1.484c.732-1.84 1.724-3.742 2.972-5.705s2.449-3.475 3.604-4.535c.24-.229.398-.4.475-.514s.113-.25.113-.409c0-.205-.065-.371-.197-.497s-.301-.189-.506-.189c-.311 0-.768.047-1.371.141s-1.023.243-1.261.448-.528.482-.871.831-.887 1.056-1.634 2.123-1.417 2.135-2.009 3.208-1.102 2.057-1.529 2.953a4.842 4.842 0 0 0-1.187-1.252z"/></svg>