<?xml version="1.0" standalone="no"?>
<!DOCTYPE svg PUBLIC "-//W3C//DTD SVG 1.1//EN" "http://www.w3.org/Graphics/SVG/1.1/DTD/svg11.dtd" >
<svg xmlns="http://www.w3.org/2000/svg">
<metadata>
Created by FontPrep 20130207 at Mon Sep  8 12:22:45 2014
 By Kaspar Naaber
Copyright (c) 2010 by Ryoichi Tsunekawa. All rights reserved. Cyrillic by AA
</metadata>
<defs>
<font id="9f54c7a5bc16698234c2936377fc4e8c" horiz-adv-x='1024' >
  <font-face 
    font-family="BebasNeueCyrillic"
    font-weight="400"
    font-stretch="normal"
    units-per-em="2048"
    panose-1="2 0 5 3 0 0 0 0 0 0"
    ascent="1536"
    descent="-512"
    x-height="1434"
    cap-height="1434"
    bbox="0 -207 1384.01 1743"
    underline-thickness="102"
    underline-position="-102"
    unicode-range="U+0020-0491"
  />
<missing-glyph horiz-adv-x="1024" 
 />
    <glyph glyph-name=".notdef" horiz-adv-x="1024" 
 />
    <glyph glyph-name=".null" horiz-adv-x="0" 
 />
    <glyph glyph-name="nonmarkingreturn" horiz-adv-x="681" 
 />
    <glyph glyph-name="space" unicode=" " horiz-adv-x="317" 
 />
    <glyph glyph-name="exclam" unicode="!" horiz-adv-x="389" 
d="M303 217v-217h-217v217h217zM82 1434h225v-598l-28 -519h-168l-29 519v598z" />
    <glyph glyph-name="quotedbl" unicode="&#x22;" horiz-adv-x="665" 
d="M367 1434h217l-33 -422h-154zM82 1434h217l-33 -422h-153z" />
    <glyph glyph-name="numbersign" unicode="#" horiz-adv-x="839" 
d="M332 569h133l39 375h-133zM449 410h-134l-43 -410h-184l43 410h-100l16 159h100l39 375h-102l16 160h103l35 330h184l-35 -330h133l35 330h184l-34 -330h104l-16 -160h-105l-39 -375h105l-17 -159h-104l-43 -410h-184z" />
    <glyph glyph-name="dollar" unicode="$" 
d="M283 350q1 -139 117 -139t116 139q0 76 -33 128t-82 100q-69 61 -115 97q-117 93 -177 218q-33 72 -33 176q0 296 237 350v107h185v-107q241 -51 241 -350v-45h-213v59q0 142 -112 142t-113 -142q0 -76 33 -127t82 -100q74 -63 104 -90q125 -93 189 -225q33 -72 32 -176
q0 -303 -243 -353v-104h-185v104q-243 49 -243 353v98h213v-113z" />
    <glyph glyph-name="percent" unicode="%" horiz-adv-x="1284" 
d="M780 684q0 111 56 170t161 59t161 -59t56 -170v-471q0 -111 -55 -170t-161 -59t-162 59q-55 59 -56 170v471zM1071 694q0 92 -74 90q-74 0 -73 -90v-491q0 -90 74 -90t73 90v491zM852 1434h133l-565 -1434h-133zM70 1214q0 228 217 230q105 0 161 -58t56 -172v-471
q0 -229 -217 -229q-105 0 -161 58t-56 171v471zM360 1225q0 88 -73 90q-74 0 -74 -90v-492q-1 -90 73 -90t74 90v492z" />
    <glyph glyph-name="ampersand" unicode="&#x26;" horiz-adv-x="847" 
d="M426 188q110 0 117 125v332h-86q-78 0 -113 -41t-35 -141v-133q0 -142 117 -142zM334 -16q-250 0 -250 327v146q0 111 35 187t121 114q-156 63 -156 295v26q0 353 336 355h258v-205h-254q-115 0 -115 -139v-89q0 -83 35 -117t100 -34h99v160h225v-160h59v-205h-59v-471
q0 -112 25 -174h-230q-15 34 -20 113q-59 -129 -209 -129z" />
    <glyph glyph-name="quotesingle" unicode="'" horiz-adv-x="368" 
d="M76 1434h217l-33 -422h-154z" />
    <glyph glyph-name="parenleft" unicode="(" horiz-adv-x="514" 
d="M481 1434v-185h-55q-53 1 -79 -25t-25 -104v-807q0 -77 26 -103t78 -26h55v-184h-69q-172 0 -244 70q-39 41 -53 98q-18 57 -19 145v807q0 88 19 146q14 57 53 98q71 68 244 70h69z" />
    <glyph glyph-name="parenright" unicode=")" horiz-adv-x="514" 
d="M102 1434q166 0 242 -70q74 -74 74 -244v-807q0 -170 -74 -243q-76 -70 -242 -70h-69v184h55q51 0 80 25q25 29 25 104v807q0 76 -25 105q-29 25 -80 24h-55v185h69z" />
    <glyph glyph-name="asterisk" unicode="*" 
d="M367 1096l-54 338h185l-54 -338l306 153l57 -174l-336 -57l240 -240l-148 -108l-157 303l-158 -303l-148 108l240 240l-336 57l57 174z" />
    <glyph glyph-name="plus" unicode="+" 
d="M739 516v-160h-667v160h254v164h-254v160h254v233h159v-233h254v-160h-254v-164h254z" />
    <glyph glyph-name="comma" unicode="," horiz-adv-x="380" 
d="M82 0v217h217v-194l-98 -228h-92l59 205h-86z" />
    <glyph glyph-name="hyphen" unicode="-" horiz-adv-x="552" 
d="M72 819h409v-205h-409v205z" />
    <glyph glyph-name="period" unicode="." horiz-adv-x="380" 
d="M299 217v-217h-217v217h217z" />
    <glyph glyph-name="slash" unicode="/" horiz-adv-x="780" 
d="M575 1434h195l-565 -1434h-195z" />
    <glyph glyph-name="zero" unicode="0" 
d="M63 1090q0 176 89 266q88 94 254 94t253 -94q88 -90 89 -266v-746q0 -176 -89 -266q-87 -94 -253 -94t-254 92t-89 268v746zM522 1104q0 141 -117 141t-116 -141v-774q0 -142 117 -142t116 142v774z" />
    <glyph glyph-name="one" unicode="1" 
d="M221 1253q115 0 176 54q38 33 72 127h152v-1434h-226v1094h-174v159z" />
    <glyph glyph-name="two" unicode="2" 
d="M411 1245q-116 0 -116 -141v-154h-213v140q0 174 86 266q82 94 250 94t250 -94q86 -92 86 -266q0 -115 -34 -207q-66 -178 -206 -318q-61 -68 -111 -123q-55 -70 -79 -122t-17 -115h426v-205h-651v176q0 175 115 332q70 86 108 123q49 53 109 125q114 148 114 318
q0 102 -32 138q-33 33 -85 33z" />
    <glyph glyph-name="three" unicode="3" 
d="M398 1245q-117 0 -115 -141v-92h-213v78q0 174 86 266q82 94 250 94t249 -94q86 -92 86 -266v-37q0 -229 -157 -295q159 -67 157 -301v-113q0 -174 -86 -266q-81 -94 -249 -94t-250 94q-86 92 -86 266v119h213v-133q0 -142 116 -142q53 0 85 33t32 129v113q0 100 -35 141
t-112 41h-76v205h88q135 0 135 151v80q0 96 -33 130t-85 34z" />
    <glyph glyph-name="four" unicode="4" 
d="M459 465v530l-223 -530h223zM684 1434v-969h107v-205h-107v-260h-225v260h-430v205l409 969h246z" />
    <glyph glyph-name="five" unicode="5" 
d="M490 991q254 0 253 -327v-320q0 -172 -85 -266q-84 -94 -250 -94t-252 94q-84 94 -84 266v119h213v-133q1 -140 117 -140t116 140v315q0 143 -117 141q-118 0 -116 -141v-43h-213l41 832h594v-205h-392l-18 -342q63 104 193 104z" />
    <glyph glyph-name="six" unicode="6" 
d="M526 588q0 141 -116 141t-117 -141v-258q0 -140 117 -140t116 140v258zM68 1077q0 373 339 373q171 0 256 -94t85 -266v-37h-213v51q0 141 -117 141q-57 0 -91 -36t-34 -140v-262q59 127 209 127q248 0 250 -328v-262q0 -176 -88 -268t-254 -92t-254 92t-88 268v733z" />
    <glyph glyph-name="seven" unicode="7" 
d="M743 1434v-197l-331 -1237h-226l330 1229h-448v205h675z" />
    <glyph glyph-name="eight" unicode="8" 
d="M279 1001q0 -151 127 -151q55 0 91 34t35 117v80q0 94 -36 131q-39 33 -90 33t-91 -33q-37 -37 -36 -131v-80zM279 350q-1 -96 35 -129t92 -33t90 33q33 33 36 129v133q0 84 -32 123q-37 39 -94 39t-95 -39q-33 -39 -32 -123v-133zM758 457v-113q0 -172 -89 -266
t-263 -94t-264 94t-89 266v113q0 221 140 299q-139 78 -140 288v46q0 172 89 266q90 94 264 94t263 -94t89 -266v-46q0 -211 -140 -288q140 -78 140 -299z" />
    <glyph glyph-name="nine" unicode="9" 
d="M285 846q1 -141 117 -141t116 141v258q0 139 -117 139t-116 -139v-258zM309 500q-248 0 -250 327v263q0 176 88 268t254 92t254 -92t88 -268v-734q0 -372 -344 -372q-166 0 -252 94q-84 94 -84 266v37h213v-51q0 -142 117 -142q57 0 91 36t34 141v262q-59 -127 -209 -127
z" />
    <glyph glyph-name="colon" unicode=":" horiz-adv-x="380" 
d="M299 997v-217h-217v217h217zM299 217v-217h-217v217h217z" />
    <glyph glyph-name="semicolon" unicode=";" horiz-adv-x="380" 
d="M299 997v-217h-217v217h217zM82 0v217h217v-194l-98 -228h-92l59 205h-86z" />
    <glyph glyph-name="less" unicode="&#x3c;" 
d="M61 637v160l668 245v-161l-459 -164l459 -164v-162z" />
    <glyph glyph-name="equal" unicode="=" 
d="M739 963v-160h-667v160h667zM739 631v-160h-667v160h667z" />
    <glyph glyph-name="greater" unicode="&#x3e;" 
d="M82 391v162l459 164l-459 164v161l668 -245v-160z" />
    <glyph glyph-name="question" unicode="?" horiz-adv-x="737" 
d="M453 217v-217h-217v217h217zM479 1104q-1 141 -113 141t-112 -141v-156h-213v142q0 172 82 266q86 94 250 94t248 -94t84 -261t-70 -292q-18 -37 -86 -131t-89 -150q-22 -58 -22 -116t8 -89h-200q-12 37 -13 127t50 177t77 122q68 90 101 207q18 61 18 154z" />
    <glyph glyph-name="at" unicode="@" horiz-adv-x="1411" 
d="M610 598q-14 -126 88 -135q46 -4 76 29q29 27 39 100l21 194q6 61 -21 88t-70 29q-95 4 -114 -131zM975 260q-168 0 -180 135q-63 -129 -199 -123q-111 4 -154 84q-47 78 -30 232l22 207q16 151 80 229t170 74q129 -4 168 -127l12 119h197l-62 -592q-6 -52 39 -52
q112 -1 158 304q8 111 8 183t-24 152q-20 80 -74 136q-101 122 -309 120q-267 0 -414 -204q-72 -98 -104 -240q-37 -139 -37 -313q0 -248 116 -391t361 -144q140 0 215 29q88 18 209 110l-17 -196q-104 -70 -204 -90q-98 -25 -244 -25t-268 53q-125 49 -205 148
q-156 180 -156 529q0 173 46 340t143 298q210 271 544 271q333 0 469 -177q125 -162 123 -426q0 -180 -39 -315q-86 -246 -231 -308q-72 -30 -129 -30z" />
    <glyph glyph-name="uni0401" unicode="&#x401;" horiz-adv-x="747" 
d="M655 1712v-209h-209v209h209zM328 1712v-209h-209v209h209zM307 829h309v-204h-309v-420h389v-205h-614v1434h614v-205h-389v-400z" />
    <glyph glyph-name="uni0402" unicode="&#x402;" horiz-adv-x="868" 
d="M463 207q55 1 92 27t37 110v209q0 141 -117 139q-49 0 -82 -28t-35 -89v-575h-225v1268h-133v168h496v-168h-138v-385q18 6 60 14l63 2q166 0 252 -92q84 -96 84 -268v-179q0 -209 -98 -286q-77 -74 -225 -74h-48l-20 4v205l18 -2h19z" />
    <glyph glyph-name="uni0403" unicode="&#x403;" horiz-adv-x="704" 
d="M686 1743l-221 -240h-160l148 240h233zM307 0h-225v1434h596v-205h-371v-1229z" />
    <glyph glyph-name="uni0404" unicode="&#x404;" horiz-adv-x="794" 
d="M403 1245q-118 0 -116 -141v-275h309v-204h-309v-295q1 -140 117 -140t116 140v205h213v-191q0 -174 -86 -266q-82 -94 -250 -94t-250 94q-86 92 -86 266v746q0 174 86 266q82 94 250 94t250 -94q86 -92 86 -266v-140h-213v154q0 78 -33 108q-31 33 -84 33z" />
    <glyph glyph-name="uni0405" unicode="&#x405;" horiz-adv-x="765" 
d="M377 190q117 0 117 140q0 118 -108 229q-40 41 -112 109q-129 109 -188 243q-33 75 -33 179q0 172 82 266q86 94 250 94t248 -94t84 -266v-56h-213v70q0 141 -113 141t-112 -141q0 -76 41 -145t180 -193q133 -122 186 -244q33 -74 33 -178q0 -172 -85 -266t-251 -94
t-252 94q-84 94 -84 266v98h213v-112q0 -140 117 -140z" />
    <glyph glyph-name="uni0406" unicode="&#x406;" horiz-adv-x="389" 
d="M82 1434h225v-1434h-225v1434z" />
    <glyph glyph-name="uni0407" unicode="&#x407;" horiz-adv-x="536" 
d="M537 1712v-209h-209v209h209zM209 1712v-209h-209v209h209zM156 1434h225v-1434h-225v1434z" />
    <glyph glyph-name="uni0408" unicode="&#x408;" horiz-adv-x="524" 
d="M59 203h39q55 1 92 27t37 110v1094h226v-1078q0 -208 -99 -286q-77 -74 -225 -74h-55q-16 0 -54 4v205q12 -2 39 -2z" />
    <glyph glyph-name="uni0409" unicode="&#x409;" horiz-adv-x="1435" 
d="M1049 205q53 1 81 29t29 106v215q0 78 -29 107t-81 28h-107v-485h107zM1384 354q0 -354 -335 -354h-332v1229h-262v-873q0 -208 -99 -286q-81 -74 -225 -74h-55q-16 0 -53 4v205q12 -2 38 -2h39q53 0 93 26q37 29 36 111v1094h713v-539h107q337 0 335 -354v-187z" />
    <glyph glyph-name="uni040A" unicode="&#x40a;" horiz-adv-x="1286" 
d="M899 205q53 1 82 29t29 106v215q0 78 -29 107t-82 28h-106v-485h106zM1235 354q0 -354 -336 -354h-336v688h-256v-688h-225v1434h225v-541h256v541h230v-539h106q336 0 336 -354v-187z" />
    <glyph glyph-name="uni040B" unicode="&#x40b;" horiz-adv-x="868" 
d="M358 0h-225v1268h-133v168h496v-168h-138v-385q18 6 60 14l63 2q166 0 252 -92q84 -96 84 -268v-539h-225v553q0 141 -117 139q-110 0 -117 -123v-569z" />
    <glyph glyph-name="uni040C" unicode="&#x40c;" horiz-adv-x="847" 
d="M686 1743l-221 -240h-160l148 240h233zM307 0h-225v1434h225v-625l299 625h221l-313 -639l313 -795h-231l-219 571l-70 -131v-440z" />
    <glyph glyph-name="uni040E" unicode="&#x40e;" horiz-adv-x="964" 
d="M737 1681v-168h-495v168h495zM193 203h38q56 0 93 28q18 18 24 48q10 25 10 77l-327 1078h225l248 -840l205 840h225l-295 -1057q-71 -264 -164 -340q-51 -35 -107 -38t-106 -3h-55q-16 0 -53 4v205q12 -2 39 -2z" />
    <glyph glyph-name="uni040F" unicode="&#x40f;" horiz-adv-x="874" 
d="M322 0h-240v1434h225v-1229h256v1229h230v-1434h-242v-164h-229v164z" />
    <glyph glyph-name="uni0410" unicode="&#x410;" horiz-adv-x="829" 
d="M295 455h217l-109 725zM809 0h-227l-39 260h-277l-39 -260h-207l230 1434h330z" />
    <glyph glyph-name="uni0411" unicode="&#x411;" horiz-adv-x="800" 
d="M414 205q53 1 82 29t28 106v215q0 78 -28 107q-29 29 -82 28h-107v-485h107zM750 354q0 -354 -336 -354h-332v1434h596v-205h-371v-334h107q336 0 336 -354v-187z" />
    <glyph glyph-name="uni0412" unicode="&#x412;" horiz-adv-x="829" 
d="M307 1229v-379h88q66 0 101 34t34 117v80q0 76 -26 113q-31 35 -88 35h-109zM307 645v-440h129q57 0 88 31q29 33 29 110v125q0 98 -33 137q-37 37 -112 37h-101zM756 1053q0 -228 -146 -289q90 -33 131 -113q37 -80 37 -194v-117q0 -164 -86 -252t-256 -88h-354v1434
h340q178 0 256 -82t78 -248v-51z" />
    <glyph glyph-name="uni0413" unicode="&#x413;" horiz-adv-x="698" 
d="M307 0h-225v1434h596v-205h-371v-1229z" />
    <glyph glyph-name="uni0414" unicode="&#x414;" horiz-adv-x="1044" 
d="M432 356q0 -90 -18 -151h280v1024h-262v-873zM39 203h39q55 1 92 27t37 110v1094h713v-1229h114v-369h-229v164h-576v-164h-229v369q12 -2 39 -2z" />
    <glyph glyph-name="uni0415" unicode="&#x415;" horiz-adv-x="747" 
d="M307 829h309v-204h-309v-420h389v-205h-614v1434h614v-205h-389v-400z" />
    <glyph glyph-name="uni0416" unicode="&#x416;" horiz-adv-x="1304" 
d="M539 1434h227v-621l297 621h221l-313 -639l313 -795h-231l-219 571l-68 -127v-444h-227v444l-68 127l-219 -571h-232l314 795l-314 639h222l297 -621v621z" />
    <glyph glyph-name="uni0417" unicode="&#x417;" horiz-adv-x="794" 
d="M274 330q0 -142 117 -142q53 0 85 33t32 129v113q0 100 -35 141t-113 41h-34v205h47q135 0 135 151v80q0 96 -33 130t-85 34q-116 0 -116 -141v-154h-213v140q0 174 86 266q82 94 250 94t250 -94q86 -92 86 -266v-37q0 -229 -158 -295q158 -66 158 -301v-113
q0 -174 -86 -266q-82 -94 -250 -94t-250 94q-86 92 -86 266v180h213v-194z" />
    <glyph glyph-name="uni0418" unicode="&#x418;" horiz-adv-x="878" 
d="M82 0v1434h201v-859l231 859h283v-1434h-203v1038l-281 -1038h-231z" />
    <glyph glyph-name="uni0419" unicode="&#x419;" horiz-adv-x="878" 
d="M690 1681v-168h-495v168h495zM82 0v1434h201v-859l231 859h283v-1434h-203v1038l-281 -1038h-231z" />
    <glyph glyph-name="uni041A" unicode="&#x41a;" horiz-adv-x="847" 
d="M307 0h-225v1434h225v-625l299 625h221l-313 -639l313 -795h-231l-219 571l-70 -131v-440z" />
    <glyph glyph-name="uni041B" unicode="&#x41b;" horiz-adv-x="1021" 
d="M715 1229h-262v-873q0 -208 -99 -286q-77 -74 -225 -74h-55q-16 0 -54 4v205q12 -2 39 -2h39q55 1 92 27t37 110v1094h713v-1434h-225v1229z" />
    <glyph glyph-name="uni041C" unicode="&#x41c;" horiz-adv-x="1110" 
d="M1028 1434v-1434h-213v1028l-156 -1028h-213l-167 1014v-1014h-197v1434h313l166 -1018l154 1018h313z" />
    <glyph glyph-name="uni041D" unicode="&#x41d;" horiz-adv-x="874" 
d="M307 0h-225v1434h225v-615h256v615h230v-1434h-230v614h-256v-614z" />
    <glyph glyph-name="uni041E" unicode="&#x41e;" horiz-adv-x="806" 
d="M61 1090q0 176 89 266q88 94 254 94t253 -92q88 -92 88 -268v-746q0 -176 -88 -268t-254 -92t-253 94q-88 90 -89 266v746zM403 1245q-118 0 -116 -141v-774q1 -142 117 -142t116 142v774q0 78 -33 108q-31 33 -84 33z" />
    <glyph glyph-name="uni041F" unicode="&#x41f;" horiz-adv-x="874" 
d="M307 0h-225v1434h711v-1434h-230v1229h-256v-1229z" />
    <glyph glyph-name="uni0420" unicode="&#x420;" horiz-adv-x="770" 
d="M307 1229v-486h107q53 0 82 29t28 107v215q0 78 -28 106t-82 29h-107zM750 893q0 -354 -336 -354h-107v-539h-225v1434h332q336 0 336 -355v-186z" />
    <glyph glyph-name="uni0421" unicode="&#x421;" horiz-adv-x="794" 
d="M403 1245q-118 0 -116 -141v-774q1 -140 117 -140t116 140v205h213v-191q0 -174 -86 -266q-82 -94 -250 -94t-250 94q-86 92 -86 266v746q0 174 86 266q82 94 250 94t250 -94q86 -92 86 -266v-140h-213v154q0 78 -33 108q-31 33 -84 33z" />
    <glyph glyph-name="uni0422" unicode="&#x422;" horiz-adv-x="737" 
d="M20 1434h697v-205h-236v-1229h-225v1229h-236v205z" />
    <glyph glyph-name="uni0423" unicode="&#x423;" horiz-adv-x="944" 
d="M182 203h39q62 0 90 28q14 12 29 48q8 41 8 77l-328 1078h226l248 -840l204 840h226l-295 -1057q-43 -160 -80 -225q-35 -76 -84 -115q-51 -35 -111 -38t-102 -3h-55q-16 0 -54 4v205q12 -2 39 -2z" />
    <glyph glyph-name="uni0424" unicode="&#x424;" horiz-adv-x="1171" 
d="M367 1147q-53 0 -82 -29t-29 -106v-420q0 -78 29 -107t82 -28h106v690h-106zM698 1147v-690h107q53 1 82 29t28 106v420q-1 78 -29 106t-81 29h-107zM1141 606q0 -354 -336 -354h-107v-252h-225v252h-106q-336 0 -336 354v391q0 355 336 355h106v82h225v-82h107
q336 0 336 -355v-391z" />
    <glyph glyph-name="uni0425" unicode="&#x425;" horiz-adv-x="880" 
d="M834 1434l-236 -697l252 -737h-238l-184 567l-186 -567h-211l252 737l-236 697h234l170 -529l174 529h209z" />
    <glyph glyph-name="uni0426" unicode="&#x426;" horiz-adv-x="907" 
d="M307 205h256v1229h230v-1229h114v-369h-229v164h-596v1434h225v-1229z" />
    <glyph glyph-name="uni0427" unicode="&#x427;" horiz-adv-x="796" 
d="M31 895v539h225v-553q0 -140 117 -140q111 0 116 123v570h226v-1434h-226v551q-18 -6 -59 -14l-63 -2q-166 0 -252 92q-84 96 -84 268z" />
    <glyph glyph-name="uni0428" unicode="&#x428;" horiz-adv-x="1206" 
d="M715 205h182v1229h227v-1434h-1042v1434h223v-1229h184v1229h226v-1229z" />
    <glyph glyph-name="uni0429" unicode="&#x429;" horiz-adv-x="1241" 
d="M82 1434h223v-1229h184v1229h226v-1229h182v1229h227v-1229h117v-369h-229v164h-930v1434z" />
    <glyph glyph-name="uni042A" unicode="&#x42a;" horiz-adv-x="872" 
d="M412 690v-485h104q53 1 82 29t29 106v215q0 78 -29 107t-82 28h-104zM852 354q0 -354 -336 -354h-332v1229h-184v205h412v-539h104q336 0 336 -354v-187z" />
    <glyph glyph-name="uni042B" unicode="&#x42b;" horiz-adv-x="1167" 
d="M860 1434h225v-1434h-225v1434zM750 354q0 -354 -336 -354h-332v1434h225v-539h107q336 0 336 -354v-187zM414 205q53 1 82 29t28 106v215q0 78 -28 107q-29 29 -82 28h-107v-485h107z" />
    <glyph glyph-name="uni042C" unicode="&#x42c;" horiz-adv-x="770" 
d="M750 354q0 -354 -336 -354h-332v1434h225v-539h107q336 0 336 -354v-187zM414 205q53 1 82 29t28 106v215q0 78 -28 107q-29 29 -82 28h-107v-485h107z" />
    <glyph glyph-name="uni042D" unicode="&#x42d;" horiz-adv-x="794" 
d="M391 1245q-117 0 -117 -141v-154h-213v140q0 174 86 266q82 94 250 94t250 -94q86 -92 86 -266v-746q0 -174 -86 -266q-82 -94 -250 -94t-250 94q-86 92 -86 266v191h213v-205q0 -140 117 -140t117 140v295h-309v204h309v275q0 78 -33 108q-31 33 -84 33z" />
    <glyph glyph-name="uni042E" unicode="&#x42e;" horiz-adv-x="1187" 
d="M784 1245q-118 0 -116 -141v-774q0 -142 116 -142t117 142v774q0 78 -33 108q-31 33 -84 33zM307 0h-225v1434h225v-615h135v271q0 176 88 268t254 92t254 -92t88 -268v-746q0 -176 -88 -268t-254 -92t-254 92t-88 268v270h-135v-614z" />
    <glyph glyph-name="uni042F" unicode="&#x42f;" horiz-adv-x="823" 
d="M66 395q0 117 32 191q31 82 117 114q-147 70 -147 291v113q0 166 78 248t255 82h340v-1434h-225v584h-78q-78 0 -112 -41t-35 -142v-297q-6 -51 -12 -77l-9 -27h-229q22 58 25 174v221zM408 1229q-57 0 -89 -35q-27 -37 -26 -113v-141q0 -84 35 -118t100 -34h88v441h-108
z" />
    <glyph glyph-name="uni0430" unicode="&#x430;" horiz-adv-x="829" 
d="M295 455h217l-109 725zM809 0h-227l-39 260h-277l-39 -260h-207l230 1434h330z" />
    <glyph glyph-name="uni0431" unicode="&#x431;" horiz-adv-x="800" 
d="M414 205q53 1 82 29t28 106v215q0 78 -28 107q-29 29 -82 28h-107v-485h107zM750 354q0 -354 -336 -354h-332v1434h596v-205h-371v-334h107q336 0 336 -354v-187z" />
    <glyph glyph-name="uni0432" unicode="&#x432;" horiz-adv-x="829" 
d="M307 1229v-379h88q66 0 101 34t34 117v80q0 76 -26 113q-31 35 -88 35h-109zM307 645v-440h129q57 0 88 31q29 33 29 110v125q0 98 -33 137q-37 37 -112 37h-101zM756 1053q0 -228 -146 -289q90 -33 131 -113q37 -80 37 -194v-117q0 -164 -86 -252t-256 -88h-354v1434
h340q178 0 256 -82t78 -248v-51z" />
    <glyph glyph-name="uni0433" unicode="&#x433;" horiz-adv-x="698" 
d="M307 0h-225v1434h596v-205h-371v-1229z" />
    <glyph glyph-name="uni0434" unicode="&#x434;" horiz-adv-x="1044" 
d="M432 356q0 -90 -18 -151h280v1024h-262v-873zM39 203h39q55 1 92 27t37 110v1094h713v-1229h114v-369h-229v164h-576v-164h-229v369q12 -2 39 -2z" />
    <glyph glyph-name="uni0435" unicode="&#x435;" horiz-adv-x="747" 
d="M307 829h309v-204h-309v-420h389v-205h-614v1434h614v-205h-389v-400z" />
    <glyph glyph-name="uni0436" unicode="&#x436;" horiz-adv-x="1304" 
d="M539 1434h227v-621l297 621h221l-313 -639l313 -795h-231l-219 571l-68 -127v-444h-227v444l-68 127l-219 -571h-232l314 795l-314 639h222l297 -621v621z" />
    <glyph glyph-name="uni0437" unicode="&#x437;" horiz-adv-x="794" 
d="M274 330q0 -142 117 -142q53 0 85 33t32 129v113q0 100 -35 141t-113 41h-34v205h47q135 0 135 151v80q0 96 -33 130t-85 34q-116 0 -116 -141v-154h-213v140q0 174 86 266q82 94 250 94t250 -94q86 -92 86 -266v-37q0 -229 -158 -295q158 -66 158 -301v-113
q0 -174 -86 -266q-82 -94 -250 -94t-250 94q-86 92 -86 266v180h213v-194z" />
    <glyph glyph-name="uni0438" unicode="&#x438;" horiz-adv-x="878" 
d="M82 0v1434h201v-859l231 859h283v-1434h-203v1038l-281 -1038h-231z" />
    <glyph glyph-name="uni0439" unicode="&#x439;" horiz-adv-x="878" 
d="M690 1681v-168h-495v168h495zM82 0v1434h201v-859l231 859h283v-1434h-203v1038l-281 -1038h-231z" />
    <glyph glyph-name="uni043A" unicode="&#x43a;" horiz-adv-x="847" 
d="M307 0h-225v1434h225v-625l299 625h221l-313 -639l313 -795h-231l-219 571l-70 -131v-440z" />
    <glyph glyph-name="uni043B" unicode="&#x43b;" horiz-adv-x="1021" 
d="M715 1229h-262v-873q0 -208 -99 -286q-77 -74 -225 -74h-55q-16 0 -54 4v205q12 -2 39 -2h39q55 1 92 27t37 110v1094h713v-1434h-225v1229z" />
    <glyph glyph-name="uni043C" unicode="&#x43c;" horiz-adv-x="1110" 
d="M1028 1434v-1434h-213v1028l-156 -1028h-213l-167 1014v-1014h-197v1434h313l166 -1018l154 1018h313z" />
    <glyph glyph-name="uni043D" unicode="&#x43d;" horiz-adv-x="874" 
d="M307 0h-225v1434h225v-615h256v615h230v-1434h-230v614h-256v-614z" />
    <glyph glyph-name="uni043E" unicode="&#x43e;" horiz-adv-x="806" 
d="M61 1090q0 176 89 266q88 94 254 94t253 -92q88 -92 88 -268v-746q0 -176 -88 -268t-254 -92t-253 94q-88 90 -89 266v746zM403 1245q-118 0 -116 -141v-774q1 -142 117 -142t116 142v774q0 78 -33 108q-31 33 -84 33z" />
    <glyph glyph-name="uni043F" unicode="&#x43f;" horiz-adv-x="874" 
d="M307 0h-225v1434h711v-1434h-230v1229h-256v-1229z" />
    <glyph glyph-name="uni0440" unicode="&#x440;" horiz-adv-x="770" 
d="M307 1229v-486h107q53 0 82 29t28 107v215q0 78 -28 106t-82 29h-107zM750 893q0 -354 -336 -354h-107v-539h-225v1434h332q336 0 336 -355v-186z" />
    <glyph glyph-name="uni0441" unicode="&#x441;" horiz-adv-x="794" 
d="M403 1245q-118 0 -116 -141v-774q1 -140 117 -140t116 140v205h213v-191q0 -174 -86 -266q-82 -94 -250 -94t-250 94q-86 92 -86 266v746q0 174 86 266q82 94 250 94t250 -94q86 -92 86 -266v-140h-213v154q0 78 -33 108q-31 33 -84 33z" />
    <glyph glyph-name="uni0442" unicode="&#x442;" horiz-adv-x="737" 
d="M20 1434h697v-205h-236v-1229h-225v1229h-236v205z" />
    <glyph glyph-name="uni0443" unicode="&#x443;" horiz-adv-x="944" 
d="M182 203h39q62 0 90 28q14 12 29 48q8 41 8 77l-328 1078h226l248 -840l204 840h226l-295 -1057q-43 -160 -80 -225q-35 -76 -84 -115q-51 -35 -111 -38t-102 -3h-55q-16 0 -54 4v205q12 -2 39 -2z" />
    <glyph glyph-name="uni0444" unicode="&#x444;" horiz-adv-x="1171" 
d="M367 1147q-53 0 -82 -29t-29 -106v-420q0 -78 29 -107t82 -28h106v690h-106zM698 1147v-690h107q53 1 82 29t28 106v420q-1 78 -29 106t-81 29h-107zM1141 606q0 -354 -336 -354h-107v-252h-225v252h-106q-336 0 -336 354v391q0 355 336 355h106v82h225v-82h107
q336 0 336 -355v-391z" />
    <glyph glyph-name="uni0445" unicode="&#x445;" horiz-adv-x="880" 
d="M834 1434l-236 -697l252 -737h-238l-184 567l-186 -567h-211l252 737l-236 697h234l170 -529l174 529h209z" />
    <glyph glyph-name="uni0446" unicode="&#x446;" horiz-adv-x="907" 
d="M307 205h256v1229h230v-1229h114v-369h-229v164h-596v1434h225v-1229z" />
    <glyph glyph-name="uni0447" unicode="&#x447;" horiz-adv-x="796" 
d="M31 895v539h225v-553q0 -140 117 -140q111 0 116 123v570h226v-1434h-226v551q-18 -6 -59 -14l-63 -2q-166 0 -252 92q-84 96 -84 268z" />
    <glyph glyph-name="uni0448" unicode="&#x448;" horiz-adv-x="1206" 
d="M715 205h182v1229h227v-1434h-1042v1434h223v-1229h184v1229h226v-1229z" />
    <glyph glyph-name="uni0449" unicode="&#x449;" horiz-adv-x="1241" 
d="M82 1434h223v-1229h184v1229h226v-1229h182v1229h227v-1229h117v-369h-229v164h-930v1434z" />
    <glyph glyph-name="uni044A" unicode="&#x44a;" horiz-adv-x="872" 
d="M412 690v-485h104q53 1 82 29t29 106v215q0 78 -29 107t-82 28h-104zM852 354q0 -354 -336 -354h-332v1229h-184v205h412v-539h104q336 0 336 -354v-187z" />
    <glyph glyph-name="uni044B" unicode="&#x44b;" horiz-adv-x="1167" 
d="M860 1434h225v-1434h-225v1434zM750 354q0 -354 -336 -354h-332v1434h225v-539h107q336 0 336 -354v-187zM414 205q53 1 82 29t28 106v215q0 78 -28 107q-29 29 -82 28h-107v-485h107z" />
    <glyph glyph-name="uni044C" unicode="&#x44c;" horiz-adv-x="770" 
d="M750 354q0 -354 -336 -354h-332v1434h225v-539h107q336 0 336 -354v-187zM414 205q53 1 82 29t28 106v215q0 78 -28 107q-29 29 -82 28h-107v-485h107z" />
    <glyph glyph-name="uni044D" unicode="&#x44d;" horiz-adv-x="794" 
d="M391 1245q-117 0 -117 -141v-154h-213v140q0 174 86 266q82 94 250 94t250 -94q86 -92 86 -266v-746q0 -174 -86 -266q-82 -94 -250 -94t-250 94q-86 92 -86 266v191h213v-205q0 -140 117 -140t117 140v295h-309v204h309v275q0 78 -33 108q-31 33 -84 33z" />
    <glyph glyph-name="uni044E" unicode="&#x44e;" horiz-adv-x="1187" 
d="M784 1245q-118 0 -116 -141v-774q0 -142 116 -142t117 142v774q0 78 -33 108q-31 33 -84 33zM307 0h-225v1434h225v-615h135v271q0 176 88 268t254 92t254 -92t88 -268v-746q0 -176 -88 -268t-254 -92t-254 92t-88 268v270h-135v-614z" />
    <glyph glyph-name="uni044F" unicode="&#x44f;" horiz-adv-x="823" 
d="M66 395q0 117 32 191q31 82 117 114q-147 70 -147 291v113q0 166 78 248t255 82h340v-1434h-225v584h-78q-78 0 -112 -41t-35 -142v-297q-6 -51 -12 -77l-9 -27h-229q22 58 25 174v221zM408 1229q-57 0 -89 -35q-27 -37 -26 -113v-141q0 -84 35 -118t100 -34h88v441h-108
z" />
    <glyph glyph-name="uni0451" unicode="&#x451;" horiz-adv-x="747" 
d="M655 1712v-209h-209v209h209zM328 1712v-209h-209v209h209zM307 829h309v-204h-309v-420h389v-205h-614v1434h614v-205h-389v-400z" />
    <glyph glyph-name="uni0452" unicode="&#x452;" horiz-adv-x="868" 
d="M817 539v-385q0 -202 -98 -289q-86 -70 -225 -72h-35q-13 0 -33 4v205l18 -2h19q55 0 92 27t37 110v416q0 141 -117 139q-49 0 -82 -28t-35 -89v-575h-225v1145h-133v168h133v123h225v-123h138v-168h-138v-262q18 6 60 14l63 2q166 0 252 -92q84 -96 84 -268z" />
    <glyph glyph-name="uni0453" unicode="&#x453;" horiz-adv-x="704" 
d="M686 1743l-221 -240h-160l148 240h233zM307 0h-225v1434h596v-205h-371v-1229z" />
    <glyph glyph-name="uni0454" unicode="&#x454;" horiz-adv-x="794" 
d="M403 1245q-118 0 -116 -141v-275h309v-204h-309v-295q1 -140 117 -140t116 140v205h213v-191q0 -174 -86 -266q-82 -94 -250 -94t-250 94q-86 92 -86 266v746q0 174 86 266q82 94 250 94t250 -94q86 -92 86 -266v-140h-213v154q0 78 -33 108q-31 33 -84 33z" />
    <glyph glyph-name="uni0455" unicode="&#x455;" horiz-adv-x="765" 
d="M377 190q117 0 117 140q0 118 -108 229q-40 41 -112 109q-129 109 -188 243q-33 75 -33 179q0 172 82 266q86 94 250 94t248 -94t84 -266v-56h-213v70q0 141 -113 141t-112 -141q0 -76 41 -145t180 -193q133 -122 186 -244q33 -74 33 -178q0 -172 -85 -266t-251 -94
t-252 94q-84 94 -84 266v98h213v-112q0 -140 117 -140z" />
    <glyph glyph-name="uni0456" unicode="&#x456;" horiz-adv-x="389" 
d="M82 1434h225v-1434h-225v1434z" />
    <glyph glyph-name="uni0457" unicode="&#x457;" horiz-adv-x="536" 
d="M537 1712v-209h-209v209h209zM209 1712v-209h-209v209h209zM156 1434h225v-1434h-225v1434z" />
    <glyph glyph-name="uni0458" unicode="&#x458;" horiz-adv-x="524" 
d="M59 203h39q55 1 92 27t37 110v1094h226v-1078q0 -208 -99 -286q-77 -74 -225 -74h-55q-16 0 -54 4v205q12 -2 39 -2z" />
    <glyph glyph-name="uni0459" unicode="&#x459;" horiz-adv-x="1402" 
d="M1047 205q53 1 81 29t29 106v215q0 78 -29 107t-81 28h-107v-485h107zM1382 354q0 -354 -335 -354h-332v1229h-262v-873q0 -208 -99 -286q-77 -74 -225 -74h-55q-16 0 -54 4v205q12 -2 39 -2h39q55 1 92 27t37 110v1094h713v-539h107q335 0 335 -354v-187z" />
    <glyph glyph-name="uni045A" unicode="&#x45a;" horiz-adv-x="1286" 
d="M899 205q53 1 82 29t29 106v215q0 78 -29 107t-82 28h-106v-485h106zM1235 354q0 -354 -336 -354h-336v688h-256v-688h-225v1434h225v-541h256v541h230v-539h106q336 0 336 -354v-187z" />
    <glyph glyph-name="uni045B" unicode="&#x45b;" horiz-adv-x="868" 
d="M592 553q0 141 -117 139q-49 0 -82 -28t-35 -89v-575h-225v1145h-133v168h133v123h225v-123h138v-168h-138v-262q18 6 60 14l63 2q166 0 252 -92q84 -96 84 -268v-539h-225v553z" />
    <glyph glyph-name="uni045C" unicode="&#x45c;" horiz-adv-x="847" 
d="M686 1743l-221 -240h-160l148 240h233zM307 0h-225v1434h225v-625l299 625h221l-313 -639l313 -795h-231l-219 571l-70 -131v-440z" />
    <glyph glyph-name="uni045E" unicode="&#x45e;" horiz-adv-x="964" 
d="M737 1681v-168h-495v168h495zM193 203h38q56 0 93 28q18 18 24 48q10 25 10 77l-327 1078h225l248 -840l205 840h225l-295 -1057q-71 -264 -164 -340q-51 -35 -107 -38t-106 -3h-55q-16 0 -53 4v205q12 -2 39 -2z" />
    <glyph glyph-name="uni045F" unicode="&#x45f;" horiz-adv-x="874" 
d="M322 0h-240v1434h225v-1229h256v1229h230v-1434h-242v-164h-229v164z" />
    <glyph glyph-name="uni0490" unicode="&#x490;" horiz-adv-x="698" 
d="M307 0h-225v1434h367v163h229v-368h-371v-1229z" />
    <glyph glyph-name="uni0491" unicode="&#x491;" horiz-adv-x="698" 
d="M307 0h-225v1434h367v163h229v-368h-371v-1229z" />
  </font>
</defs>
</svg>
