<svg xmlns="http://www.w3.org/2000/svg" xmlns:xlink="http://www.w3.org/1999/xlink" width="210px" height="75px" viewBox="0 0 210 75" version="1.1"><style>.s0{fill:	none;fill-rule:	evenodd;}.s1{stroke-width:	7;}.s10{stroke:	#DC515E;stroke-width:	6;}.s11{stroke:	#FFFFFF;stroke-width:	9;}.s12{fill:	#DC515E;}.s13{stroke:	#425091;stroke-width:	15;}.s14{stroke:	#FFFFFF;stroke-width:	5;}.s15{stroke:	#DD505E;stroke-width:	3;}.s16{stroke:	#DC505E;stroke-width:	15;}.s17{stroke:	#425091;stroke-width:	3;}.s18{stroke:	#FFFFFF;stroke-width:	3;}.s19{stroke:	#4A89DC;stroke-width:	15;}.s2{stroke:	#425091;}.s20{stroke:	#FFCE54;stroke-width:	3;}.s21{stroke:	#FFFFFF;stroke-width:	15;}.s22{stroke:	#4A89DC;stroke-width:	3;}.s23{stroke:	#DC515E;stroke-width:	3;}.s24{stroke:	#DC515E;stroke-width:	2;}.s25{stroke-width:	5;}.s26{stroke:	#DC505E;}.s27{stroke:	#FFCE54;}.s28{stroke:	#DC515E;}.s29{stroke:	#DC515E;stroke-width:	5;}.s3{stroke:	#DD505E;}.s30{stroke:	#509F5D;stroke-width:	5;}.s31{stroke:	#425091;stroke-width:	5;}.s32{fill:	#FFFFFF;}.s33{fill:	#DD505E;}.s34{stroke:	#425191;stroke-width:	5;}.s35{fill:	#425191;}.s36{fill:	#FACA5A;}.s37{stroke:	#DC9551;stroke-width:	5;}.s38{stroke:	#425191;}.s39{stroke:	#DD505E;stroke-width:	15;}.s4{stroke:	#FFFFFF;}.s40{stroke:	#DC515E;stroke-width:	15;}.s41{fill:	#FFCE54;}.s42{stroke:	#4A89DC;stroke-width:	2;}.s43{stroke:	#FFFFFF;stroke-width:	11;}.s44{stroke:	#FFFFFF;stroke-width:	27;}.s45{stroke:	#B42B39;stroke-width:	6;}.s46{stroke:	#DC505E;stroke-width:	3;}.s47{stroke:	#FACA5A;stroke-width:	9;}.s48{stroke:	#DC505E;stroke-width:	7;}.s49{stroke:	#FFFFFF;stroke-width:	8;}.s5{stroke:	#000000;}.s50{fill:	#434F91;}.s51{stroke:	#434F91;stroke-width:	8;}.s52{stroke:	#FFFFFF;stroke-width:	7;}.s53{stroke:	#DC505E;stroke-width:	8;}.s54{stroke:	#FACA5A;stroke-width:	7;}.s55{stroke:	#4A89DC;stroke-width:	8;}.s56{stroke:	#509F5D;stroke-width:	15;}.s57{fill:	#DC505E;}.s58{stroke:	#FFFFFF;stroke-linecap:	square;}.s59{fill:	#4758A9;}.s6{stroke:	#FACA5A;}.s60{fill:	white;}.s61{stroke:	#FFFFFF;stroke-width:	3;mask:	url(#mask-2);}.s62{stroke:	#DC515E;mask:	url(#mask-4);}.s63{stroke:	#FFFFFF;stroke-width:	2;mask:	url(#mask-6);}.s64{stroke:	#DC515E;mask:	url(#mask-8);}.s65{fill:	#3C497D;}.s66{fill:	#F6D660;}.s67{fill:	#F5F7FA;}.s68{stroke:	#509F5D;stroke-width:	14;}.s69{stroke:	#509F5D;stroke-width:	7;}.s7{stroke:	#509F5D;}.s70{stroke:	#DC515E;stroke-width:	14;}.s71{stroke:	#FFCE54;fill:	#DC515E;}.s72{stroke:	#C9C9C9;stroke-width:	15;}.s8{stroke:	#4A89DC;}.s9{stroke:	#DC9551;}</style><title>Voog flags</title><desc>Size 21 x 15 px</desc><defs><rect x="0" y="0" width="21" height="15"/><rect x="0" y="0" width="21" height="15"/><rect x="0" y="0" width="9.1" height="7"/><rect x="0" y="0" width="9.1" height="7"/></defs><g class="s0"><g><g class="s1"><path d="M24.5 15 L24.5 30 " class="s2"/><path d="M38.5 15 L38.5 30 " class="s3"/><path d="M31.5 15 L31.5 30 " class="s4"/></g><g class="s1"><path d="M150.5 60 L150.5 75 " class="s5"/><path d="M164.5 60 L164.5 75 " class="s3"/><path d="M157.5 60 L157.5 75 " class="s6"/></g><g class="s1"><path d="M24.5 30 L24.5 45 " class="s7"/><path d="M38.5 30 L38.5 45 " class="s3"/><path d="M31.5 30 L31.5 45 " class="s4"/></g><g class="s1"><path d="M45.5 45 L45.5 60 " class="s8"/><path d="M59.5 45 L59.5 60 " class="s3"/><path d="M52.5 45 L52.5 60 " class="s6"/></g><g class="s1"><path d="M45.5 60 L45.5 75 " class="s7"/><path d="M59.5 60 L59.5 75 " class="s9"/><path d="M52.5 60 L52.5 75 " class="s4"/></g><g transform="translate(107.001953, 60.000000)"><path d="M0.998046875 0 L0.998046875 15" class="s10"/><path d="M8.5 0 L8.5 15" class="s11"/><path d="M15.9980469 0 L15.9980469 15" class="s10"/><polygon points="12,6.7 13,6.5 12.5,7.5 13,8 10.7,8.7 11,10 8.7,10 9,12 8,12 8.3,10 6,10 6.3,8.7 4,8 4.5,7.5 4,6.5 5,6.7 5,6 7,7 7.5,6 7,4 8,5 8.5,4 9,5 10,4 9.5,6 10,7 12,6" class="s12"/></g><g><path d="M126 22.5 L147 22.5 " class="s13"/><path d="M133.5 15 L133.5 30 M126 22.5 L147 22.5 " class="s14"/><path d="M133.5 9 L133.5 30 M126 22.5 L147 22.5 " class="s15"/></g><g><path d="M168 37.5 L189 37.5 " class="s16"/><path d="M175.5 30 L175.5 45 M168 37.5 L189 37.5 " class="s14"/><path d="M175.5 24 L175.5 45 M168 37.5 L189 37.5 " class="s17"/></g><g><path d="M147 7.5 L168 7.5 " class="s16"/><path d="M154.5 0 L154.5 15 M147 7.5 L168 7.5 " class="s18"/></g><g><path d="M168 52.5 L189 52.5 " class="s19"/><path d="M175.5 45 L175.5 60 M168 52.5 L189 52.5 " class="s20"/></g><g><path d="M0 22.5 L21 22.5 " class="s21"/><path d="M7.5 15 L7.5 30 M0 22.5 L21 22.5 " class="s22"/></g><g><path d="M42 22.5 L63 22.5 " class="s21"/><path d="M52.5 15 L52.5 30 M42 22.5 L63 22.5 " class="s23"/><path d="M46 16 L46 20 M44 18 L48 18 " class="s24"/><path d="M59 16 L59 20 M57 18 L61 18 " class="s24"/><path d="M46 25 L46 29 M44 27 L48 27 " class="s24"/><path d="M59 25 L59 29 M57 27 L61 27 " class="s24"/></g><g class="s25"><path d="M105 27.5 L126 27.5 " class="s7"/><path d="M105 22.5 L126 22.5 " class="s4"/><path d="M105 17.5 L126 17.5 " class="s3"/></g><g class="s25"><path d="M105 42.5 L126 42.5 " class="s26"/><path d="M105 37.5 L126 37.5 " class="s7"/><path d="M105 32.5 L126 32.5 " class="s27"/></g><g class="s25"><path d="M63 57.5 L84 57.5 " class="s26"/><path d="M63 52.5 L84 52.5 " class="s8"/><path d="M63 47.5 L84 47.5 " class="s4"/></g><g class="s25"><path d="M63 27.5 L84 27.5 " class="s27"/><path d="M63 22.5 L84 22.5 " class="s28"/><path d="M63 17.5 L84 17.5 " class="s5"/></g><g><path d="M189 27.5 L210 27.5 " class="s29"/><path d="M189 22.5 L210 22.5 " class="s14"/><path d="M189 17.5 L210 17.5 " class="s30"/><path d="M199.5 21 C200.3 21 201 21.7 201 22.5 C201 23.3 200.3 24 199.5 24 C198.7 24 198 23.3 198 22.5 C198 21.7 198.7 21 199.5 21 " class="s28"/></g><g><path d="M126 12.5 L147 12.5 " class="s31"/><path d="M126 7.5 L147 7.5 " class="s14"/><path d="M126 2.5 L147 2.5 " class="s29"/><path d="M136.5 3 C136.5 3 136.2 4 135 4 C133.9 4 133 3.1 133 3.1 L133 8 C133 11 136.5 13 136.5 13 C136.5 13 140 11 140 8 L140 3 C140 3 139.1 4 138 4 C136.9 4 136.5 3 136.5 3 Z" class="s32"/><path d="M136.5 5 C136.5 5 136.3 6 135.5 6 C134.7 6 134 5 134 5 L134 8 C134 10.1 136.5 11 136.5 11 C136.5 11 139 10.1 139 8 L139 5 C139 5 138.3 6 137.5 6 C136.7 6 136.5 5 136.5 5 Z" class="s33"/></g><g><path d="M105 57.5 L126 57.5 " class="s29"/><path d="M105 52.5 L126 52.5 " class="s34"/><path d="M105 47.5 L126 47.5 " class="s14"/><path d="M110.5 47 C110.5 47 110.2 48 109 48 C107.9 48 107 47.1 107 47.1 L107 52 C107 55 110.5 57 110.5 57 C110.5 57 114 55 114 52 L114 47 C114 47 113.1 48 112 48 C110.9 48 110.5 47 110.5 47 Z" class="s32"/><path d="M110.5 49 C110.5 49 110.3 50 109.5 50 C108.7 50 108 49 108 49 L108 52 C108 54.1 110.5 55 110.5 55 C110.5 55 113 54.1 113 52 L113 49 C113 49 112.3 50 111.5 50 C110.7 50 110.5 49 110.5 49 Z" class="s33"/></g><g><path d="M126 57.5 L147 57.5 " class="s29"/><path d="M126 52.5 L147 52.5 " class="s34"/><path d="M126 47.5 L147 47.5 " class="s14"/><path d="M131 47.3 C131 47.3 130.7 48.2 129.7 48.2 C128.8 48.2 128 47.4 128 47.4 L128 51.6 C128 54.3 131 56 131 56 C131 56 134 54.3 134 51.6 L134 47.3 C134 47.3 133.2 48.2 132.3 48.2 C131.3 48.2 131 47.3 131 47.3 Z" class="s32"/><path d="M131 49 C131 49 130.9 49.9 130.2 49.9 C129.6 49.9 129 49 129 49 L129 51.7 C129 53.5 131 54.3 131 54.3 C131 54.3 133 53.5 133 51.7 L133 49 C133 49 132.4 49.9 131.8 49.9 C131.1 49.9 131 49 131 49 Z" class="s35"/></g><g transform="translate(126.000000, 62.000000)"><path d="M0 10.5 L21 10.5" class="s14"/><path d="M0 5.5 L21 5.5" class="s34"/><path d="M0 0.5 L21 0.5" class="s29"/><path d="M4.98168945 1.3 C4.98168945 1.3 4.7 2.2 3.7 2.2 C2.81272211 2.2 2 1.4 2 1.4 L2 5.6 C2.02743881 8.3 5 10 5 10 C4.98168945 10 8 8.3 8 5.6 L8.01579939 1.3 C8.01579939 1.3 7.2 2.2 6.3 2.2 C5.30909054 2.2 5 1.3 5 1.3 Z" class="s12"/><circle cx="5" cy="3" r="2" class="s36"/><circle cx="5" cy="6.5" r="2" class="s36"/><path d="M4.99492188 3 C4.99492188 3 4.9 3.9 4.2 3.9 C3.59543454 3.9 3 3 3 3 L3 5.7 C3.01843282 7.5 5 8.3 5 8.3 C4.99492188 8.3 7 7.5 7 5.7 L7.00454102 3 C7.00454102 3 6.4 3.9 5.8 3.9 C5.1379836 3.9 5 3 5 3 Z" class="s32"/></g><g><path d="M147 27.5 L168 27.5 " class="s30"/><path d="M147 22.5 L168 22.5 " class="s14"/><path d="M147 17.5 L168 17.5 " class="s37"/><path d="M157.5 21 C158.3 21 159 21.7 159 22.5 C159 23.3 158.3 24 157.5 24 C156.7 24 156 23.3 156 22.5 C156 21.7 156.7 21 157.5 21 " class="s38"/></g><g class="s25"><path d="M147 42.5 L168 42.5 " class="s8"/><path d="M147 37.5 L168 37.5 " class="s4"/><path d="M147 32.5 L168 32.5 " class="s26"/></g><g class="s25"><path d="M189 12.5 L210 12.5 " class="s4"/><path d="M189 7.5 L210 7.5 " class="s5"/><path d="M189 2.5 L210 2.5 " class="s8"/></g><g><path d="M0 7.5 L21 7.5 " class="s39"/><path d="M11 8.1 L12.6 9.4 L13.7 12 L11 9.4 L11 12 L9.9 12 C9.9 12 9.9 9.4 9.9 9.4 C9.9 9.4 7.3 12 7.3 12 L8.6 9.4 L9.9 8.1 L6 9.4 L8.3 7.5 L6 4.1 L7.3 4.1 L9.3 6.4 L9.9 4.1 L8.3 3 L12.9 3 L11 4.1 L11.7 6.4 L13.7 4.1 L15 4.1 L12.7 7.5 L15 9.4 L11 8.1 Z" class="s32"/></g><g transform="translate(105.000000, 1.000000)"><path d="M0 6.5 L21 6.5" class="s40"/><path d="M5.25158691 2.9 L8.02282715 2.9 L5.74804688 4.2 L6.41833496 7 L4.51416016 5 L2.61791992 7 L3.21437323 4.2 L0.982910156 2.9 L3.74719038 2.9 L4.51416016 0.5 L5.25158691 2.9 Z" class="s41"/><path d="M7.56480824 1.1 C7.87674322 1.1 8.1 0.9 8.1 0.6 C8.12961648 0.3 7.9 0 7.6 0 C7.25287326 0 7 0.3 7 0.6 C7 0.9 7.3 1.1 7.6 1.1 Z" class="s41"/><circle cx="9.5" cy="2.5" r="0.5" class="s41"/><circle cx="9.5" cy="5.5" r="0.5" class="s41"/><circle cx="7.5" cy="7.5" r="0.5" class="s41"/></g><g class="s25"><path d="M21 12.5 L42 12.5 " class="s6"/><path d="M21 7.5 L42 7.5 " class="s2"/><path d="M21 2.5 L42 2.5 " class="s3"/></g><g><path d="M0 44 L21 44 " class="s42"/><path d="M0 37.5 L21 37.5 " class="s43"/><path d="M0 31 L21 31 " class="s42"/><path d="M9.6 35.2 L10.6 33.3 L11.6 35.2 L14.2 35.2 L12.9 37.6 L14.2 40.1 L11.6 40.1 L10.6 41.9 L9.6 40.1 L7 40.1 L8.3 37.6 L7 35.2 L9.6 35.2 Z" class="s8"/></g><g><path d="M84 28.5 L105 28.5 " class="s44"/><path d="M84 16.5 L87 16.5 " class="s22"/><path d="M89 16.5 L92 16.5 " class="s22"/><path d="M84 21.5 L87 21.5 " class="s22"/><path d="M89 21.5 L92 21.5 " class="s22"/><path d="M92 19 L105 19 " class="s42"/><path d="M92 16 L105 16 " class="s42"/><path d="M92 22 L105 22 " class="s42"/><path d="M84 25 L105 25 " class="s42"/><path d="M84 28 L105 28 " class="s42"/></g><g><path d="M84 42 L105 42 " class="s45"/><path d="M84 37.5 L105 37.5 " class="s18"/><path d="M84 33 L105 33 " class="s45"/></g><g><path d="M147 58.5 L168 58.5 " class="s46"/><path d="M147 52.5 L168 52.5 " class="s47"/><path d="M147 46.5 L168 46.5 " class="s46"/></g><g><path d="M168 11.5 L189 11.5 " class="s48"/><path d="M168 4 L189 4 " class="s49"/><path d="M168.1 0 L176 7.5 L168.1 14.5 L168.1 0 " class="s50"/></g><g transform="translate(0.003906, 45.000000)"><path d="M0 11.5 L21 11.5" class="s48"/><path d="M0 4 L21 4" class="s51"/><path d="M-0.00390625 0 L7.93276042 7.5 L-0.00390625 14.5 L-0.00390625 0" class="s32"/><circle cx="2.5" cy="7.5" r="1.5" class="s36"/></g><g><path d="M168 26.5 L189 26.5 " class="s52"/><path d="M168 19 L189 19 " class="s53"/></g><g><path d="M21 56.5 L42 56.5 " class="s48"/><path d="M21 49 L42 49 " class="s49"/></g><g><path d="M0 71.5 L21 71.5 " class="s54"/><path d="M0 64 L21 64 " class="s55"/></g><g><path d="M42 7.5 L63 7.5 " class="s56"/><path d="M56 7.5 C56 9.5 54.5 11 52.5 11 C50.5 11 49 9.5 49 7.5 C49 5.5 50.5 4 52.5 4 C54.5 4 56 5.5 56 7.5 Z" class="s57"/></g><g transform="translate(84.000000, 48.000000)"><path d="M0 4.5 L21 4.5" class="s56"/><path d="M6.5 7.5 L14.5 7.5" class="s58"/><path d="M12.5 6.5 L12.5 8.5" class="s58"/><g transform="translate(6.000000, 0.000000)" class="s32"><circle cx="0.5" cy="0.5" r="0.5"/><circle cx="2.5" cy="0.5" r="0.5"/><circle cx="4.5" cy="0.5" r="0.5"/><circle cx="6.5" cy="0.5" r="0.5"/><circle cx="8.5" cy="0.5" r="0.5"/><circle cx="1.5" cy="1.5" r="0.5"/><circle cx="3.5" cy="1.5" r="0.5"/><circle cx="5.5" cy="1.5" r="0.5"/><circle cx="7.5" cy="1.5" r="0.5"/><circle cx="0.5" cy="2.5" r="0.5"/><circle cx="2.5" cy="2.5" r="0.5"/><circle cx="4.5" cy="2.5" r="0.5"/><circle cx="6.5" cy="2.5" r="0.5"/><circle cx="8.5" cy="2.5" r="0.5"/><circle cx="1.5" cy="3.5" r="0.5"/><circle cx="3.5" cy="3.5" r="0.5"/><circle cx="5.5" cy="3.5" r="0.5"/><circle cx="7.5" cy="3.5" r="0.5"/><circle cx="0.5" cy="4.5" r="0.5"/><circle cx="2.5" cy="4.5" r="0.5"/><circle cx="4.5" cy="4.5" r="0.5"/><circle cx="6.5" cy="4.5" r="0.5"/><circle cx="8.5" cy="4.5" r="0.5"/></g></g><g><path d="M42 37.5 L63 37.5 " class="s21"/><path d="M56 37.5 C56 39.5 54.5 41 52.5 41 C50.5 41 49 39.5 49 37.5 C49 35.5 50.5 34 52.5 34 C54.5 34 56 35.5 56 37.5 Z" class="s57"/></g><g><path d="M63 37.5 L84 37.5 " class="s21"/><path d="M77 37.1 L77 37.1 C77 37.5 76.7 36.2 75.6 36 C74.6 35.8 73.6 36.5 73.4 37.6 C73.2 38.5 72.3 39.2 71.4 39 C70.5 38.8 69.9 37.9 70 36.9 C70.4 35 72.3 33.7 74.2 34.1 C75.7 34.4 76.8 35.6 77 37.1 L77 37.1 L77 37.1 Z" class="s12"/><path d="M70 37.9 L70 37.9 C70 37.5 70.3 38.8 71.4 39 C72.4 39.2 73.4 38.5 73.6 37.4 C73.8 36.5 74.7 35.8 75.6 36 C76.5 36.2 77.2 37.1 77 38.1 C76.6 40 74.7 41.3 72.8 40.9 C71.3 40.6 70.2 39.4 70 37.9 L70 37.9 L70 37.9 Z" class="s59"/></g><g transform="translate(63.000000, 60.000000)"><path d="M0 7.5 L21 7.5" class="s13"/><g><mask class="s60"><use xlink:href="#path-1"/></mask><use xlink:href="#path-1"/><path d="M10.5317333 7.5 L0.499999986 0.5 L10.5317333 7.5 L20.5634665 0.5 L10.5317333 7.5 Z M10.5317333 7.5 L20.5000007 14.5 L10.5317333 7.5 L0.563465819 14.5 L10.5317333 7.5 Z" class="s61"/></g><g><mask class="s60"><use xlink:href="#path-3"/></mask><use xlink:href="#path-3"/><path d="M10.5317333 7.5 L0.499999986 0.5 L10.5317333 7.5 L20.5634665 0.5 L10.5317333 7.5 Z M10.5317333 7.5 L20.5000007 14.5 L10.5317333 7.5 L0.563465819 14.5 L10.5317333 7.5 Z" class="s62"/></g><path d="M10.5 0 L10.5 15 M0 7.5 L21 7.5" class="s14"/><path d="M10.5 0 L10.5 15 M0 7.5 L21 7.5" class="s23"/></g><g transform="translate(168.000000, 60.000000)"><path d="M0 7.5 L21 7.5" class="s13"/><g><mask class="s60"><use xlink:href="#path-5"/></mask><use xlink:href="#path-5"/><path d="M4.54616881 3.5 L0.215831932 0.2 L4.54616881 3.5 L8.87650568 0.2 L4.54616881 3.5 Z M4.54616881 3.5 L8.84910977 6.8 L4.54616881 3.5 L0.24322784 6.8 L4.54616881 3.5 Z" class="s63"/></g><path d="M4.5 0 L4.5 7 M0 3.5 L9 3.5" class="s18"/><g><mask class="s60"><use xlink:href="#path-7"/></mask><use xlink:href="#path-7"/><path d="M0.215831932 0.2 L8.84910977 6.8" class="s64"/><path d="M8.87650568 0.2 L0.24322784 6.8" class="s64"/></g><path d="M4.5 0 L4.5 7 M0 3.5 L9 3.5" class="s28"/><polygon points="13,3.5 12.4,3.8 12.5,3.2 12,2.7 12.7,2.6 13,2 13.3,2.6 14,2.7 13.5,3.2 13.6,3.8" class="s32"/><polygon points="16.5,5.2 15.6,5.7 15.8,4.7 15.1,4 16.1,3.9 16.5,3 16.9,3.9 17.9,4 17.2,4.7 17.4,5.7" class="s32"/><polygon points="16,8.5 15.4,8.8 15.5,8.2 15,7.7 15.7,7.6 16,7 16.3,7.6 17,7.7 16.5,8.2 16.6,8.8" class="s32"/><polygon points="11.5,7.2 10.6,7.7 10.8,6.7 10.1,6 11.1,5.9 11.5,5 11.9,5.9 12.9,6 12.2,6.7 12.4,7.7" class="s32"/><polygon points="4,12 2.8,12.6 3,11.3 2.1,10.4 3.4,10.2 4,9 4.6,10.2 5.9,10.4 5,11.3 5.2,12.6" class="s32"/></g><g transform="translate(126.000000, 30.000000)"><g class="s57"><path d="M7.99965448 0 L21.0089722 0 L21.0089722 1 L7.99965448 1 L7.99965448 0 Z"/><path d="M7.99965448 2 L21.0089722 2 L21.0089722 3 L7.99965448 3 L7.99965448 2 Z"/><path d="M7.99350745 4 L21.0141693 4 L21.0141693 5 L7.99350745 5 L7.99350745 4 Z"/><path d="M7.99350745 6 L21.0141693 6 L21.0141693 7 L7.99350745 7 L7.99350745 6 Z"/><path d="M0 8 L21 8 L21 9 L0 9 L0 8 Z"/><path d="M0 10 L21 10 L21 11 L0 11 L0 10 Z"/><path d="M0 12 L21 12 L21 13 L0 13 L0 12 Z"/><path d="M0 14 L21 14 L21 15 L0 15 L0 14 Z"/></g><g class="s32"><path d="M10.2 1 L21 1 L21 2 L10.2 2 L10.2 1 Z"/><path d="M10.2 3 L21 3 L21 4 L10.2 4 L10.2 3 Z"/><path d="M10.2 5 L21 5 L21 6 L10.2 6 L10.2 5 Z"/><path d="M0 7 L21 7 L21 8 L0 8 L0 7 Z"/><path d="M0 9 L21 9 L21 10 L0 10 L0 9 Z"/><path d="M0 11 L21 11 L21 12 L0 12 L0 11 Z"/><path d="M0 13 L21 13 L21 14 L0 14 L0 13 Z"/></g><path d="M0 0 L8 0 L8 8 L0 8 L0 0 Z" class="s65"/><path d="M4.21559947 2.4 C3.87919961 2.2 3.5 2 3 2 C1.89861797 2 1 2.9 1 4 C1.00341797 5.1 1.9 6 3 6 C3.4590208 6 3.9 5.8 4.2 5.6 C4.1447701 5.6 4.1 5.6 4 5.6 C2.8952 5.6 2 4.9 2 4 C2 3.1 2.9 2.4 4 2.4 C4.07283775 2.4 4.1 2.4 4.2 2.4 Z" class="s41"/><path d="M6 3 C6.552 3 7 3.4 7 4 C7 4.6 6.6 5 6 5 C5.44733333 5 5 4.6 5 4 C5 3.4 5.4 3 6 3" class="s41"/></g><g transform="translate(21.000000, 60.000000)"><g class="s57"><path d="M9.9899478 0 L21.0089722 0 L21.0089722 1 L9.9899478 1 L9.9899478 0 Z"/><path d="M9.9899478 2 L21.0089722 2 L21.0089722 3 L9.9899478 3 L9.9899478 2 Z"/><path d="M9.98474121 4 L21.0133742 4 L21.0133742 5 L9.98474121 5 L9.98474121 4 Z"/><path d="M9.98474121 6 L21.0133742 6 L21.0133742 7 L9.98474121 7 L9.98474121 6 Z"/><path d="M0 8 L21 8 L21 9 L0 9 L0 8 Z"/><path d="M0 10 L21 10 L21 11 L0 11 L0 10 Z"/><path d="M0 12 L21 12 L21 13 L0 13 L0 12 Z"/><path d="M0 14 L21 14 L21 15 L0 15 L0 14 Z"/></g><g class="s32"><path d="M10 1 L21 1 L21 2 L10 2 L10 1 Z"/><path d="M10 3 L21 3 L21 4 L10 4 L10 3 Z"/><path d="M10 5 L21 5 L21 6 L10 6 L10 5 Z"/><path d="M0 7 L21 7 L21 8 L0 8 L0 7 Z"/><path d="M0 9 L21 9 L21 10 L0 10 L0 9 Z"/><path d="M0 11 L21 11 L21 12 L0 12 L0 11 Z"/><path d="M0 13 L21 13 L21 14 L0 14 L0 13 Z"/></g><path d="M0 0 L11 0 L11 9 L0 9 L0 0 Z" class="s65"/><g transform="translate(1.000000, 1.000000)" class="s32"><circle cx="0.5" cy="0.5" r="0.5"/><circle cx="2.5" cy="0.5" r="0.5"/><circle cx="4.5" cy="0.5" r="0.5"/><path d="M6.5 1 C6.77614237 1 7 0.8 7 0.5 C7 0.2 6.8 0 6.5 0 C6.22385763 0 6 0.2 6 0.5 C6 0.8 6.2 1 6.5 1 Z"/><circle cx="1.5" cy="1.5" r="0.5"/><circle cx="3.5" cy="1.5" r="0.5"/><circle cx="5.5" cy="1.5" r="0.5"/><path d="M7.5 2 C7.77614237 2 8 1.8 8 1.5 C8 1.2 7.8 1 7.5 1 C7.22385763 1 7 1.2 7 1.5 C7 1.8 7.2 2 7.5 2 Z"/><circle cx="0.5" cy="2.5" r="0.5"/><circle cx="2.5" cy="2.5" r="0.5"/><circle cx="4.5" cy="2.5" r="0.5"/><circle cx="6.5" cy="2.5" r="0.5"/><circle cx="1.5" cy="3.5" r="0.5"/><circle cx="3.5" cy="3.5" r="0.5"/><circle cx="5.5" cy="3.5" r="0.5"/><circle cx="7.5" cy="3.5" r="0.5"/><circle cx="1.5" cy="5.5" r="0.5"/><circle cx="3.5" cy="5.5" r="0.5"/><circle cx="5.5" cy="5.5" r="0.5"/><circle cx="7.5" cy="5.5" r="0.5"/><circle cx="0.5" cy="4.5" r="0.5"/><circle cx="2.5" cy="4.5" r="0.5"/><circle cx="4.5" cy="4.5" r="0.5"/><circle cx="6.5" cy="4.5" r="0.5"/><circle cx="0.5" cy="6.5" r="0.5"/><circle cx="2.5" cy="6.5" r="0.5"/><circle cx="4.5" cy="6.5" r="0.5"/><circle cx="6.5" cy="6.5" r="0.5"/><path d="M8.5 1 C8.77614237 1 9 0.8 9 0.5 C9 0.2 8.8 0 8.5 0 C8.22385763 0 8 0.2 8 0.5 C8 0.8 8.2 1 8.5 1 Z"/><circle cx="8.5" cy="2.5" r="0.5"/><circle cx="8.5" cy="4.5" r="0.5"/><circle cx="8.5" cy="6.5" r="0.5"/></g></g><g><path d="M63 7.5 L84 7.5 " class="s56"/><path d="M66 7.5 L73.1 2 L80.2 7.5 L73.1 13.1 L66 7.5 L66 7.5 Z" class="s66"/><path d="M76.4 7.4 C76.4 9.3 74.9 10.8 73 10.8 C71.1 10.8 69.6 9.3 69.6 7.4 C69.6 5.5 71.1 4 73 4 C74.9 4 76.4 5.5 76.4 7.4 Z" class="s59"/><path d="M76.2 9.1 C76.3 8.9 76.4 8.7 76.5 8.4 C75.7 6.7 74 5.5 71.9 5.5 C71.1 5.5 70.3 5.7 69.6 6 C69.5 6.2 69.5 6.4 69.4 6.6 C70.1 6.2 70.8 6.1 71.6 6.1 C73.7 6.1 75.5 7.3 76.2 9.1 L76.2 9.1 Z" class="s67"/></g><g class="s25"><path d="M84 12.5 L105 12.5 " class="s28"/><path d="M84 7.5 L105 7.5 " class="s7"/><path d="M84 2.5 L105 2.5 " class="s4"/></g><g><path d="M189 52.5 L210 52.5 " class="s40"/><path d="M202.9 52 L202.3 52.5 C202.1 52.7 202 53 202.1 53.2 L202.3 53.9 C202.4 54.1 202.3 54.2 202.1 54 L201.4 53.6 C201.2 53.5 200.9 53.5 200.8 53.6 L200.1 54.1 C200 54.2 199.9 54.2 199.9 54 L200.1 53.2 C200.1 52.9 200 52.6 199.9 52.5 L199.3 52 C199.2 51.8 199.2 51.7 199.4 51.7 L200.2 51.7 C200.4 51.7 200.6 51.5 200.7 51.3 L200.9 50.4 C201 50.2 201.1 50.2 201.2 50.4 L201.5 51.3 C201.5 51.5 201.8 51.7 202 51.7 L202.8 51.7 C203 51.7 203 51.8 202.9 52 L202.9 52 ZM200.7 49.3 C200.7 49.3 200.7 49.3 200.7 49.3 L200.7 49.3 C200.6 49.2 200.4 49.1 200.2 49.1 C198.4 48.5 196.5 49.5 196 51.4 C195.9 51.8 195.9 52.2 195.9 52.5 C195.9 52.9 195.9 53.3 196.1 53.6 C196.6 55.5 198.5 56.6 200.3 56 C200.5 55.9 200.7 55.8 200.8 55.7 L200.8 55.7 C200.8 55.7 200.9 55.7 200.9 55.7 C200.9 55.7 201 55.7 201 55.8 C201 55.9 201 55.9 201 55.9 C200.6 56.3 200.1 56.6 199.5 56.8 C197.3 57.5 194.9 56.2 194.2 53.9 C194 53.4 194 53 193.9 52.5 C193.9 52.1 194 51.7 194.1 51.2 C194.8 48.8 197.1 47.5 199.3 48.2 C199.9 48.4 200.4 48.7 200.8 49.1 C200.9 49.1 200.9 49.1 200.9 49.2 C200.9 49.3 200.8 49.3 200.7 49.3 L200.7 49.3 Z" class="s32"/></g><g><path d="M192.5 30 L192.5 45 " class="s52"/><path d="M203 30 L203 45 " class="s68"/><path d="M206.3 39.2 C206 39.6 205.7 40 205.3 40.4 C203.7 41.8 201.3 41.5 200 39.8 C199.7 39.4 199.5 39.1 199.4 38.7 C199.3 38.4 199.2 38 199.1 37.6 C199 35.4 200.6 33.5 202.6 33.3 C203.2 33.3 203.7 33.3 204.1 33.5 C204.2 33.5 204.2 33.5 204.2 33.6 C204.2 33.7 204.2 33.7 204.1 33.7 C204.1 33.7 204.1 33.7 204.1 33.7 L204.1 33.7 C203.9 33.7 203.8 33.7 203.6 33.7 C201.9 33.8 200.7 35.4 200.8 37.1 C200.8 37.4 200.9 37.8 201 38.1 C201.1 38.4 201.3 38.7 201.5 38.9 C202.5 40.3 204.4 40.5 205.7 39.4 C205.9 39.3 206 39.2 206.1 39 L206.1 39 C206.1 39 206.1 39 206.1 39 C206.2 39 206.2 39 206.3 39 C206.3 39.1 206.3 39.1 206.3 39.2 L206.3 39.2 ZM205.6 36.8 C205.4 36.9 205.4 37.2 205.4 37.4 L205.6 38 C205.7 38.2 205.6 38.3 205.4 38.2 L204.8 37.8 C204.7 37.7 204.4 37.7 204.3 37.8 L203.7 38.3 C203.5 38.4 203.4 38.3 203.5 38.1 L203.6 37.4 C203.7 37.2 203.6 36.9 203.5 36.8 L203 36.4 C202.8 36.2 202.9 36.1 203 36.1 L203.7 36.1 C203.9 36.1 204.1 35.9 204.2 35.7 L204.4 35 C204.5 34.8 204.6 34.8 204.6 35 L204.9 35.7 C204.9 35.9 205.1 36.1 205.3 36.1 L206.1 36.1 C206.2 36.1 206.3 36.2 206.1 36.3 L205.6 36.8 L205.6 36.8 Z" class="s32"/></g><g transform="translate(86.998047, 60.000000)"><path d="M0.505859375 0 L0.505859375 15" class="s69"/><path d="M11 0 L11 15" class="s70"/><circle cx="4.5" cy="7.5" r="3.5" class="s71"/><path d="M4.4984375 6 C4.4984375 6 4.4 6.6 4.1 6.6 C3.79869383 6.6 3.5 6 3.5 6 L3.50097656 7.6 C3.51019297 8.8 4.5 9.3 4.5 9.3 C4.4984375 9.3 5.5 8.8 5.5 7.6 L5.50324707 6 C5.50324707 6 5.2 6.6 4.9 6.6 C4.56996836 6.6 4.5 6 4.5 6 Z" class="s32"/></g><g class="s72"><path d="M189 67.5 L210 67.5 "/></g></g></g></svg>